<svg width="27" height="27" viewBox="0 0 27 27" fill="none" xmlns="http://www.w3.org/2000/svg">
<path d="M25.2673 11.4229H5.91288L14.3685 2.96725C15.0443 2.29149 15.0443 1.18255 14.3685 0.506794C14.0448 0.182338 13.6053 0 13.147 0C12.6886 0 12.2491 0.182338 11.9254 0.506794L0.506819 11.9254C-0.16894 12.6011 -0.16894 13.6927 0.506819 14.3685L11.9254 25.7871C12.6012 26.4628 13.6928 26.4628 14.3685 25.7871C15.0443 25.1113 15.0443 24.0197 14.3685 23.3439L5.91288 14.8883H25.2673C26.2203 14.8883 27 14.1086 27 13.1556C27 12.2026 26.2203 11.4229 25.2673 11.4229Z" fill="#ECECF1"/>
</svg>
