<svg width="118" height="117" viewBox="0 0 118 117" fill="none" xmlns="http://www.w3.org/2000/svg">
<g id="Layer 1">
<path id="Vector" d="M58.9368 5.75878C66.0594 5.75878 72.966 7.15198 79.464 9.90058C85.7442 12.5574 91.3836 16.3608 96.2292 21.2064C101.075 26.052 104.878 31.6932 107.535 37.9716C110.284 44.4696 111.677 51.3762 111.677 58.4988C111.677 65.6214 110.284 72.528 107.535 79.026C104.878 85.3062 101.075 90.9456 96.2292 95.7912C91.3836 100.637 85.7424 104.44 79.464 107.097C72.966 109.846 66.0594 111.239 58.9368 111.239C51.8142 111.239 44.9076 109.846 38.4096 107.097C32.1294 104.44 26.49 100.637 21.6444 95.7912C16.7988 90.9456 12.9954 85.3044 10.3386 79.026C7.58997 72.528 6.19677 65.6214 6.19677 58.4988C6.19677 51.3762 7.58997 44.4696 10.3386 37.9716C12.9954 31.6914 16.7988 26.052 21.6444 21.2064C26.49 16.3608 32.1312 12.5574 38.4096 9.90058C44.9076 7.15198 51.8142 5.75878 58.9368 5.75878ZM58.9368 -0.0012207C26.6286 -0.0012207 0.436768 26.1906 0.436768 58.4988C0.436768 90.807 26.6286 116.999 58.9368 116.999C91.245 116.999 117.437 90.807 117.437 58.4988C117.437 26.1906 91.245 -0.0012207 58.9368 -0.0012207Z" fill="#A3A3A3" fill-opacity="0.38"/>
</g>
</svg>
