<svg width="32" height="43" viewBox="0 0 32 43" fill="none" xmlns="http://www.w3.org/2000/svg">
<g id="Group 48095668">
<g id="Group 48095666">
<rect id="Rectangle 39464" width="7.86181" height="29.5906" transform="matrix(-0.958238 0.285973 0.285973 0.958238 7.53351 0)" fill="#234499"/>
<rect id="Rectangle 39466" width="2.26507" height="29.5906" transform="matrix(-0.958238 0.285973 0.285973 0.958238 4.85773 0.801147)" fill="#F0F0F0"/>
</g>
<g id="Group 48095667">
<rect id="Rectangle 39464_2" x="23.9694" width="7.86181" height="29.5906" transform="rotate(16.617 23.9694 0)" fill="#234499"/>
<rect id="Rectangle 39466_2" x="26.6452" y="0.801147" width="2.26507" height="29.5906" transform="rotate(16.617 26.6452 0.801147)" fill="#F0F0F0"/>
</g>
<g id="Group">
<path id="Vector" d="M15.5073 42.0217C22.1348 42.0217 27.5073 36.6491 27.5073 30.0217C27.5073 23.3943 22.1348 18.0217 15.5073 18.0217C8.87983 18.0217 3.50732 23.3943 3.50732 30.0217C3.50732 36.6491 8.87983 42.0217 15.5073 42.0217Z" fill="#FFB02E"/>
<path id="Vector_2" d="M13.2222 25.743C13.2222 25.4337 13.3481 25.1371 13.5722 24.9184C13.7964 24.6997 14.1004 24.5768 14.4174 24.5768H15.5218C15.8388 24.5768 16.1428 24.6997 16.3669 24.9184C16.5911 25.1371 16.717 25.4337 16.717 25.743V33.8585C16.717 34.1678 16.5911 34.4644 16.3669 34.6831C16.1428 34.9018 15.8388 35.0247 15.5218 35.0247C15.2048 35.0247 14.9008 34.9018 14.6766 34.6831C14.4525 34.4644 14.3266 34.1678 14.3266 33.8585V26.9057C14.0262 26.8834 13.7455 26.7512 13.5408 26.5356C13.336 26.32 13.2222 26.037 13.2222 25.743Z" fill="#6D4534"/>
<path id="Vector_3" d="M15.5202 40.5767C12.6995 40.5767 10.0461 39.4805 8.06204 37.4863C6.06519 35.4919 4.95315 32.8108 4.96643 30.0227C4.96643 27.2006 6.06603 24.5534 8.06204 22.5592C9.03052 21.5826 10.1904 20.8061 11.4727 20.2758C12.755 19.7454 14.1335 19.4721 15.5262 19.4721C16.9189 19.4721 18.2974 19.7454 19.5797 20.2758C20.862 20.8061 22.0219 21.5826 22.9903 22.5592C27.1019 26.6758 27.1019 33.3697 22.9903 37.4863C20.9824 39.4805 18.329 40.5767 15.5202 40.5767ZM15.5083 20.9032C13.1776 20.9032 10.835 21.7895 9.06603 23.5738C7.34537 25.2993 6.3882 27.6153 6.40069 30.0227C6.40069 32.4601 7.34491 34.7458 9.06603 36.4717C9.90036 37.317 10.901 37.9892 12.008 38.4481C13.115 38.907 14.3055 39.1431 15.5083 39.1423C17.9465 39.1423 20.2294 38.1977 21.9505 36.4717C25.5003 32.9149 25.5003 27.1306 21.9505 23.5738C21.1168 22.7276 20.1163 22.0549 19.0092 21.5959C17.902 21.1369 16.7112 20.9013 15.5083 20.9032Z" fill="#FCD53F"/>
</g>
</g>
</svg>
