<svg width="83" height="93" viewBox="0 0 83 93" fill="none" xmlns="http://www.w3.org/2000/svg">
<g clip-path="url(#clip0_3368_922)">
<path d="M51.7115 14.2957C51.7169 14.3299 51.6996 14.3636 51.6687 14.3791L51.6562 14.3853C51.6299 14.3985 51.5992 14.3957 51.576 14.3798C51.4028 14.3539 51.231 14.3251 51.06 14.2965C50.6527 14.2283 50.2497 14.1609 49.8416 14.1335L49.8469 14.0545L49.8416 14.1335C48.7644 14.0611 47.6897 14.0005 46.6146 13.9398C45.6527 13.8856 44.6905 13.8313 43.7257 13.7685L43.7257 13.7685C41.0145 13.5911 38.359 13.1377 35.8809 11.9231M51.7115 14.2957L35.9158 11.852M51.7115 14.2957C51.7068 14.2667 51.6866 14.2431 51.6597 14.2336C51.576 14.1196 51.4922 14.0059 51.4085 13.8923C51.1589 13.5534 50.9097 13.2151 50.6647 12.8733C49.5663 11.3401 48.535 9.77966 47.9335 7.98362L47.9335 7.98355C47.7411 7.4108 47.6161 6.83559 47.7079 6.19294C51.7924 7.41908 55.3312 9.45577 58.1865 12.7382C58.2076 12.7625 58.2415 12.7716 58.272 12.7611C58.3025 12.7506 58.3236 12.7226 58.3253 12.6904C58.4096 11.1037 58.5594 9.6586 59.8427 8.58998C59.8645 8.70954 59.8852 8.82895 59.9059 8.94796C60.0841 9.97149 60.2571 10.9659 61.0231 11.7773C61.041 11.7963 61.0671 11.8052 61.0929 11.8012C61.1186 11.7972 61.1408 11.7808 61.1521 11.7573C61.4632 11.1104 61.8165 10.5476 62.284 10.1369C62.7296 9.74533 63.2822 9.48904 64.0095 9.43388C63.7216 11.1948 63.694 12.9104 64.227 14.6009L64.227 14.6009C64.781 16.3549 65.8183 17.7435 67.3882 18.7208C67.4181 18.7394 67.4567 18.7361 67.4829 18.7125C67.5091 18.689 67.5167 18.651 67.5014 18.6193C67.4129 18.4352 67.3023 18.2601 67.1951 18.0902C67.1388 18.0011 67.0834 17.9134 67.0327 17.8266C66.3478 16.6544 65.9529 15.4809 65.9143 14.3069C65.8757 13.1336 66.1926 11.9546 66.9396 10.7699L66.8726 10.7276L66.9396 10.7698C67.663 9.62209 68.6609 8.73273 69.7704 7.95431C69.9794 7.80758 70.1917 7.66561 70.4217 7.51173C70.5329 7.4374 70.6482 7.36029 70.7693 7.27851C70.7949 7.26121 70.8081 7.23059 70.8031 7.20008C70.7981 7.16958 70.7758 7.14476 70.746 7.13654C69.2439 6.72169 67.7804 6.61287 66.3242 6.82559C65.3256 6.9712 64.3351 7.18711 63.3257 7.40714C62.8941 7.50122 62.4591 7.59605 62.0185 7.68647C61.4084 6.60447 61.5412 5.35383 61.8385 3.97838C61.8451 3.94761 61.8329 3.91582 61.8074 3.89741C61.7818 3.879 61.7478 3.87746 61.7207 3.8935C59.5658 5.16887 57.7341 6.64036 56.6758 8.83682C56.5782 8.71366 56.4815 8.58794 56.3842 8.46155C56.1119 8.10764 55.8355 7.74852 55.5258 7.42599L55.4687 7.48084L55.5258 7.42598C54.0999 5.94134 52.3692 4.8796 50.5315 4.01726C48.7414 3.17703 47.0905 2.12335 45.5027 0.955547C45.2389 0.761267 44.9939 0.5448 44.7233 0.305658C44.5914 0.189098 44.4534 0.0671504 44.3041 -0.0602398C44.2824 -0.078823 44.2523 -0.0842114 44.2254 -0.0743338C44.1985 -0.0644561 44.1791 -0.0408498 44.1745 -0.012589C43.4564 4.44808 45.1574 8.10559 47.5364 11.5704C47.4865 11.5855 47.4474 11.5974 47.4061 11.6064L47.4058 11.6064C47.3071 11.6283 47.2066 11.6466 47.1059 11.6615L47.1057 11.6615C44.7832 12.0128 42.518 11.7317 40.3006 10.9979L40.2757 11.073L40.3006 10.9978C36.8003 9.83968 33.9652 7.69559 31.5085 4.99272C31.437 4.91387 31.3631 4.83637 31.267 4.73562C31.2232 4.68972 31.1748 4.63899 31.12 4.5811C31.0987 4.55866 31.0663 4.55065 31.0371 4.56057C31.0078 4.5705 30.987 4.59656 30.9837 4.62731C30.7315 7.02955 31.3254 9.14614 32.254 11.1851C33.1609 13.1766 34.422 14.9385 35.8599 16.6248C30.5306 16.9638 25.6613 18.4903 21.1477 21.2882C21.1202 21.3053 21.1058 21.3373 21.1114 21.3692C21.117 21.401 21.1414 21.4263 21.173 21.433C21.6585 21.5358 22.1373 21.6305 22.6104 21.724C23.6868 21.9369 24.7337 22.1439 25.7616 22.4272L25.7616 22.4272C26.9169 22.7453 28.0425 23.1736 29.17 23.6025C29.3696 23.6784 29.5692 23.7544 29.7691 23.8298C29.9119 23.8836 30.0442 23.9745 30.1851 24.0853C30.2321 24.1223 30.2807 24.162 30.3308 24.203C30.3918 24.2529 30.4552 24.3047 30.5209 24.3559C27.7571 25.365 25.1676 27.0716 23.0905 28.794C20.9794 30.5446 19.3919 32.3164 18.6858 33.3975C18.6687 33.4236 18.6686 33.4574 18.6855 33.4837C18.7024 33.5099 18.7331 33.5238 18.764 33.5191C19.2633 33.4429 19.7648 33.3627 20.2682 33.2822C21.3856 33.1035 22.5125 32.9233 23.6454 32.7822C25.5155 32.5494 27.3917 32.4586 29.2586 32.7481C29.6601 32.8102 30.0528 32.9129 30.4704 33.0221C30.6315 33.0642 30.7964 33.1074 30.9669 33.1495C30.9533 33.1651 30.9412 33.1791 30.9302 33.1918C30.8841 33.2452 30.8573 33.2761 30.8279 33.306L30.8277 33.3063C24.5482 39.7453 19.8265 47.1647 16.8544 55.6667L16.9292 55.6928L16.8544 55.6667C15.3675 59.9221 14.5048 64.308 14.3006 68.8205C14.1774 71.547 14.3077 74.2575 14.6967 76.9546C14.8179 77.7957 14.9751 78.6324 15.1382 79.5004C15.2138 79.903 15.2907 80.3123 15.3659 80.7319C15.3716 80.7637 15.3959 80.7888 15.4275 80.7955C15.459 80.8021 15.4914 80.789 15.5095 80.7623C15.5526 80.6983 15.5873 80.6466 15.6166 80.6029C15.6732 80.5186 15.7095 80.4645 15.7472 80.4111L15.7474 80.4108C15.962 80.1041 16.1707 79.7944 16.3789 79.4855C16.8334 78.8111 17.2857 78.14 17.7924 77.5092L17.7307 77.4596L17.7924 77.5092C22.7529 71.3313 29.0987 67.1563 36.5941 64.6974C37.6253 64.3593 38.673 64.07 39.7243 63.7856C39.854 63.7505 39.9837 63.7155 40.1134 63.6805C41.0352 63.4318 41.9585 63.1826 42.8724 62.904C46.9015 61.6769 50.7969 60.1208 54.3645 57.8311L54.3217 57.7644L54.3645 57.8311C56.4065 56.5195 58.2748 54.996 59.6068 52.9161C59.8835 52.484 60.1148 52.0194 60.3438 51.5594C60.4483 51.3493 60.5524 51.1403 60.6601 50.9357C60.68 50.8979 60.6664 50.8512 60.6293 50.83C60.611 50.8195 60.5926 50.8088 60.5738 50.7979C60.5552 50.787 60.5362 50.7759 60.5171 50.765C60.486 50.7472 60.4469 50.7526 60.4216 50.778C60.334 50.8661 60.249 50.9548 60.1646 51.0429C59.9839 51.2315 59.806 51.4172 59.6116 51.588L59.6116 51.588C57.9198 53.0765 55.9428 54.1044 53.8926 55.0087C48.6947 57.3015 43.2358 58.7655 37.6855 59.892C33.1409 60.8144 28.7426 62.148 24.545 64.1222C22.5766 65.0478 20.6877 66.1265 19.168 67.7488L19.1679 67.749C19.1408 67.778 19.1099 67.8051 19.0661 67.8414C19.0548 67.8509 19.0426 67.8609 19.0295 67.8717C19.0263 67.8743 19.0231 67.877 19.0198 67.8796C18.7578 62.5841 19.4768 57.5089 21.0813 52.5595C23.8507 44.0153 28.9455 37.1663 36.3116 31.9278C36.3336 31.9121 36.3462 31.8864 36.3448 31.8594C36.3435 31.8324 36.3286 31.808 36.3052 31.7946C36.2411 31.7578 36.1817 31.7223 36.1253 31.6886C36.0068 31.6177 35.9013 31.5546 35.7925 31.5039C33.2422 30.3161 30.5015 30.0226 27.6416 29.7833C30.1463 27.1375 33.2503 25.8574 36.714 25.0865C36.7429 25.08 36.7659 25.0579 36.7734 25.0292C36.7809 25.0004 36.7717 24.9699 36.7496 24.9501C36.6595 24.8696 36.5758 24.7919 36.4956 24.7174C36.3381 24.5713 36.1938 24.4375 36.0412 24.3183C33.6426 22.4411 30.8781 21.3856 27.8335 20.695C30.1178 19.4676 32.4309 18.6626 34.8083 18.016C37.2602 17.3497 39.7573 16.9221 42.4156 16.6527C42.4511 16.6491 42.4798 16.6222 42.4857 16.5871C42.4916 16.5519 42.4732 16.5171 42.4409 16.5021C42.2372 16.4078 42.047 16.3216 41.8662 16.2397C41.4981 16.0729 41.1693 15.9238 40.8466 15.7608C38.9225 14.7882 37.1478 13.635 35.8228 11.9103M51.7115 14.2957L35.7233 11.9106C35.7313 11.9104 35.739 11.9102 35.7465 11.91C35.7618 11.9096 35.7759 11.9092 35.7875 11.9092C35.8005 11.9092 35.8122 11.9095 35.8228 11.9103M35.8809 11.9231L35.9158 11.852M35.8809 11.9231C35.881 11.9232 35.881 11.9232 35.881 11.9232L35.9158 11.852M35.8809 11.9231C35.8666 11.9162 35.848 11.9121 35.8228 11.9103M35.9158 11.852C35.8761 11.8327 35.8285 11.8296 35.7792 11.83C35.7772 11.8347 35.7747 11.8392 35.7718 11.8434C35.7887 11.8658 35.8057 11.8881 35.8228 11.9103M47.1175 11.7398C47.2199 11.7247 47.3223 11.706 47.4229 11.6838L47.1175 11.7398Z" fill="#002323" stroke="#002323" stroke-width="0.158397" stroke-linejoin="round"/>
<path d="M21.871 38.1398C21.8984 38.1707 21.8975 38.2174 21.869 38.2473C20.287 39.8972 18.8612 41.6664 17.6436 43.6037C15.3017 47.331 13.6171 51.3495 12.4541 55.5806C11.986 57.2831 11.5991 59.0066 11.2102 60.7392C11.0358 61.5162 10.861 62.295 10.6783 63.0745C10.6704 63.1082 10.6416 63.1328 10.6072 63.1354C10.5728 63.1381 10.5406 63.1181 10.5277 63.0861C10.4556 62.9071 10.3772 62.7235 10.2972 62.5359C10.1173 62.1144 9.92894 61.6731 9.78396 61.2209L9.78394 61.2209C9.10263 59.0915 9.05328 56.9081 9.28817 54.7152C9.59897 51.8126 10.3616 49.0253 11.4422 46.3214L11.4422 46.3214C11.4654 46.2634 11.4813 46.205 11.5017 46.1298C11.5046 46.1194 11.5075 46.1086 11.5105 46.0975C9.47556 46.1792 7.52988 46.5757 5.66808 47.2777C4.36624 47.7691 3.09121 48.328 1.80434 48.892C1.23496 49.1416 0.663275 49.3922 0.0859202 49.6383C0.0628443 49.6482 0.036471 49.6465 0.0148249 49.6338C-0.00682116 49.6212 -0.02118 49.599 -0.0238827 49.574C-0.0266702 49.5483 -0.0313378 49.515 -0.0367712 49.4763L21.871 38.1398ZM21.871 38.1398C21.849 38.1151 21.8271 38.0914 21.803 38.0655C21.7781 38.0387 21.7381 38.0325 21.7062 38.0504C19.5721 39.2492 17.386 40.3302 15.0722 41.1347L15.0982 41.2095L21.871 38.1398ZM7.30691 42.3949C7.31604 42.3693 7.32518 42.3438 7.33434 42.3184L7.30691 42.3949ZM7.30691 42.3949C7.28098 42.3918 7.25409 42.3887 7.22613 42.3856L7.30691 42.3949ZM23.827 14.6264L23.8118 14.5487C23.8118 14.5487 23.8118 14.5487 23.8119 14.5487C23.8798 14.5353 23.9499 14.5254 24.0278 14.5144C24.0666 14.5089 24.1074 14.5031 24.1508 14.4965C24.1897 14.4906 24.227 14.514 24.2385 14.5516C24.25 14.5893 24.2321 14.6296 24.1966 14.6464C23.7616 14.8519 23.3275 15.0494 22.8963 15.2456C21.9256 15.6873 20.9695 16.1223 20.0502 16.6268C18.7038 17.366 17.393 18.1878 16.1454 19.0824C14.9462 19.943 13.8373 20.9305 12.7132 21.9453L1.79122 23.5974C2.05791 23.3975 2.29765 23.2178 2.54294 23.0456C6.36679 20.3668 10.5816 18.4866 14.9816 16.99C17.8766 16.0054 20.8242 15.2113 23.827 14.6264ZM23.827 14.6264C23.8481 14.6223 23.8693 14.6185 23.8909 14.6149L23.827 14.6264ZM2.06983 39.7555C0.66744 42.697 -0.136796 45.7832 -0.0759803 49.0675L1.55387 23.9312C1.64346 23.9399 1.69763 23.9451 1.75217 23.9474C2.36206 23.9731 2.97228 23.9942 3.58251 24.0153C4.95832 24.0629 6.33414 24.1104 7.70612 24.2109L7.70031 24.2899C7.70032 24.2899 7.70032 24.2899 7.70033 24.2899C9.42751 24.4169 11.1317 24.7157 12.7257 25.4281C12.9528 25.5297 13.1648 25.657 13.3971 25.7964C13.4786 25.8453 13.5626 25.8957 13.6506 25.947C13.6292 25.9653 13.6091 25.9824 13.59 25.9987C13.4932 26.0812 13.4242 26.14 13.3554 26.1995C13.0386 26.4733 12.7179 26.7443 12.3968 27.0156C11.6863 27.6159 10.9738 28.2179 10.2974 28.8566L10.2974 28.8566C6.946 32.0225 4.06902 35.561 2.06983 39.7555ZM9.36692 54.7237C9.67682 51.8294 10.4373 49.0491 11.5157 46.3508L17.5765 43.5616C15.23 47.2962 13.5425 51.322 12.3777 55.5596C11.9091 57.264 11.5216 58.9905 11.1324 60.7241C10.9681 61.4562 10.8035 62.1896 10.6324 62.9231C10.6466 62.9578 10.6607 62.9923 10.6746 63.0269L10.6012 63.0565L10.5241 63.0384C10.5325 63.0022 10.541 62.966 10.5495 62.9298C10.4912 62.7887 10.4301 62.6456 10.3683 62.5007C10.189 62.0808 10.0032 61.6453 9.85937 61.1967C9.18258 59.0815 9.13272 56.9101 9.36692 54.7237Z" fill="#002323" stroke="#002323" stroke-width="0.158397" stroke-linejoin="round"/>
<path d="M47.3172 67.5858C47.3172 67.5858 47.3172 67.5858 47.3172 67.5858C47.2975 67.5588 47.2631 67.5471 47.231 67.5564C47.2071 67.5634 47.1883 67.581 47.1795 67.6033C47.1582 67.6192 47.1367 67.6347 47.1146 67.6506C47.0958 67.6641 47.0767 67.6779 47.0568 67.6925C47.0037 67.7317 46.9491 67.7745 46.9001 67.8245L46.9 67.8245C45.1772 69.586 43.3554 71.2365 41.3418 72.6528L41.3418 72.6528C40.4294 73.2947 39.4874 73.8922 38.5171 74.5076C38.1076 74.7674 37.6932 75.0303 37.2738 75.301C36.8675 73.3229 36.8082 71.4894 37.1357 69.6467C37.4721 67.7578 38.1722 66.0204 39.3095 64.4136C39.3289 64.3861 39.3289 64.3494 39.3093 64.3219C39.2898 64.2945 39.2551 64.2824 39.2227 64.2918C37.8831 64.6806 36.58 65.1184 35.2982 65.6115C34.9729 65.7365 34.6623 66.0022 34.4569 66.2813C31.5911 70.1719 30.5349 74.55 31.091 79.3138L31.091 79.3138C31.6154 83.802 33.3156 87.8581 35.7921 91.6036L35.7922 91.6037C35.8212 91.6474 35.856 91.6848 35.8942 91.7234C35.9065 91.7358 35.919 91.7482 35.9321 91.7611C35.9609 91.7897 35.9923 91.8207 36.0286 91.8591C36.05 91.8818 36.0828 91.8898 36.1123 91.8795C36.1417 91.8692 36.1624 91.8426 36.1651 91.8115C36.1699 91.7555 36.1743 91.7038 36.1785 91.6553C36.192 91.4979 36.2025 91.3753 36.214 91.2531L36.214 91.253C36.4844 88.3414 36.9484 85.473 37.984 82.728C38.7547 80.6856 39.7744 78.8092 41.4815 77.3964C42.3615 76.6689 43.3349 76.154 44.5115 76.0288C44.5177 76.0559 44.5237 76.0823 44.5297 76.1082C44.5533 76.2106 44.5748 76.3042 44.5898 76.4003C45.0298 79.2481 46.0925 81.8443 47.7885 84.1694C50.6372 88.0753 54.4717 90.6765 58.8924 92.4781C59.1066 92.5657 59.3252 92.6462 59.57 92.7363C59.6921 92.7812 59.8208 92.8286 59.9587 92.8804C59.9875 92.8912 60.0199 92.8844 60.0419 92.8629C60.0639 92.8415 60.0715 92.8092 60.0614 92.7802C58.3672 87.9242 57.4043 83.0836 57.9281 77.9532C57.9313 77.9218 57.9156 77.8915 57.888 77.8761C57.8605 77.8607 57.8264 77.8631 57.8013 77.8822C55.4783 79.6548 54.1098 81.9237 53.4521 84.6868C53.4431 84.6773 53.4342 84.668 53.4256 84.659C53.4076 84.6402 53.3906 84.6225 53.3747 84.6056C53.3239 84.5518 53.2831 84.5058 53.2486 84.4571L53.2484 84.4568C52.9369 84.0206 52.617 83.5911 52.2977 83.1624C51.5806 82.1996 50.8664 81.2406 50.2554 80.2175C48.2164 76.8027 47.0863 73.1124 47.2424 69.0929C47.2549 68.7659 47.2776 68.4404 47.3003 68.1132C47.3103 67.9692 47.3203 67.8249 47.3295 67.68C47.3391 67.6625 47.3395 67.6456 47.3395 67.6413C47.3395 67.6212 47.3318 67.6022 47.3187 67.5878L47.318 67.5869L47.3174 67.5861L47.3172 67.5858L47.3172 67.5858Z" fill="#002323" stroke="#002323" stroke-width="0.158397" stroke-linejoin="round"/>
<path d="M24.7513 61.1324C24.7232 61.1385 24.6941 61.1288 24.6752 61.1071L24.6689 61.1C24.654 61.083 24.6471 61.0603 24.65 61.0379C24.6521 61.0212 24.6594 61.0059 24.6706 60.9939C24.7483 60.7378 24.8201 60.4769 24.8923 60.2149C25.0602 59.6054 25.2298 58.9896 25.4786 58.4125L25.4786 58.4125C26.6399 55.7223 28.3626 53.3856 30.2145 51.1511L30.2145 51.1511C32.0657 48.918 34.0719 46.8304 36.2134 44.8739M24.7513 61.1324L36.2669 44.9324M24.7513 61.1324C24.7747 61.1274 24.7942 61.1123 24.805 61.0915M24.7513 61.1324L24.805 61.0915M36.2134 44.8739L36.2669 44.9324M36.2134 44.8739C36.2134 44.874 36.2134 44.874 36.2133 44.874L36.2669 44.9324M36.2134 44.8739C36.2433 44.8465 36.2749 44.8222 36.3044 44.7999C36.3083 44.7969 36.3121 44.794 36.3159 44.7911C36.3418 44.7715 36.3658 44.7534 36.389 44.7337C36.407 44.7185 36.4239 44.7028 36.4395 44.6861M36.2669 44.9324C36.2973 44.9045 36.3303 44.8795 36.3636 44.8544C36.4273 44.8062 36.492 44.7572 36.5414 44.6857C36.5074 44.6857 36.4734 44.6858 36.4395 44.6861M36.4395 44.6861C36.4616 44.6624 36.481 44.6365 36.4971 44.6066C36.5263 44.6064 36.5555 44.6065 36.5848 44.6066L28.3045 46.9304C28.3 46.9493 28.2955 46.9683 28.2911 46.9872L28.214 46.9693L28.1827 46.8966C28.2007 46.8888 28.2187 46.8811 28.2367 46.8733C28.5002 45.7854 28.9179 44.8163 29.4482 43.8935C30.9746 41.2414 33.1875 39.273 35.7406 37.6626C36.3458 37.2809 36.9802 36.9461 37.6145 36.6114C37.8724 36.4752 38.1304 36.3391 38.3863 36.1999C38.5216 36.1264 38.6648 36.0675 38.8157 36.0192C38.8433 35.9879 38.8709 35.9566 38.8984 35.9252L38.958 35.9773L38.9787 36.0537C38.9387 36.0646 38.8993 36.076 38.8605 36.0881C38.5808 36.4045 38.2937 36.7156 38.0062 37.0271C36.6777 38.4664 35.3406 39.9152 34.6795 41.9481C34.7082 41.9453 34.7368 41.9426 34.7655 41.9398M36.4395 44.6861C33.6518 44.7108 31.1858 45.7742 28.6531 46.8664C28.5173 46.9249 28.3814 46.9835 28.2453 47.0421C28.2178 47.0539 28.1861 47.0492 28.1632 47.0301C28.1403 47.0109 28.1301 46.9805 28.1368 46.9514C28.4007 45.8156 28.8305 44.8095 29.3796 43.854L29.3796 43.854C30.9143 41.1874 33.1381 39.2105 35.6983 37.5956L35.6983 37.5956C36.3062 37.2122 36.9449 36.8751 37.5803 36.5398C37.8376 36.404 38.0944 36.2685 38.3484 36.1303L38.3485 36.1302C38.5323 36.0305 38.7288 35.9573 38.9373 35.9008C38.971 35.8917 39.0067 35.9057 39.0252 35.9353C39.0436 35.9649 39.0406 36.0032 39.0176 36.0294C38.7044 36.3876 38.3819 36.737 38.0598 37.0862C36.7397 38.5168 35.4243 39.9424 34.7655 41.9398M34.7655 41.9398C39.0513 41.5302 43.1906 41.3494 47.201 42.8167C47.2274 42.8263 47.2467 42.8491 47.2517 42.8767C47.2597 42.9202 47.2679 42.9646 47.2751 43.0091C47.2814 43.0475 47.2589 43.0848 47.222 43.097C47.1613 43.1173 47.1004 43.1378 47.0393 43.1584C46.8892 43.209 46.738 43.2599 46.5867 43.3076M34.7655 41.9398C34.7565 41.9671 34.7477 41.9944 34.7389 42.0219C39.0361 41.6101 43.1709 41.4265 47.1738 42.891C47.1818 42.9347 47.1899 42.9783 47.197 43.0219C47.1358 43.0423 47.0745 43.0629 47.0133 43.0836C46.8634 43.1341 46.7134 43.1846 46.5629 43.232M25.5513 58.4439C25.3048 59.0158 25.1376 59.6227 24.9705 60.2295C24.907 60.4602 24.8434 60.691 24.7755 60.9198L25.5513 58.4439ZM25.5513 58.4439C26.7081 55.7642 28.425 53.4344 30.2755 51.2016L25.5513 58.4439ZM24.805 61.0915C24.9651 60.9822 25.124 60.8721 25.2827 60.7621C25.6342 60.5186 25.9844 60.2758 26.3432 60.0443L26.3432 60.0443C31.3403 56.8172 36.8547 54.9892 42.7028 54.1056C43.0622 54.0513 43.4222 53.9995 43.7824 53.9477C45.5919 53.6872 47.406 53.4261 49.1647 52.85C51.2264 52.1745 53.2817 51.4682 55.0896 50.1981C55.1902 50.1276 55.288 50.0483 55.383 49.9712C55.428 49.9347 55.4723 49.8987 55.516 49.8644C55.5432 49.8431 55.5534 49.8067 55.5413 49.7744C55.5293 49.7421 55.4977 49.7213 55.4633 49.723C55.1426 49.7388 54.8468 49.8051 54.5641 49.8685C54.4571 49.8924 54.352 49.916 54.2481 49.9363C50.7959 50.6066 47.3031 50.5847 43.7995 50.5153C43.6282 50.5118 43.4564 50.5072 43.2841 50.5025C42.6547 50.4854 42.0202 50.4681 41.3908 50.511C38.7406 50.6915 36.2011 51.3625 33.7269 52.291M24.805 61.0915L33.1258 52.5949C33.1456 52.5581 33.164 52.5234 33.1815 52.4904M24.805 61.0915C24.8072 61.0873 24.809 61.0828 24.8105 61.0782C24.8216 61.0419 24.8326 61.0056 24.8434 60.9693C24.9746 60.8792 25.1054 60.7886 25.2362 60.698C25.5883 60.454 25.9404 60.21 26.3003 59.9778C31.3085 56.7435 36.8341 54.9122 42.691 54.0273C43.0515 53.9728 43.4123 53.9209 43.773 53.869C45.5824 53.6085 47.3885 53.3485 49.1401 52.7747C51.2025 52.099 53.2471 51.3957 55.0442 50.1333C55.1425 50.0644 55.2364 49.9881 55.3302 49.912C55.3397 49.9043 55.3492 49.8966 55.3587 49.8889M24.805 61.0915L55.3587 49.8889M33.7269 52.291C33.7269 52.291 33.7269 52.291 33.727 52.291L33.7547 52.3652L33.7269 52.291ZM33.7269 52.291C33.6062 52.3362 33.4855 52.38 33.336 52.4343C33.2878 52.4517 33.2366 52.4703 33.1815 52.4904M33.1815 52.4904C33.1998 52.4558 33.2169 52.4233 33.2333 52.3923C33.3093 52.2478 33.3672 52.1379 33.433 52.0311M33.1815 52.4904C33.1461 52.5032 33.1091 52.5167 33.0703 52.5309C33.1037 52.4683 33.1337 52.4113 33.1614 52.3586C33.2386 52.212 33.2984 52.0985 33.3656 51.9895C34.3888 50.3389 35.7539 49.008 37.2856 47.8391M33.433 52.0311C34.4495 50.3913 35.8069 49.0672 37.3336 47.9021M33.433 52.0311C33.433 52.0311 33.433 52.031 33.433 52.031L33.3657 51.9896L33.4329 52.0312C33.4329 52.0312 33.4329 52.0311 33.433 52.0311ZM37.3336 47.9021C40.1194 45.7772 43.2627 44.3643 46.5867 43.3076M37.3336 47.9021C37.3336 47.9021 37.3336 47.9021 37.3336 47.9021L37.2856 47.8391M37.3336 47.9021L37.2856 47.8391M46.5867 43.3076C46.5868 43.3075 46.5869 43.3075 46.5869 43.3075L46.5629 43.232M46.5867 43.3076L46.5629 43.232M46.5629 43.232C43.2333 44.2905 40.0809 45.7069 37.2856 47.8391M55.3587 49.8889C55.3958 49.8857 55.4332 49.8831 55.471 49.8812L55.4671 49.8021L55.4183 49.7398C55.3875 49.764 55.3573 49.7882 55.3275 49.8122L55.3587 49.8889Z" fill="#002323" stroke="#002323" stroke-width="0.158397" stroke-linejoin="round"/>
<path d="M66.483 56.1876C66.5004 56.218 66.4959 56.2561 66.4718 56.2815C66.2278 56.5393 65.981 56.7941 65.735 57.0481C63.8468 58.997 62.0006 60.9027 61.7815 63.825C65.0895 61.5192 68.7002 60.3251 72.7484 60.6377C74.3593 60.762 75.9226 61.1192 77.4764 61.8341C77.5043 61.8469 77.5223 61.8748 77.5225 61.9056C77.5227 61.9363 77.505 61.9644 77.4772 61.9776C77.316 62.054 77.1628 62.1257 77.015 62.1949C76.7205 62.3328 76.4476 62.4605 76.1765 62.5948L76.1414 62.5238L76.1765 62.5948C70.7937 65.2615 67.7901 69.5959 67.1003 75.545C66.55 80.2902 67.4345 84.8455 69.0109 89.3076L68.9362 89.334L69.0109 89.3076L69.0116 89.3095C69.0545 89.4311 69.104 89.5713 69.0617 89.7657C69.0552 89.7957 69.0319 89.8193 69.0019 89.8261C68.9719 89.8329 68.9407 89.8218 68.9218 89.7975C68.8 89.641 68.6767 89.4849 68.5532 89.3286C68.2693 88.9693 67.9844 88.6086 67.7138 88.2386C67.7138 88.2386 67.7138 88.2386 67.7138 88.2385L67.7777 88.1918C65.8809 85.6029 64.4276 82.8031 63.8229 79.6204L66.483 56.1876ZM66.483 56.1876C66.4656 56.1573 66.4304 56.142 66.3963 56.1499C66.327 56.1661 66.2561 56.1813 66.1844 56.1967C66.0174 56.2326 65.8465 56.2693 65.682 56.3205M66.483 56.1876L65.682 56.3205M55.4123 74.543C55.424 74.7269 55.4444 74.9112 55.4684 75.1293C55.4811 75.2438 55.4947 75.3676 55.5087 75.5056C55.5121 75.5396 55.537 75.5675 55.5704 75.5749C55.6038 75.5823 55.6381 75.5674 55.6556 75.538C55.689 75.4818 55.7182 75.4325 55.7443 75.3887C55.8281 75.2476 55.879 75.1618 55.9305 75.0765L55.9306 75.0762C57.8734 71.8273 60.1508 68.8521 63.0086 66.3546C65.0483 64.5721 67.2899 63.1552 69.958 62.5253L69.9584 62.5252C70.0235 62.5095 70.0915 62.5004 70.1768 62.4912C70.202 62.4885 70.2287 62.4858 70.2573 62.4829C70.264 62.4822 70.2708 62.4815 70.2777 62.4808L55.4123 74.5429C55.4123 74.543 55.4123 74.543 55.4123 74.543ZM55.4123 74.543C55.216 71.5724 55.336 68.6217 56.261 65.7552L56.261 65.7552C57.7913 61.0155 60.873 57.7993 65.682 56.3205M55.4123 74.543L65.682 56.3205" fill="#002323" stroke="#002323" stroke-width="0.158397" stroke-linejoin="round"/>
<path d="M39.4445 21.3574C39.4259 21.3195 39.4403 21.2737 39.4771 21.2532C41.1674 20.3136 43.7908 20.1373 46.2349 20.5351C47.4588 20.7343 48.6424 21.0781 49.6473 21.5457C50.6512 22.0129 51.4823 22.6061 51.9942 23.3073C52.0136 23.3339 52.0145 23.3698 51.9965 23.3973C51.9785 23.4249 51.9453 23.4384 51.9132 23.4313C50.0004 23.0091 48.1247 22.7394 46.2239 23.0653L46.2238 23.0653C45.8641 23.1269 45.5135 23.2382 45.1578 23.3512C45.0471 23.3863 44.9359 23.4216 44.8238 23.4556L44.8008 23.3798M39.4445 21.3574L53.3417 30.0666M39.4445 21.3574C39.4583 21.3854 39.4722 21.415 39.4865 21.4453C39.5218 21.5203 39.5593 21.6001 39.6032 21.6742M39.4445 21.3574L51.8117 23.328M44.8008 23.3798L44.8239 23.4556C44.7629 23.4742 44.7032 23.5028 44.63 23.5417C44.6083 23.5532 44.5852 23.5658 44.5606 23.5792C44.5266 23.5976 44.4898 23.6177 44.4498 23.6387C44.5198 23.7358 44.5864 23.8308 44.6514 23.9234C44.8243 24.1698 44.986 24.4003 45.1699 24.6147L45.17 24.6148C46.5235 26.1969 48.2247 27.339 50.036 28.3341L50.036 28.3342C50.7806 28.7435 51.5465 29.1113 52.3145 29.4803C52.6688 29.6504 53.0235 29.8208 53.3768 29.9956M44.8008 23.3798C44.9106 23.3465 45.0204 23.3117 45.1302 23.2768C45.487 23.1635 45.8448 23.0499 46.2105 22.9872C48.0873 22.6655 49.9368 22.9202 51.8117 23.328M44.8008 23.3798C44.7111 23.4072 44.627 23.4529 44.5213 23.5104C44.4848 23.5302 44.4457 23.5515 44.4029 23.5739L51.8117 23.328M53.3768 29.9956L53.3417 30.0666M53.3768 29.9956C53.3767 29.9956 53.3767 29.9955 53.3766 29.9955L53.3417 30.0666M53.3768 29.9956C53.4539 30.0335 53.5303 30.0746 53.6315 30.1291C53.6795 30.1549 53.733 30.1837 53.7947 30.2165C53.8239 30.2321 53.8404 30.2641 53.8361 30.2969C53.8317 30.3297 53.8074 30.3563 53.7752 30.3637C52.0832 30.7495 50.5078 30.6815 48.9509 30.1929L48.9509 30.1929C46.786 29.5121 45.014 28.2176 43.4298 26.6509C41.9282 25.1658 40.673 23.49 39.6032 21.6742M53.3417 30.0666C53.4175 30.1039 53.4921 30.144 53.5924 30.198C53.6108 30.2079 53.6302 30.2183 53.6505 30.2292C53.6803 30.2227 53.7101 30.216 53.7399 30.2092L53.7576 30.2865L53.7204 30.3564C53.6913 30.3409 53.6642 30.3265 53.6388 30.3128C52.0052 30.6658 50.4814 30.5902 48.9746 30.1173C46.8258 29.4416 45.0644 28.1561 43.4855 26.5946C41.9895 25.1149 40.7383 23.4448 39.6715 21.634M39.6032 21.6742C39.6033 21.6743 39.6033 21.6744 39.6033 21.6744L39.6715 21.634M39.6032 21.6742L39.6715 21.634M39.6715 21.634C39.6295 21.5633 39.5946 21.4891 39.56 21.4153C39.5453 21.3842 39.5307 21.3531 39.5156 21.3224C42.8118 19.4901 49.758 20.5818 51.8566 23.2568C51.8868 23.2634 51.9171 23.27 51.9473 23.2767L51.9302 23.354L51.8663 23.4007C51.8485 23.3764 51.8303 23.3521 51.8117 23.328M44.3786 23.6754C44.4494 23.7736 44.5173 23.8703 44.5838 23.9651C44.758 24.2133 44.9233 24.4489 45.1098 24.6663C46.4723 26.2589 48.183 27.4065 49.9978 28.4036L44.3786 23.6754Z" fill="#002323" stroke="#002323" stroke-width="0.158397" stroke-linejoin="round"/>
<path d="M73.4497 86.4197C73.4141 86.4366 73.3714 86.4248 73.3496 86.392C73.1755 86.1294 72.9976 85.8679 72.8193 85.606C72.4259 85.0277 72.0309 84.4472 71.6709 83.8472C70.8024 82.4016 70.2086 80.8426 70.0721 79.1416L73.4497 86.4197ZM73.4497 86.4197C73.4876 86.4016 73.5263 86.3827 73.5659 86.3629C73.5988 86.3465 73.616 86.3097 73.6076 86.2739C72.3229 80.8267 72.7616 75.5571 75.1836 70.4554C75.1988 70.4233 75.1908 70.385 75.164 70.3617C75.1372 70.3384 75.0981 70.3358 75.0685 70.3553C74.4118 70.7882 73.7758 71.2265 73.2115 71.7457L73.4497 86.4197Z" fill="#002323" stroke="#002323" stroke-width="0.158397" stroke-linejoin="round"/>
<path d="M68.0087 44.2155C68.0087 44.2421 68.022 44.2669 68.0442 44.2816C68.0664 44.2962 68.0945 44.2988 68.119 44.2883C68.1196 44.288 68.1203 44.2878 68.1209 44.2875C68.1555 44.2877 68.1897 44.2889 68.2252 44.2902C68.2514 44.2911 68.2784 44.2921 68.3066 44.2927C68.3816 44.2942 68.4608 44.293 68.5397 44.2792L68.5398 44.2792C71.7534 43.7112 74.9939 43.4365 78.255 43.4284L78.2551 43.4284C78.537 43.4275 78.7839 43.3933 79.0066 43.2991C79.2302 43.2045 79.4243 43.0518 79.604 42.8221C79.9221 42.4159 80.2726 42.0372 80.6387 41.6416C80.7989 41.4685 80.9621 41.2922 81.1269 41.1089C81.1469 41.0866 81.1526 41.055 81.1417 41.0271C81.1308 40.9992 81.1051 40.9799 81.0753 40.9771C81.0257 40.9725 80.9875 40.9679 80.955 40.964C80.9445 40.9627 80.9346 40.9616 80.9251 40.9605C80.887 40.9561 80.8534 40.9529 80.8184 40.9546L80.8178 40.9546C77.7851 41.1222 74.7852 41.5414 71.8961 42.522L71.8961 42.522C70.993 42.8289 70.1171 43.2236 69.2452 43.6165C68.8595 43.7903 68.4745 43.9638 68.0884 44.1291C68.0879 44.1291 68.0874 44.1292 68.0869 44.1292C68.0436 44.1297 68.0087 44.165 68.0087 44.2084V44.2155Z" fill="#002323" stroke="#002323" stroke-width="0.158397" stroke-linejoin="round"/>
<path d="M79.5982 54.0615C80.0023 53.0131 80.3876 51.957 80.7726 50.9016C80.8825 50.6003 80.9924 50.299 81.1027 49.998C81.1176 49.9575 81.0973 49.9126 81.0571 49.897L79.0888 54.2761L79.0792 54.3547C79.0793 54.3547 79.0793 54.3547 79.0794 54.3547C79.1731 54.3661 79.2881 54.3267 79.379 54.2762C79.4265 54.2499 79.4719 54.2182 79.5096 54.1833C79.5464 54.1492 79.5803 54.1079 79.5982 54.0615ZM79.5982 54.0615L79.5243 54.033L79.5982 54.0614C79.5982 54.0615 79.5982 54.0615 79.5982 54.0615ZM72.3379 53.0715L72.3785 53.0036C72.403 53.0182 72.4275 53.0328 72.4519 53.0473C72.4139 53.0554 72.3759 53.0635 72.3379 53.0715ZM72.3379 53.0715L72.3544 53.149C72.3823 53.1431 72.4102 53.1371 72.4381 53.1312C72.4047 53.1114 72.3713 53.0915 72.3379 53.0715ZM73.4407 53.6334C73.4407 53.6334 73.4407 53.6334 73.4407 53.6334L73.4519 53.555L73.4407 53.6334Z" fill="#002323" stroke="#002323" stroke-width="0.158397" stroke-linejoin="round"/>
<path d="M69.0147 30.0298C68.9827 30.0345 68.9511 30.0193 68.9347 29.9914C67.4592 27.4681 65.1179 25.8648 62.5852 24.2439C62.5572 24.226 62.5434 24.1925 62.5506 24.16C62.5578 24.1275 62.5846 24.103 62.6175 24.0987C62.7058 24.087 62.782 24.0757 62.8502 24.0656L69.0147 30.0298ZM69.0147 30.0298C69.0467 30.025 69.0726 30.0013 69.0801 29.9698M69.0147 30.0298L69.0801 29.9698M69.0801 29.9698C69.1343 29.7425 69.1886 29.516 69.2427 29.2902C69.4533 28.4111 69.6616 27.542 69.8551 26.6702L69.8552 26.6697C69.8719 26.5926 69.8423 26.5029 69.8065 26.4339C69.7695 26.3623 69.7141 26.2901 69.6529 26.2479M69.0801 29.9698L69.7778 26.653C69.7992 26.5542 69.7021 26.3779 69.6077 26.3129M69.6077 26.3129L69.6529 26.2479M69.6077 26.3129L69.6527 26.2477C69.6527 26.2477 69.6528 26.2478 69.6529 26.2479M69.6077 26.3129L69.6529 26.2479M69.6529 26.2479C69.239 25.9607 68.8152 25.6794 68.3718 25.4335L68.3718 25.4335C66.7618 24.5416 65.0667 23.9081 63.168 24.0269C63.168 24.0269 63.168 24.0269 63.168 24.0269L69.6529 26.2479Z" fill="#002323" stroke="#002323" stroke-width="0.158397" stroke-linejoin="round"/>
<path d="M83.0515 33.6519C83.0727 33.5369 83.0791 33.4219 83.0307 33.3215C82.9807 33.2176 82.8816 33.1473 82.7343 33.1001C81.3576 32.6577 79.9851 32.2033 78.5833 31.7392C78.1548 31.5973 77.7235 31.4545 77.2885 31.3109C77.2549 31.2998 77.218 31.3124 77.1981 31.3416C77.1783 31.3709 77.1802 31.4099 77.203 31.437C77.5409 31.8401 77.8726 32.2472 78.2037 32.6538C79.4537 34.1883 80.697 35.7146 82.2475 36.9857C82.2685 37.0029 82.2969 37.0081 82.3227 36.9996C82.3485 36.991 82.3681 36.9698 82.3746 36.9434C82.6504 35.8271 82.853 34.7388 83.0515 33.6519ZM83.0515 33.6519L82.9736 33.6376M83.0515 33.6519C83.0515 33.6519 83.0515 33.6518 83.0515 33.6518L82.9736 33.6376M82.9736 33.6376C82.7801 34.6968 82.5832 35.7552 82.3187 36.8391L77.4063 31.4332C77.7929 31.5609 78.1766 31.688 78.5582 31.8143C79.9601 32.2785 81.333 32.733 82.71 33.1755C82.9825 33.2628 83.0146 33.415 82.9736 33.6376Z" fill="#002323" stroke="#002323" stroke-width="0.158397" stroke-linejoin="round"/>
<path d="M80.6274 35.8636C80.6096 35.8471 80.5851 35.8396 80.5611 35.8435C80.537 35.8473 80.5161 35.862 80.5043 35.8833C80.2994 36.2534 80.0883 36.6193 79.8773 36.9852C79.1661 38.2183 78.4548 39.4516 77.9759 40.8431C77.9673 40.8681 77.9717 40.8958 77.9877 40.9168C78.0038 40.9379 78.0292 40.9495 78.0556 40.9479C78.2945 40.9333 78.5299 40.9191 78.7625 40.905C79.6622 40.8507 80.5195 40.799 81.3755 40.736L81.3758 40.7359C81.4132 40.7331 81.448 40.7176 81.4765 40.7003C81.5059 40.6825 81.534 40.6593 81.5588 40.6342C81.6064 40.5861 81.6521 40.5207 81.6675 40.4567C81.8885 39.55 82.1015 38.6402 82.2941 37.7266L82.2941 37.7265C82.3105 37.6484 82.2934 37.5583 82.2646 37.4813C82.2355 37.4031 82.1897 37.3254 82.1349 37.2717L82.1349 37.2717C81.7845 36.9286 81.4231 36.5963 81.0441 36.2477C80.9076 36.1222 80.7688 35.9946 80.6274 35.8636Z" fill="#002323" stroke="#002323" stroke-width="0.158397" stroke-linejoin="round"/>
<path d="M79.5677 43.3079C79.5476 43.3314 79.5431 43.3644 79.556 43.3925C79.5689 43.4206 79.597 43.4386 79.6279 43.4386H79.6346H79.6413H79.6481H79.6548H79.6615H79.6682H79.6749H79.6816H79.6883H79.6949H79.7016H79.7083H79.715H79.7217H79.7284H79.7351H79.7418H79.7485H79.7551H79.7618H79.7685H79.7752H79.7818H79.7885H79.7952H79.8019H79.8085H79.8152H79.8219H79.8285H79.8352H79.8418H79.8485H79.8552H79.8618H79.8685H79.8751H79.8818H79.8884H79.8951H79.9017H79.9084H79.915H79.9217H79.9283H79.935H79.9416H79.9482H79.9549H79.9615H79.9682H79.9748H79.9814H79.988H79.9947H80.0013H80.0079H80.0146H80.0212H80.0278H80.0344H80.0411H80.0477H80.0543H80.0609H80.0675H80.0741H80.0808H80.0874H80.094H80.1006H80.1072H80.1138H80.1204H80.127H80.1336H80.1402H80.1468H80.1534H80.16H80.1666H80.1732H80.1798H80.1864H80.193H80.1996H80.2062H80.2128H80.2194H80.226H80.2326H80.2392H80.2458H80.2523H80.2589H80.2655H80.2721H80.2787H80.2852H80.2918H80.2984H80.305H80.3116H80.3181H80.3247H80.3313H80.3379H80.3444H80.351H80.3576H80.3641H80.3707H80.3773H80.3838H80.3904H80.397H80.4035H80.4101H80.4167H80.4232H80.4298H80.4364H80.4429H80.4495H80.456H80.4626H80.4691H80.4757H80.4822H80.4888H80.4954H80.5019H80.5085H80.515H80.5216H80.5281H80.5347H80.5412H80.5478H80.5543H80.5608H80.5674H80.5739H80.5805H80.587H80.5936H80.6001H80.6066H80.6132H80.6197H80.6263H80.6328H80.6393H80.6459H80.6524H80.659H80.6655H80.672H80.6786H80.6851H80.6916H80.6982H80.7047H80.7112H80.7178H80.7243H80.7308H80.7373H80.7439H80.7504H80.7569H80.7635H80.77H80.7765H80.783H80.7896H80.7961H80.8026H80.8091H80.8157H80.8222H80.8287H80.8352H80.8418H80.8483H80.8548H80.8613H80.8678H80.8744H80.8809H80.8874H80.8939H80.9004H80.907H80.9135H80.92H80.9265H80.933H80.9395H80.9461H80.9526H80.9591H80.9656H80.9721H80.9786H80.9852H80.9917H80.9982H81.0047H81.0112H81.0177H81.0243H81.0308H81.0373H81.0438H81.0503H81.0568H81.0633H81.0698H81.0764H81.0829H81.0894H81.0959H81.1024H81.1089H81.1154H81.1219H81.1285H81.135H81.1415H81.148H81.1545H81.161H81.1675H81.174H81.1805H81.1871H81.1936H81.2001H81.2066H81.2131H81.2196H81.2261H81.2326H81.2391H81.2457H81.2522H81.2587H81.2652H81.2717H81.2782H81.2847H81.2912H81.2977H81.3043H81.3108H81.3173H81.3238H81.3303H81.3368H81.3433H81.3498H81.3564H81.3629H81.3694H81.3759H81.3824H81.3889H81.3954H81.402H81.4085H81.415H81.4215H81.428H81.4345H81.441H81.4476H81.4541H81.4606H81.4671H81.4736H81.4801H81.4867H81.4932H81.4997H81.5062H81.5127H81.5192H81.5258H81.5323H81.5388H81.5453H81.5518H81.5584H81.5649H81.5714H81.5779H81.5844H81.591H81.5975H81.604H81.6105H81.6171H81.6236H81.6301H81.6366H81.6432H81.6497H81.6562H81.6627H81.6693H81.6758H81.6823H81.6889H81.6954H81.7019H81.7084H81.715H81.7215H81.728H81.7346H81.7411H81.7476H81.7542H81.7607H81.7672H81.7738H81.7803H81.7869H81.7934H81.7999H81.8065H81.813H81.8195H81.8261H81.8326H81.8392H81.8457H81.8523H81.8588H81.8653H81.8719H81.8784H81.885H81.8915H81.8981H81.9046H81.9112H81.9177H81.9243H81.9308H81.9374H81.9439H81.9505H81.9571H81.9636H81.9702H81.9767H81.9833H81.9898H81.9964H82.003H82.0095H82.0161H82.0226H82.0292H82.0358H82.0423H82.0489H82.0555H82.062H82.0686H82.0752H82.0818H82.0883H82.0949H82.1015H82.108H82.1146H82.1212H82.1278H82.1344H82.1409H82.1475H82.1541H82.1607H82.1673H82.1738H82.1804H82.187H82.1936H82.2002H82.2068H82.2134H82.22H82.2266H82.2332H82.2397H82.2463H82.2529H82.2595H82.2661H82.2727H82.2793H82.2859H82.2925H82.2992H82.3058H82.3124H82.319H82.3256H82.3322H82.3388H82.3454H82.352H82.3586H82.3653H82.3719H82.3785H82.3851H82.3917H82.3984H82.405H82.4116H82.4182H82.4249H82.4315H82.4381H82.4448H82.4514H82.458H82.4647H82.4713H82.4779H82.4846H82.4912H82.4979H82.5045H82.5111H82.5178H82.5244H82.5311H82.5377H82.5444H82.551H82.5577H82.5643H82.571H82.5777H82.5843H82.591H82.5976H82.6043H82.611H82.6176H82.6243H82.631H82.6377H82.6443H82.651H82.6577H82.6644H82.671H82.6777H82.6844H82.6911H82.6978H82.7044H82.7111H82.7178H82.7245H82.7312H82.7379H82.7446H82.7513H82.758H82.7647H82.7714H82.7781H82.7848H82.7915H82.7982H82.8049H82.8116H82.8184H82.8251H82.8318H82.8385H82.8452H82.852H82.8587H82.8654H82.8721H82.8789H82.8856H82.8923H82.8991H82.9058H82.9125H82.9193H82.926H82.9328H82.9395H82.9463H82.953H82.9598H82.9665H82.9733H82.98H82.9868H82.9935H83.0003C83.0279 43.4386 83.0535 43.4242 83.0679 43.4006C83.0823 43.377 83.0833 43.3477 83.0707 43.3231C82.7427 42.6866 82.4137 42.0484 82.0676 41.3772C81.9804 41.2081 81.8922 41.037 81.8026 40.8633C81.7905 40.8399 81.7676 40.824 81.7414 40.8209C81.7152 40.8179 81.6892 40.8281 81.672 40.8481C81.4244 41.1376 81.187 41.415 80.9542 41.6872C80.4896 42.2301 80.0429 42.7522 79.5677 43.3079Z" fill="#002323" stroke="#002323" stroke-width="0.158397" stroke-linejoin="round"/>
<path d="M51.5877 14.2439C51.5665 14.2544 51.5512 14.2738 51.5459 14.2968C51.5425 14.3116 51.5434 14.3268 51.5483 14.3408C51.5474 14.345 51.5466 14.3492 51.5457 14.3533C51.5406 14.3767 51.5463 14.4012 51.5614 14.4198C51.5764 14.4385 51.5991 14.4493 51.623 14.4493C51.6287 14.4493 51.6344 14.4495 51.6415 14.4497L51.642 14.4498C51.6486 14.45 51.6566 14.4502 51.6651 14.4502C51.6952 14.4502 51.7227 14.4331 51.7361 14.4062C51.7494 14.3792 51.7463 14.3469 51.7281 14.323C51.7236 14.3171 51.7192 14.3113 51.7147 14.3052C51.7138 14.2823 51.7028 14.2605 51.6842 14.2459C51.6601 14.2272 51.6274 14.224 51.6002 14.2376L51.5877 14.2439Z" fill="#002323" stroke="#002323" stroke-width="0.158397" stroke-linejoin="round"/>
<path d="M21.7538 38.042C21.7222 38.0405 21.6928 38.0579 21.6789 38.0863C21.665 38.1146 21.6692 38.1485 21.6897 38.1725C21.7112 38.1977 21.7335 38.2219 21.7545 38.2446L21.755 38.2452C21.771 38.2625 21.7938 38.2718 21.8173 38.2706C21.8407 38.2694 21.8625 38.2578 21.8766 38.239C21.8931 38.217 21.9095 38.1942 21.9255 38.1721L21.9256 38.1719C21.9425 38.1483 21.9453 38.1174 21.9327 38.0912C21.9201 38.0651 21.8942 38.0479 21.8652 38.0465C21.8463 38.0456 21.8273 38.0449 21.8088 38.0442L21.8081 38.0442C21.7896 38.0435 21.7717 38.0429 21.7538 38.042Z" fill="#002323" stroke="#002323" stroke-width="0.158397" stroke-linejoin="round"/>
<path d="M68.1639 44.1926L68.1016 44.2051L68.089 44.2076L68.1016 44.2051L68.1639 44.1926M68.1639 44.1926C68.1656 44.1979 68.1663 44.202 68.1665 44.203C68.1665 44.203 68.1665 44.2031 68.1665 44.2031L68.167 44.2073L68.1671 44.2078L68.0989 44.2078L68.089 44.2078L68.0879 44.2078M68.1639 44.1926L68.1655 44.1923L68.1655 44.1923L68.1655 44.1923L68.1656 44.1923L68.1656 44.1924L68.1656 44.1926L68.1657 44.1931L68.1661 44.195L68.1671 44.2008L68.1671 44.2008C68.1673 44.2023 68.168 44.2069 68.1683 44.212C68.1684 44.2134 68.1685 44.2159 68.1685 44.2189C68.1684 44.221 68.1683 44.2275 68.1664 44.2354C68.1655 44.2394 68.1634 44.2471 68.1586 44.2559C68.154 44.2643 68.1432 44.2802 68.1219 44.2899C68.0976 44.3009 68.0766 44.2981 68.0611 44.2919C68.0444 44.2856 68.0334 44.2748 68.028 44.2684C68.0201 44.2588 68.0163 44.2497 68.0148 44.2461C68.0117 44.2381 68.0106 44.2312 68.0102 44.2292C68.0093 44.2239 68.0091 44.2191 68.009 44.2172L68.0087 44.2108L68.0087 44.2089L68.0087 44.2082L68.0087 44.208L68.0087 44.2079L68.0087 44.2079L68.0087 44.2079L68.0087 44.2078L68.0107 44.2078M68.1639 44.1926C68.1639 44.1926 68.1639 44.1926 68.1639 44.1926M68.0879 44.2078L68.0107 44.2078M68.0879 44.2078L68.0107 44.2078M68.0879 44.2078L68.0104 44.2234C68.0103 44.2228 68.0103 44.2221 68.0102 44.2213C68.0102 44.2203 68.0101 44.2182 68.0101 44.2155C68.0101 44.2144 68.0102 44.2116 68.0107 44.2078M68.0107 44.2078C68.011 44.2055 68.0114 44.2027 68.0121 44.1998C68.013 44.1959 68.015 44.1883 68.0198 44.1796C68.0244 44.1712 68.0352 44.1553 68.0565 44.1456C68.0677 44.1406 68.0788 44.1386 68.089 44.1386C68.1004 44.1386 68.1107 44.1411 68.1189 44.1444C68.122 44.1456 68.1248 44.147 68.1273 44.1484C68.1348 44.1526 68.1406 44.1575 68.1449 44.1617C68.1468 44.1636 68.1483 44.1653 68.1496 44.1668C68.1574 44.1762 68.1611 44.1851 68.1624 44.1885C68.163 44.1899 68.1635 44.1913 68.1639 44.1926M68.0107 44.2078L68.0087 44.2078C68.0087 44.1671 68.0395 44.133 68.0801 44.129C68.1206 44.125 68.1575 44.1523 68.1655 44.1922L68.1639 44.1926M68.0107 44.2078C68.0107 44.2078 68.0107 44.2078 68.0107 44.2078M68.1248 44.1471C68.1138 44.1415 68.1015 44.1385 68.089 44.1385C68.1033 44.1385 68.1152 44.1422 68.1248 44.1471ZM68.1449 44.1616C68.1433 44.16 68.1416 44.1585 68.1399 44.157C68.142 44.1588 68.1437 44.1604 68.1449 44.1616ZM68.0106 44.2256C68.0107 44.226 68.0107 44.226 68.0106 44.2255L68.0106 44.2256Z" fill="#002323" stroke="#002323" stroke-width="0.158397" stroke-linejoin="round"/>
<path d="M24.7322 61.0447L24.7276 61.0493L24.7322 61.0447ZM24.7322 61.0447L24.7836 60.9932C24.7652 60.9749 24.739 60.9667 24.7135 60.9713C24.6879 60.976 24.6663 60.9928 24.6555 61.0165L24.6488 61.0307L24.6408 61.0477C24.6242 61.0843 24.6375 61.1275 24.6719 61.1483C24.7062 61.1691 24.7507 61.1608 24.7754 61.1292C24.7793 61.1242 24.783 61.1191 24.786 61.115L24.7863 61.1146L24.7936 61.1048M24.7322 61.0447L24.7836 60.9932L24.7836 60.9932L24.7836 60.9933L24.7836 60.9933L24.7837 60.9933L24.7838 60.9935L24.7842 60.9938L24.7852 60.9949L24.7886 60.9985L24.7886 60.9985C24.7895 60.9995 24.7924 61.0026 24.7952 61.0064C24.7952 61.0064 24.7953 61.0064 24.7953 61.0065C24.7961 61.0075 24.8013 61.0144 24.8054 61.0241C24.8054 61.0241 24.8054 61.0242 24.8055 61.0243C24.8067 61.0272 24.8157 61.0479 24.8091 61.0739C24.8065 61.0845 24.8014 61.0953 24.7936 61.1048M24.7936 61.1048C24.7885 61.1112 24.7821 61.1169 24.7745 61.1217C24.7729 61.1228 24.7712 61.1237 24.7696 61.1246C24.7544 61.1327 24.7403 61.134 24.7322 61.134V61.0955V61.0893L24.791 61.1005L24.7947 61.1034L24.7936 61.1048ZM24.6554 61.0358L24.7036 61.0733L24.7015 61.0753L24.6716 61.1053L24.6712 61.1047L24.6685 61.1014L24.6654 61.0969C24.6643 61.0953 24.6617 61.091 24.6592 61.085C24.6579 61.082 24.6559 61.0767 24.6546 61.0697C24.6539 61.0661 24.653 61.0604 24.6531 61.0533C24.6532 61.0481 24.6538 61.0422 24.6554 61.0358Z" fill="#002323" stroke="#002323" stroke-width="0.158397" stroke-linejoin="round"/>
<path d="M47.1751 67.6482C47.178 67.6638 47.1854 67.6776 47.1957 67.6884L47.1964 67.6893L47.197 67.6901L47.1971 67.6902C47.1971 67.6902 47.1971 67.6902 47.1971 67.6902C47.1971 67.6902 47.1971 67.6902 47.1971 67.6902C47.1971 67.6903 47.1971 67.6903 47.1971 67.6903C47.2142 67.7137 47.2427 67.7259 47.2714 67.7221C47.2941 67.7191 47.3141 67.7066 47.3267 67.6881C47.3289 67.6871 47.3311 67.6861 47.3332 67.6851C47.3647 67.6711 47.3836 67.6383 47.3798 67.604C47.376 67.5697 47.3504 67.5419 47.3166 67.5351C47.3174 67.5353 47.3179 67.5354 47.3179 67.5354C47.3179 67.5354 47.3174 67.5352 47.316 67.5348L47.3059 67.5319C47.3025 67.531 47.2937 67.5287 47.2835 67.5281C47.2783 67.5278 47.2685 67.5276 47.2569 67.5305C47.2449 67.5335 47.2259 67.5413 47.2114 67.5607L47.2114 67.5607L47.2107 67.5616C47.2084 67.5647 47.2064 67.5678 47.2046 67.5709C47.1815 67.5887 47.1695 67.6183 47.1751 67.6482ZM47.2651 67.685L47.2652 67.685L47.2651 67.685Z" fill="#002323" stroke="#002323" stroke-width="0.158397" stroke-linejoin="round"/>
<path d="M35.667 11.8454L35.6713 11.8697L35.6718 11.8723L35.6777 11.9061C35.696 11.9029 35.7119 11.8935 35.7234 11.8804C35.7317 11.8758 35.7397 11.8712 35.7474 11.8668L35.7479 11.8665C35.7702 11.8538 35.7849 11.8311 35.7875 11.8056C35.79 11.7801 35.7801 11.7549 35.7608 11.7381L35.739 11.719L35.717 11.6997C35.6936 11.6792 35.6604 11.6743 35.6321 11.6872C35.6038 11.7 35.5856 11.7282 35.5856 11.7593C35.5856 11.7677 35.5855 11.776 35.5854 11.7848C35.583 11.7881 35.5807 11.7921 35.5786 11.7965C35.5711 11.8127 35.5668 11.837 35.578 11.8622C35.5878 11.8841 35.6041 11.8949 35.6119 11.8992C35.6203 11.9039 35.6276 11.906 35.6313 11.9069C35.6387 11.9087 35.6447 11.9091 35.6467 11.9092C35.6514 11.9094 35.6552 11.9091 35.6563 11.9091L35.6563 11.9091L35.6603 11.9087L35.6688 11.9076L35.6749 11.9066L35.6768 11.9062L35.6774 11.9061L35.6776 11.9061L35.6777 11.9061L35.6777 11.9061L35.6777 11.9061L35.6777 11.9061L35.6718 11.8723L35.6713 11.8697L35.667 11.8454L35.667 11.8454ZM35.6648 11.7593L35.654 11.7717L35.6503 11.7509C35.6516 11.7509 35.653 11.7509 35.6545 11.751C35.6564 11.751 35.6623 11.7514 35.6696 11.7532C35.6698 11.7532 35.6699 11.7533 35.6701 11.7533C35.6733 11.7541 35.6792 11.7558 35.686 11.7593H35.6648Z" fill="#002323" stroke="#002323" stroke-width="0.158397" stroke-linejoin="round"/>
</g>
<defs>
<clipPath id="clip0_3368_922">
<rect width="83" height="92.8059" fill="white"/>
</clipPath>
</defs>
</svg>
