<svg width="1728" height="578" viewBox="0 0 1728 578" fill="none" xmlns="http://www.w3.org/2000/svg">
<g opacity="0.5" clip-path="url(#clip0_3368_760)">
<path opacity="0.12" d="M-62.3158 523.563C158.103 481.73 170.897 449.899 317.069 439.191C463.297 428.523 602.416 450.875 755.956 390.719C909.448 330.57 983.666 211.175 1095.89 236.848C1208.11 262.521 1215.45 325.729 1304.87 302.818C1394.3 279.906 1483.49 193.436 1555.01 180.264C1616.59 168.932 1571.06 241.202 1739.88 207.76" stroke="white" stroke-width="3.3" stroke-miterlimit="10"/>
<path opacity="0.25" d="M-53.3022 528.141C167.117 486.307 168.834 426.478 315.054 415.762C461.282 405.095 609.102 466.039 762.642 405.882C916.134 345.734 980.226 199.217 1092.4 224.898C1204.62 250.572 1183.66 340.929 1273.04 318.026C1362.46 295.114 1453.65 194.146 1535.44 181.11C1597.24 171.279 1596.88 259.021 1763.52 213.401" stroke="white" stroke-width="3.4" stroke-miterlimit="10"/>
<path opacity="0.38" d="M-44.2865 532.718C176.132 490.885 166.821 403.05 313.05 392.382C459.278 381.714 615.799 481.25 769.339 421.093C922.831 360.945 976.748 187.315 1088.97 212.988C1201.19 238.661 1151.87 356.128 1241.3 333.216C1330.72 310.305 1424.02 195.512 1515.97 181.938C1577.9 172.83 1622.76 276.88 1787.2 219.033" stroke="white" stroke-width="3.5" stroke-miterlimit="10"/>
<path opacity="0.5" d="M-35.2294 537.238C185.189 495.405 164.85 379.564 311.079 368.896C457.307 358.228 622.528 496.355 776.068 436.198C929.56 376.05 973.351 175.299 1085.57 200.972C1197.79 226.645 1120.18 371.261 1209.6 348.35C1299.03 325.438 1394.4 196.677 1496.6 182.701C1558.63 174.218 1648.77 294.664 1811.03 224.59" stroke="white" stroke-width="3.6" stroke-miterlimit="10"/>
<path opacity="0.62" d="M-26.2162 541.816C194.202 499.983 162.835 356.135 309.063 345.467C455.292 334.8 629.214 511.519 782.706 451.37C936.246 391.214 969.813 163.358 1082.03 189.031C1194.26 214.704 1088.33 386.421 1177.71 363.518C1267.13 340.607 1364.58 197.781 1476.97 183.507C1539.06 175.611 1674.49 312.453 1834.61 230.192" stroke="white" stroke-width="3.7" stroke-miterlimit="10"/>
<path opacity="0.75" d="M-17.1507 546.384C203.268 504.551 160.872 332.697 307.052 322.038C453.281 311.37 635.903 526.681 789.395 466.533C942.927 406.328 966.424 151.39 1078.6 177.072C1190.82 202.745 1056.54 401.571 1145.97 378.708C1235.4 355.797 1334.89 198.81 1457.51 184.383C1519.7 177.065 1700.42 330.351 1858.35 235.863" stroke="white" stroke-width="3.8" stroke-miterlimit="10"/>
<path opacity="0.88" d="M-8.13738 550.962C212.273 509.081 158.809 309.278 305.037 298.61C451.266 287.942 642.589 541.844 796.081 481.696C949.573 421.548 962.935 139.441 1075.17 165.162C1187.39 190.835 1024.81 416.811 1114.23 393.899C1203.66 370.988 1305.22 199.687 1438.04 185.211C1500.32 178.423 1726.3 348.21 1882.08 241.487" stroke="white" stroke-width="3.9" stroke-miterlimit="10"/>
<path d="M0.880458 555.539C221.339 513.649 156.847 285.84 303.027 275.18C449.255 264.512 649.28 557.007 802.771 496.858C956.303 436.653 959.499 127.481 1071.72 153.154C1183.94 178.827 993.007 431.913 1082.44 409.049C1171.87 386.138 1275.5 200.475 1418.57 185.991C1480.93 179.685 1752.21 365.964 1905.81 247.062" stroke="white" stroke-width="4" stroke-miterlimit="10"/>
</g>
<defs>
<clipPath id="clip0_3368_760">
<rect width="1995" height="310" fill="white" transform="translate(-102 344.184) rotate(-9.93457)"/>
</clipPath>
</defs>
</svg>
