<svg width="103" height="114" viewBox="0 0 103 114" fill="none" xmlns="http://www.w3.org/2000/svg">
<g id="Frame" clip-path="url(#clip0_3368_711)">
<g id="Group">
<g id="Vector">
<path d="M64.0154 17.5758C63.2846 17.4686 62.5561 17.3134 61.821 17.2641C59.3183 17.0957 56.8111 16.9787 54.3083 16.8158C50.984 16.5982 47.7363 16.0426 44.7084 14.5587C44.6166 14.5138 44.4897 14.5401 44.3803 14.5324C44.4054 14.5193 44.4284 14.5062 44.4514 14.493C44.4339 14.4777 44.4153 14.4613 44.3978 14.446C44.3978 14.4745 44.3967 14.5018 44.3967 14.5302C46.0495 16.7545 48.2942 18.2199 50.7215 19.4469C51.3144 19.7465 51.9269 20.009 52.6828 20.3589C49.4132 20.6903 46.3405 21.2163 43.3225 22.0365C40.3187 22.8534 37.3948 23.8769 34.5059 25.4593C38.3377 26.3047 41.8053 27.6027 44.8025 29.9484C45.0825 30.1671 45.3341 30.4219 45.6678 30.7205C41.3393 31.6839 37.4549 33.2958 34.3363 36.6651C37.9231 36.9626 41.3415 37.3081 44.5159 38.7866C44.7084 38.8763 44.8867 38.9955 45.1383 39.1399C36.0734 45.5864 29.8022 54.0168 26.3937 64.5325C24.3995 70.6838 23.5168 76.9937 23.8668 83.5813C24.0386 83.4337 24.1315 83.3681 24.207 83.2872C26.0611 81.3078 28.3681 79.989 30.7823 78.8539C35.9301 76.4327 41.3251 74.7967 46.9017 73.6649C53.7231 72.2804 60.4362 70.4804 66.8299 67.6601C69.3513 66.5479 71.7906 65.2805 73.8799 63.4422C74.2333 63.1316 74.5472 62.7773 74.8797 62.4427C74.9257 62.4689 74.9716 62.4963 75.0176 62.5225C74.591 63.3329 74.2201 64.1793 73.7279 64.9481C72.1024 67.4862 69.8206 69.3486 67.3178 70.9561C62.9455 73.7622 58.1697 75.6705 53.2254 77.1763C50.6679 77.956 48.0502 78.5477 45.5113 79.3799C36.2878 82.4058 28.4764 87.5444 22.3704 95.1491C21.4603 96.282 20.6891 97.5254 19.8545 98.7185C19.7834 98.8191 19.7156 98.923 19.5613 99.1516C19.2693 97.521 18.9575 96.025 18.7398 94.5148C18.2629 91.2079 18.1032 87.8845 18.2541 84.5415C18.5046 79.008 19.5624 73.6299 21.3859 68.4114C25.0318 57.982 30.8239 48.8803 38.528 40.9803C38.5904 40.9169 38.6462 40.8469 38.8081 40.6632C37.9997 40.4696 37.281 40.2444 36.5459 40.1306C34.24 39.773 31.9254 39.8857 29.6239 40.1722C27.6035 40.4237 25.5962 40.7769 23.6251 41.0777C25.3457 38.4433 31.3949 32.4002 38.2841 29.9484C37.8805 29.6575 37.572 29.324 37.1924 29.1807C35.5625 28.5662 33.937 27.9166 32.2612 27.4551C30.4399 26.9532 28.5661 26.6448 26.619 26.2325C32.2043 22.7703 38.2338 20.897 44.8408 20.5066C43.025 18.3938 41.4345 16.1924 40.299 13.6991C39.1625 11.2036 38.4394 8.62168 38.7468 5.6942C38.9634 5.92276 39.0958 6.05836 39.2227 6.19834C42.2483 9.52716 45.7443 12.1725 50.0641 13.6018C52.7998 14.5073 55.598 14.855 58.4683 14.4209C58.5941 14.4023 58.7199 14.3793 58.8435 14.352C58.9288 14.3334 59.0131 14.3039 59.1389 14.2678C56.1821 9.98646 54.0655 5.48971 54.9493 0C55.5028 0.472421 55.9415 0.894538 56.4271 1.25213C58.3808 2.68908 60.4143 3.98715 62.6207 5.02275C64.8719 6.07914 66.9863 7.3772 68.7267 9.18925C69.2758 9.76118 69.7341 10.4217 70.2308 11.0374C71.5073 8.28705 73.7695 6.45642 76.456 4.86637C76.0852 6.58218 75.9134 8.17332 76.7229 9.55122C78.5606 9.17612 80.3054 8.7387 82.0753 8.48061C83.8495 8.22144 85.6336 8.35376 87.467 8.86008C87.0119 9.16737 86.6203 9.42327 86.2385 9.69119C84.8701 10.6513 83.6329 11.7526 82.7349 13.1775C80.8807 16.1181 81.1531 19.0467 82.8475 21.9468C83.0357 22.2683 83.2555 22.5723 83.4196 22.9135C81.5119 21.7259 80.2518 20.0396 79.5779 17.9061C78.9172 15.8108 78.9632 13.6805 79.334 11.4836C77.3836 11.5809 76.3893 12.8013 75.6203 14.4001C74.5549 13.2715 74.4455 11.8532 74.1654 10.3736C72.4349 11.7252 72.2446 13.5854 72.1385 15.5833C68.5921 11.5065 64.1915 8.98912 59.1148 7.48219C58.9671 8.33845 59.129 9.0952 59.3784 9.83773C60.1222 12.0588 61.3966 13.9856 62.7465 15.8698C63.1588 16.4451 63.5811 17.0126 64 17.5835L64.0154 17.5758Z" fill="white" fill-opacity="0.68"/>
<path d="M64.1114 17.5604C64.1181 17.6024 64.0969 17.6438 64.0588 17.6628L64.0435 17.6705C64.0112 17.6867 63.9735 17.6832 63.9451 17.6637C63.7323 17.6318 63.5212 17.5965 63.3111 17.5614C62.8108 17.4776 62.3158 17.3948 61.8145 17.3612C60.4913 17.2722 59.1712 17.1977 57.8506 17.1233C56.669 17.0567 55.487 16.99 54.302 16.9129L54.3019 16.9129C50.9716 16.6948 47.7096 16.1379 44.6656 14.646C44.6481 14.6375 44.6252 14.6325 44.5942 14.6302C46.2219 16.7488 48.4018 18.1653 50.7654 19.3601C51.1617 19.5604 51.5657 19.7434 52.0178 19.9483C52.2399 20.049 52.4736 20.1549 52.7237 20.2707C52.7635 20.2891 52.786 20.3318 52.7787 20.375C52.7715 20.4183 52.7362 20.4513 52.6926 20.4557C49.4273 20.7866 46.36 21.3118 43.348 22.1303C40.4278 22.9245 37.5864 23.9135 34.7804 25.4211C38.5202 26.2694 41.9161 27.566 44.8624 29.8718C45.05 30.0183 45.2272 30.1827 45.4206 30.3621C45.5192 30.4536 45.6221 30.549 45.7326 30.648C45.7598 30.6723 45.7711 30.7098 45.7619 30.7451C45.7527 30.7804 45.7245 30.8075 45.6889 30.8155C41.4343 31.7624 37.6214 33.3349 34.5447 36.5849C38.0578 36.8788 41.4243 37.2394 44.557 38.6985C44.6906 38.7607 44.8203 38.8382 44.9658 38.9253C45.0351 38.9667 45.1081 39.0103 45.1867 39.0555C45.2155 39.072 45.2339 39.102 45.2355 39.1351C45.2371 39.1683 45.2217 39.1999 45.1947 39.2191C36.1464 45.6539 29.8881 54.0671 26.4862 64.5625C24.5153 70.6422 23.6321 76.8764 23.954 83.3813C23.958 83.378 23.962 83.3747 23.9659 83.3715C23.982 83.3583 23.9969 83.346 24.0109 83.3344C24.0646 83.2898 24.1026 83.2565 24.1359 83.2208L24.136 83.2207C26.0027 81.2278 28.323 79.9027 30.7409 78.7658C35.8971 76.3407 41.2998 74.7026 46.8823 73.5695C53.7001 72.1858 60.4058 70.3875 66.7906 67.5711C69.309 66.4603 71.7376 65.1976 73.8157 63.3692L73.8157 63.3691C74.0544 63.1593 74.273 62.9312 74.495 62.6996C74.5987 62.5914 74.7031 62.4824 74.8107 62.3741C74.8417 62.3429 74.8898 62.3364 74.928 62.3582C74.9514 62.3716 74.9748 62.3852 74.9977 62.3986C75.0207 62.412 75.0433 62.4252 75.0658 62.438C75.1113 62.4641 75.1281 62.5215 75.1037 62.5678C74.9713 62.8192 74.8435 63.076 74.715 63.334C74.4337 63.8991 74.1497 64.4697 73.8098 65.0005C72.1736 67.5555 69.8787 69.4269 67.3703 71.038L67.3178 70.9561L67.3703 71.038C62.9879 73.8506 58.203 75.762 53.2537 77.2694C52.1312 77.6116 50.9971 77.9176 49.865 78.2232C49.7055 78.2662 49.5461 78.3092 49.3868 78.3523C48.0954 78.7017 46.8084 79.0571 45.5416 79.4723C36.3345 82.4928 28.5395 87.6212 22.4463 95.21L22.3704 95.1491L22.4462 95.21C21.8239 95.9848 21.2683 96.8092 20.71 97.6375C20.4542 98.017 20.1978 98.3974 19.9342 98.7743L19.9339 98.7746C19.8876 98.8402 19.8429 98.9068 19.7734 99.0105C19.7375 99.0641 19.6949 99.1276 19.642 99.206C19.6198 99.2388 19.58 99.2549 19.5412 99.2467C19.5025 99.2385 19.4725 99.2077 19.4656 99.1687C19.3732 98.6533 19.2788 98.1504 19.1859 97.6559C18.9855 96.5896 18.7924 95.5618 18.6435 94.5287C18.1657 91.2157 18.0057 87.8862 18.157 84.5371L18.2541 84.5415L18.157 84.5371C18.4079 78.994 19.4675 73.6065 21.2941 68.3793L21.3859 68.4114L21.2941 68.3793C24.9449 57.9358 30.7449 48.8219 38.4584 40.9124L38.4587 40.9121C38.4948 40.8754 38.5276 40.8374 38.5843 40.7718C38.5978 40.7562 38.6127 40.739 38.6293 40.7198C38.4199 40.6681 38.2174 40.6151 38.0195 40.5634C37.5065 40.4292 37.0241 40.3031 36.5311 40.2268L36.531 40.2268C34.2377 39.8711 31.9331 39.9828 29.6359 40.2687C28.2443 40.442 26.8601 40.6633 25.4876 40.8828C24.8691 40.9817 24.253 41.0803 23.6397 41.1738C23.6018 41.1796 23.564 41.1626 23.5433 41.1303C23.5225 41.098 23.5226 41.0566 23.5436 41.0245C24.411 39.6965 26.3611 37.5201 28.9543 35.3697C31.5057 33.2539 34.6865 31.1576 38.0816 29.918C38.0008 29.8552 37.923 29.7915 37.8481 29.7303C37.7864 29.6799 37.7268 29.6311 37.6691 29.5857C37.4959 29.4495 37.3335 29.338 37.1581 29.2718C36.9126 29.1792 36.6673 29.0859 36.4222 28.9926C35.0372 28.4657 33.6545 27.9397 32.2354 27.5489L32.2354 27.5489C30.9727 27.2009 29.6868 26.9466 28.3645 26.6852C27.7833 26.5702 27.1952 26.4539 26.5989 26.3277C26.56 26.3194 26.53 26.2884 26.5232 26.2492C26.5163 26.2101 26.534 26.1707 26.5678 26.1498C32.1121 22.713 38.0935 20.8379 44.6398 20.4214C42.8735 18.35 41.3245 16.1857 40.2105 13.7394C39.0698 11.2348 38.3402 8.63489 38.6501 5.68405C38.654 5.64628 38.6796 5.61427 38.7156 5.60207C38.7515 5.58988 38.7913 5.59972 38.8174 5.62729C38.8848 5.6984 38.9443 5.76072 38.998 5.81712C39.1161 5.9409 39.2069 6.03611 39.2947 6.133M64.1114 17.5604L39.2227 6.19834M64.1114 17.5604C64.1057 17.5248 64.0809 17.4958 64.0478 17.4841M64.1114 17.5604L62.8255 15.8132M39.2947 6.133L39.2227 6.19834M39.2947 6.133C39.2947 6.13297 39.2947 6.13294 39.2946 6.1329L39.2227 6.19834M39.2947 6.133C42.3125 9.45309 45.795 12.0868 50.0946 13.5094L50.0641 13.6018C45.7443 12.1725 42.2483 9.52716 39.2227 6.19834M63.9106 17.4617C63.9503 17.4678 63.9899 17.4738 64.0295 17.4796C64.0358 17.4805 64.0419 17.482 64.0478 17.4841M63.9106 17.4617L64.0154 17.5758L64.014 17.5732L64.0159 17.5718L64.0785 17.5259C64.0682 17.512 64.058 17.498 64.0478 17.4841M63.9106 17.4617C63.8276 17.3488 63.7445 17.2361 63.6615 17.1233C63.3546 16.7067 63.0479 16.2903 62.7465 15.8698L63.9106 17.4617ZM64.0478 17.4841C63.9451 17.3442 63.8422 17.2047 63.7395 17.0652C63.4328 16.6488 63.1266 16.2331 62.8255 15.8132M62.8255 15.8132C61.4763 13.9298 60.2095 12.013 59.4707 9.80684L59.4706 9.80675C59.2343 9.1032 59.0808 8.39664 59.1936 7.60723C64.2108 9.11338 68.5577 11.6152 72.0651 15.6472C72.0911 15.6771 72.1327 15.6882 72.1701 15.6753C72.2076 15.6624 72.2335 15.6281 72.2356 15.5885C72.3391 13.6395 72.5233 11.8643 74.0995 10.5517C74.1263 10.6985 74.1518 10.8452 74.1773 10.9914C74.396 12.2487 74.6086 13.4702 75.5495 14.4669C75.5715 14.4902 75.6036 14.5011 75.6352 14.4962C75.6669 14.4913 75.6941 14.4711 75.708 14.4423C76.0901 13.6477 76.5241 12.9564 77.0983 12.4519C77.6457 11.9709 78.3245 11.6561 79.218 11.5883C78.8643 13.7514 78.8304 15.8588 79.4852 17.9353L79.4852 17.9354C80.1656 20.0899 81.4398 21.7956 83.3682 22.9961C83.405 23.019 83.4524 23.0148 83.4846 22.9859C83.5168 22.957 83.5261 22.9103 83.5073 22.8714C83.3986 22.6452 83.2627 22.4301 83.131 22.2215C83.0619 22.112 82.9939 22.0043 82.9315 21.8977C82.0902 20.4578 81.6052 19.0163 81.5577 17.5741C81.5103 16.133 81.8996 14.6847 82.8172 13.2294L82.7349 13.1775L82.8172 13.2294C83.7057 11.8195 84.9316 10.727 86.2944 9.77083C86.5512 9.59064 86.8118 9.4163 87.0943 9.22733C87.2309 9.13598 87.3726 9.04121 87.5214 8.94071C87.5529 8.91946 87.5691 8.88184 87.563 8.84437C87.5568 8.80689 87.5295 8.77641 87.4929 8.76631C85.6477 8.25672 83.85 8.12306 82.0612 8.38435C80.8345 8.56322 79.6179 8.82843 78.378 9.09871C77.8479 9.21427 77.3134 9.33077 76.7722 9.44183L62.8255 15.8132ZM83.4196 22.9135C83.3652 22.8796 83.3113 22.8453 83.2579 22.8107C83.2835 22.8582 83.3083 22.9064 83.332 22.9557L83.4196 22.9135ZM83.4196 22.9135C83.3917 22.8555 83.3622 22.7986 83.3315 22.7424C83.3776 22.7722 83.4241 22.8017 83.471 22.8309L83.4196 22.9135ZM87.467 8.86008L87.4411 8.95386C87.4142 8.94644 87.3873 8.9391 87.3605 8.93184C87.3956 8.90822 87.4311 8.88431 87.467 8.86008ZM87.467 8.86008L87.4125 8.77946C87.3892 8.79523 87.366 8.81086 87.3429 8.82638C87.3843 8.83743 87.4256 8.84866 87.467 8.86008ZM75.6203 14.4001C75.5962 14.3746 75.5726 14.3489 75.5494 14.3231C75.5438 14.3347 75.5382 14.3463 75.5326 14.3579L75.6203 14.4001ZM75.6203 14.4001C75.6354 14.3687 75.6506 14.3375 75.6658 14.3064C75.6742 14.3154 75.6826 14.3244 75.691 14.3333L75.6203 14.4001ZM72.1385 15.5833C72.108 15.5482 72.0774 15.5133 72.0467 15.4784C72.0449 15.5116 72.0431 15.5449 72.0413 15.5782L72.1385 15.5833ZM72.1385 15.5833C72.1409 15.5368 72.1435 15.4904 72.146 15.4441C72.168 15.4692 72.19 15.4943 72.2119 15.5195L72.1385 15.5833ZM44.4521 14.6043C44.4588 14.6131 44.4654 14.6218 44.4721 14.6306L44.4521 14.6043ZM44.4521 14.6043C44.4689 14.5951 44.4846 14.5861 44.4996 14.5775C44.5126 14.5701 44.5234 14.56 44.5316 14.5481C44.5276 14.5427 44.5235 14.5373 44.5195 14.532M58.9828 14.2127C59.0021 14.2408 59.0214 14.2688 59.0407 14.2968C59.0707 14.2878 59.1031 14.278 59.1389 14.2678C59.1194 14.2396 59.1 14.2115 59.0807 14.1833C59.0457 14.1936 59.0149 14.203 58.9868 14.2115C58.9855 14.2119 58.9841 14.2123 58.9828 14.2127ZM70.1629 10.9527C70.1855 10.981 70.2081 11.0092 70.2308 11.0374C70.246 11.0046 70.2613 10.9719 70.2768 10.9394C70.2543 10.9114 70.2319 10.8832 70.2095 10.8549C70.1938 10.8874 70.1783 10.92 70.1629 10.9527Z" stroke="white" stroke-opacity="0.68" stroke-width="0.19457" stroke-linejoin="round"/>
</g>
<g id="Vector_2">
<path d="M27.3843 46.9146C25.4372 48.9453 23.6815 51.1237 22.1818 53.5099C19.2994 58.0974 17.2265 63.0425 15.7957 68.2479C14.9622 71.2792 14.3376 74.3675 13.6135 77.4568C13.3225 76.735 12.9582 75.9706 12.7023 75.1723C11.8709 72.574 11.8097 69.9068 12.0974 67.221C12.478 63.6658 13.4122 60.2506 14.7369 56.936C14.7828 56.8212 14.8091 56.6976 14.8605 56.5226C12.3019 56.6112 9.8571 57.1022 7.51948 57.9836C5.21031 58.8552 2.96677 59.9007 0.658691 60.8849C0.64447 60.7537 0.599621 60.5131 0.595246 60.2714C0.520862 56.2547 1.50426 52.4786 3.22164 48.8764C5.67083 43.7377 9.19639 39.4007 13.3072 35.5174C14.5115 34.3801 15.8067 33.3401 17.0603 32.2564C17.1817 32.1514 17.3031 32.0486 17.5274 31.8572C17.0646 31.5937 16.6807 31.3334 16.2628 31.1464C14.2906 30.265 12.1849 29.8965 10.0573 29.7401C7.62449 29.5618 5.18187 29.5192 2.74362 29.4164C2.6397 29.412 2.53688 29.3989 2.27106 29.3748C2.82675 28.9637 3.26321 28.6257 3.71498 28.3086C8.41208 25.0181 13.5894 22.7085 18.9942 20.8702C22.5504 19.6607 26.1712 18.6852 29.8597 17.9667C29.9822 17.9427 30.1069 17.9285 30.2721 17.9033C28.5405 18.7213 26.8078 19.442 25.1735 20.3387C23.5163 21.2485 21.9029 22.2601 20.3671 23.3613C18.8356 24.4603 17.4245 25.7267 15.9926 27.0204C19.6221 27.6011 22.8961 28.9199 26.018 30.849C17.5317 35.6125 12.664 43.1177 9.46767 52.0653C9.78927 52.1014 9.99602 52.1342 10.2028 52.1473C13.3017 52.3463 16.2442 51.6267 19.1375 50.6207C21.9871 49.6299 24.678 48.299 27.3022 46.8249C27.3318 46.8566 27.358 46.885 27.3843 46.9146Z" fill="white" fill-opacity="0.68"/>
<path d="M27.457 46.8499C27.4907 46.8878 27.4896 46.9453 27.4545 46.9819C25.5112 49.0086 23.7598 51.1819 22.2642 53.5616C19.3875 58.1401 17.3181 63.0763 15.8896 68.2737L15.7957 68.2479L15.8896 68.2737C15.3145 70.365 14.8393 72.482 14.3616 74.6104C14.1474 75.5647 13.9327 76.5214 13.7082 77.479C13.6985 77.5203 13.6632 77.5506 13.6209 77.5538C13.5786 77.557 13.5391 77.5325 13.5232 77.4932C13.4346 77.2733 13.3384 77.0478 13.24 76.8174C13.019 76.2995 12.7877 75.7575 12.6096 75.202L12.6096 75.202C11.7727 72.5863 11.7121 69.9043 12.0006 67.2106C12.3824 63.6452 13.3192 60.2213 14.6465 56.8999L14.6466 56.8999C14.675 56.8287 14.6946 56.7569 14.7197 56.6646C14.7232 56.6517 14.7268 56.6385 14.7305 56.6249C12.2308 56.7253 9.84081 57.2123 7.55384 58.0747C5.95471 58.6782 4.38853 59.3647 2.80782 60.0575C2.10838 60.3641 1.4061 60.6719 0.69685 60.9744C0.668505 60.9865 0.636108 60.9844 0.609519 60.9688C0.58293 60.9532 0.565292 60.926 0.561972 60.8954C0.558548 60.8638 0.552814 60.8229 0.54614 60.7753L27.457 46.8499ZM27.457 46.8499C27.43 46.8195 27.4031 46.7904 27.3734 46.7586C27.3428 46.7257 27.2937 46.7181 27.2546 46.7401C24.6331 48.2126 21.9477 49.5406 19.1056 50.5288C16.2173 51.5331 13.2891 52.248 10.209 52.0502L10.2089 52.0502C10.0791 52.042 9.95129 52.026 9.79103 52.0061C9.73244 51.9988 9.66952 51.9909 9.60059 51.9827M27.457 46.8499L9.60059 51.9827M9.60059 51.9827C12.7926 43.0997 17.6429 35.6617 26.0656 30.9338C26.0957 30.9169 26.1146 30.8854 26.1153 30.851C26.116 30.8166 26.0985 30.7843 26.0692 30.7662C22.9952 28.8668 19.7722 27.556 16.2079 26.9571C17.5887 25.7105 18.9508 24.4975 20.4238 23.4404L9.60059 51.9827ZM13.5499 77.3012C13.4784 77.1279 13.4034 76.9521 13.3274 76.7741C13.1072 76.2583 12.8789 75.7234 12.7023 75.1723C11.8709 72.574 11.8097 69.9068 12.0974 67.221C12.478 63.6658 13.4122 60.2506 14.7369 56.936C14.7674 56.8597 14.7892 56.7796 14.8155 56.6831C14.821 56.6631 14.8266 56.6425 14.8325 56.621L13.5499 77.3012ZM13.5499 77.3012C13.5396 77.3457 13.5292 77.3901 13.5187 77.4346L13.6135 77.4568L13.7037 77.4204C13.6866 77.378 13.6693 77.3355 13.6518 77.293L13.5499 77.3012ZM3.13383 48.8346C1.41117 52.4478 0.423272 56.2388 0.497977 60.2732L4.99197 29.4998C6.68198 29.5582 8.37199 29.6166 10.0573 29.7401L10.0501 29.8371C10.0501 29.8371 10.0502 29.8371 10.0502 29.8371C12.1718 29.9931 14.2651 30.3602 16.2231 31.2352C16.5021 31.3601 16.7625 31.5164 17.0479 31.6876C17.148 31.7477 17.2512 31.8096 17.3593 31.8727C17.3329 31.8952 17.3081 31.9164 17.2846 31.9364C17.1658 32.0376 17.0812 32.1097 16.9966 32.1828C16.6076 32.5192 16.2136 32.852 15.8191 33.1853C14.9464 33.9226 14.0712 34.6621 13.2404 35.4467L13.2404 35.4467C9.12357 39.3356 5.58956 43.6821 3.13383 48.8346ZM14.7581 56.5264C12.2366 56.6244 9.82589 57.114 7.51948 57.9836L14.7581 56.5264Z" stroke="white" stroke-opacity="0.68" stroke-width="0.19457" stroke-linejoin="round"/>
</g>
<g id="Vector_3">
<path d="M58.6349 83.0782C58.5977 83.6753 58.5474 84.2712 58.5245 84.8683C58.3319 89.8277 59.7266 94.3791 62.2393 98.5871C63.3266 100.408 64.683 102.069 65.9201 103.801C66.0131 103.932 66.1356 104.043 66.303 104.227C67.0895 100.772 68.7675 97.9463 71.651 95.746C71.0056 102.067 72.1924 108.028 74.2763 114.001C73.7643 113.808 73.3618 113.669 72.9691 113.508C67.5511 111.3 62.8573 108.114 59.3711 103.334C57.2971 100.491 55.9976 97.3164 55.4594 93.8334C55.4321 93.6573 55.3861 93.4835 55.3435 93.2866C53.835 93.4266 52.5956 94.0773 51.4832 94.997C49.3676 96.7478 48.1075 99.0705 47.158 101.587C45.8814 104.97 45.3104 108.504 44.9779 112.084C44.9593 112.281 44.9429 112.479 44.9177 112.771C44.7865 112.632 44.6979 112.561 44.6377 112.47C41.6022 107.879 39.5205 102.911 38.8784 97.4159C38.198 91.5872 39.4899 86.2342 42.9947 81.4761C43.2386 81.1447 43.6062 80.832 43.9847 80.6865C45.5566 80.0818 47.1547 79.5448 48.7977 79.0681C47.3921 81.054 46.5268 83.2017 46.1111 85.5354C45.6988 87.856 45.783 90.1634 46.3102 92.6567C48.0856 91.5074 49.7975 90.4729 51.4296 89.3246C53.9094 87.5804 56.1518 85.5485 58.2707 83.3822C58.3801 83.2706 58.519 83.1864 58.6437 83.0891C58.6437 83.0902 58.6349 83.0782 58.6349 83.0782Z" fill="white" fill-opacity="0.68"/>
<path d="M62.2393 98.5871C62.9924 99.8483 63.8746 101.033 64.7569 102.218C65.1484 102.743 65.5399 103.269 65.9201 103.801L62.2393 98.5871ZM62.2393 98.5871C59.7266 94.3791 58.3319 89.8277 58.5245 84.8683L62.2393 98.5871ZM44.9779 112.084C44.9637 112.234 44.9507 112.386 44.9342 112.579C44.9324 112.6 44.9306 112.621 44.9288 112.642C44.9477 112.661 44.9676 112.682 44.9884 112.704L44.9177 112.771L44.8208 112.762C44.8233 112.734 44.8257 112.706 44.828 112.679C44.8168 112.668 44.806 112.657 44.7955 112.647C44.7282 112.58 44.6769 112.529 44.6377 112.47L44.9779 112.084ZM44.9779 112.084C45.3104 108.504 45.8814 104.97 47.158 101.587L44.9779 112.084ZM58.7136 83.0209C58.6895 82.9878 58.6471 82.9733 58.6077 82.9848C58.5783 82.9933 58.5553 83.015 58.5444 83.0424C58.5183 83.062 58.4919 83.081 58.4647 83.1005C58.4417 83.1171 58.4181 83.134 58.3937 83.152C58.3285 83.2001 58.2614 83.2527 58.2012 83.3141L58.2011 83.3141C56.0849 85.4778 53.847 87.5053 51.3736 89.245L51.3736 89.2451C50.2529 90.0335 49.0957 90.7675 47.9038 91.5235C47.4008 91.8425 46.8917 92.1654 46.3765 92.498C45.8774 90.0682 45.8047 87.816 46.2069 85.5525C46.6202 83.2322 47.4801 81.0979 48.8771 79.1243C48.901 79.0905 48.9009 79.0453 48.877 79.0116C48.853 78.9779 48.8103 78.9631 48.7706 78.9746C47.125 79.4522 45.5243 79.99 43.9498 80.5957C43.5503 80.7492 43.1687 81.0756 42.9163 81.4184C39.3961 86.1975 38.0987 91.5755 38.7818 97.4272L38.8784 97.4159L38.7818 97.4272C39.426 102.94 41.5144 107.923 44.5565 112.524L44.5566 112.524C44.5922 112.577 44.635 112.623 44.682 112.671C44.697 112.686 44.7124 112.701 44.7284 112.717C44.7639 112.752 44.8024 112.79 44.847 112.838C44.8734 112.865 44.9136 112.875 44.9498 112.863C44.986 112.85 45.0114 112.817 45.0147 112.779C45.0206 112.71 45.026 112.647 45.0311 112.587C45.0477 112.394 45.0606 112.243 45.0747 112.093L45.0748 112.093C45.4069 108.516 45.9769 104.993 47.249 101.621C48.1957 99.1122 49.4482 96.8074 51.5452 95.0719C52.6261 94.1783 53.8218 93.5459 55.2672 93.392C55.2747 93.4253 55.2822 93.4577 55.2895 93.4895C55.3185 93.6153 55.345 93.7303 55.3633 93.8483C55.9038 97.3464 57.2092 100.536 59.2925 103.392C62.7918 108.19 67.5019 111.385 72.9322 113.598C73.1954 113.706 73.464 113.804 73.7647 113.915C73.9147 113.97 74.0727 114.028 74.242 114.092C74.2774 114.105 74.3172 114.097 74.3442 114.071C74.3712 114.044 74.3806 114.005 74.3681 113.969C72.2871 108.004 71.1043 102.058 71.7477 95.7559C71.7517 95.7173 71.7323 95.6801 71.6985 95.6612C71.6646 95.6422 71.6228 95.6452 71.5919 95.6687C68.7384 97.8461 67.0574 100.633 66.2496 104.027C66.2384 104.016 66.2275 104.004 66.2169 103.993C66.1948 103.97 66.1739 103.948 66.1545 103.928C66.092 103.861 66.042 103.805 65.9995 103.745L65.9993 103.745C65.6166 103.209 65.2237 102.681 64.8315 102.155C63.9506 100.972 63.0733 99.7941 62.3228 98.5373C59.8182 94.3426 58.43 89.8096 58.6217 84.8721L58.6217 84.8721C58.6371 84.4705 58.6649 84.0705 58.6928 83.6687C58.7051 83.4918 58.7174 83.3145 58.7287 83.1366C58.7405 83.1151 58.741 83.0944 58.741 83.0891C58.741 83.0643 58.7316 83.041 58.7154 83.0234L58.7145 83.0222L58.7138 83.0212L58.7136 83.0209L58.7136 83.0209Z" stroke="white" stroke-opacity="0.68" stroke-width="0.19457" stroke-linejoin="round"/>
</g>
<g id="Vector_4">
<path d="M30.9735 74.9979C31.3016 73.9262 31.5357 72.8129 31.9766 71.7904C33.3975 68.4988 35.5065 65.6369 37.7796 62.8943C40.0505 60.1549 42.5117 57.5937 45.1392 55.1934C45.2715 55.072 45.4444 54.9954 45.5297 54.7931C41.8236 54.7778 38.5847 56.2607 35.2473 57.6955C35.5689 56.311 36.0928 55.084 36.7634 53.9172C38.6383 50.6594 41.3566 48.2416 44.4927 46.2633C45.5384 45.6039 46.6553 45.0582 47.7426 44.4666C47.9603 44.3485 48.1944 44.261 48.4449 44.1932C46.465 46.4569 44.1481 48.4701 43.1571 51.6283C48.4733 51.1155 53.5872 50.8749 58.537 52.6858C58.5468 52.7394 58.5567 52.793 58.5654 52.8466C58.3062 52.933 58.0469 53.0226 57.7866 53.1047C53.6966 54.4049 49.8242 56.1448 46.3906 58.7639C44.5091 60.1997 42.8322 61.8346 41.5753 63.8621C41.4473 64.0699 41.3412 64.2908 41.1432 64.656C41.5556 64.5051 41.805 64.4165 42.0534 64.3236C45.0867 63.1852 48.1966 62.3639 51.4399 62.143C52.4189 62.0763 53.4067 62.1288 54.3901 62.1485C58.6934 62.2338 62.9934 62.2611 67.2453 61.4354C67.7222 61.3425 68.1904 61.2014 68.7242 61.1752C68.5514 61.3108 68.384 61.4562 68.2046 61.582C65.9972 63.1327 63.4857 63.9966 60.9523 64.8266C58.3718 65.6719 55.6951 65.9628 53.0304 66.3652C45.836 67.4523 39.0485 69.7017 32.8965 73.6747C32.2424 74.0968 31.609 74.5506 30.9658 74.9891L30.9735 74.9979Z" fill="white" fill-opacity="0.68"/>
<path d="M30.9938 75.093C30.9593 75.1004 30.9235 75.0885 30.9003 75.0619L30.8926 75.0532C30.8743 75.0322 30.8658 75.0044 30.8693 74.9768C30.8719 74.9564 30.8809 74.9376 30.8947 74.9228C30.9901 74.6082 31.0783 74.2878 31.167 73.9659C31.3732 73.2172 31.5816 72.4608 31.8872 71.7519L31.8872 71.7519C33.3137 68.4474 35.4298 65.577 37.7047 62.8322L37.7796 62.8943L37.7047 62.8322C39.9786 60.0892 42.4429 57.5249 45.0734 55.1217L30.9938 75.093ZM30.9938 75.093C31.0225 75.0869 31.0465 75.0682 31.0598 75.0428M30.9938 75.093L31.0598 75.0428M45.3513 54.8908C41.9269 54.9211 38.8978 56.2274 35.7866 57.569C35.6199 57.6409 35.4529 57.7129 35.2857 57.7848C35.252 57.7993 35.213 57.7936 35.1848 57.7701C35.1567 57.7465 35.1442 57.7092 35.1525 57.6734C35.4766 56.2782 36.0045 55.0424 36.679 53.8687L36.679 53.8687C38.5642 50.5931 41.296 48.1648 44.4408 46.181L44.4408 46.181C45.1876 45.7101 45.9721 45.2961 46.7526 44.8842C47.0687 44.7173 47.3841 44.5509 47.6961 44.3811L47.6962 44.3811C47.9219 44.2586 48.1634 44.1686 48.4195 44.0993C48.4608 44.0881 48.5047 44.1053 48.5274 44.1416C48.5501 44.178 48.5463 44.225 48.5181 44.2572C48.1333 44.6971 47.7373 45.1264 47.3415 45.5553C45.72 47.3126 44.1042 49.0638 43.295 51.5174C48.5595 51.0142 53.644 50.7921 58.5704 52.5945C58.6027 52.6063 58.6264 52.6344 58.6327 52.6682L58.6328 52.6688C58.6425 52.722 58.6525 52.7764 58.6614 52.8309C58.6691 52.878 58.6415 52.9238 58.5962 52.9389C58.5216 52.9637 58.4467 52.9889 58.3717 53.0142C58.1872 53.0764 58.0016 53.1389 57.8158 53.1974C53.7327 54.4955 49.8716 56.231 46.4496 58.8412C44.5742 60.2724 42.9068 61.8989 41.6582 63.9131L45.3513 54.8908ZM45.3513 54.8908C45.3321 54.9114 45.3114 54.9306 45.2892 54.9493C45.2607 54.9734 45.2312 54.9958 45.1995 55.0198C45.1948 55.0233 45.1901 55.0269 45.1853 55.0305C45.1491 55.058 45.1103 55.0879 45.0736 55.1215L45.3513 54.8908ZM31.0598 75.0428C31.2564 74.9085 31.4516 74.7732 31.6465 74.6381C32.0783 74.3389 32.5085 74.0408 32.9493 73.7564L32.9493 73.7564C39.0875 69.7923 45.8613 67.5468 53.0449 66.4614C53.4863 66.3948 53.9286 66.3311 54.371 66.2674C56.5938 65.9475 58.8222 65.6268 60.9825 64.9191L60.9523 64.8266L60.9825 64.9191C63.515 64.0893 66.0397 63.2217 68.2606 61.6616M31.0598 75.0428L41.658 63.9133C41.5772 64.0445 41.5062 64.1794 41.4128 64.3568C41.3927 64.3949 41.3717 64.4349 41.3492 64.4773M68.2606 61.6616C68.2605 61.6616 68.2605 61.6616 68.2605 61.6616L68.2046 61.582L68.2606 61.6616ZM68.2606 61.6616C68.3841 61.575 68.5042 61.4776 68.6209 61.3828C68.6761 61.338 68.7306 61.2939 68.7843 61.2517C68.8176 61.2256 68.8302 61.1809 68.8154 61.1412C68.8006 61.1015 68.7618 61.0759 68.7195 61.078C68.3255 61.0974 67.9622 61.1788 67.6149 61.2567C67.4835 61.2861 67.3543 61.3151 67.2267 61.34M67.2267 61.34C62.9862 62.1634 58.6957 62.1365 54.392 62.0512C54.1817 62.047 53.9706 62.0412 53.759 62.0355C52.9859 62.0145 52.2064 61.9933 51.4333 62.0459C48.1779 62.2677 45.0585 63.0918 42.0192 64.2325M67.2267 61.34L67.2453 61.4354M67.2267 61.34C67.2267 61.34 67.2268 61.34 67.2268 61.3399L67.2453 61.4354M42.0192 64.2325C41.8709 64.288 41.7226 64.3418 41.5388 64.4085C41.4797 64.4299 41.4169 64.4527 41.3492 64.4773M42.0192 64.2325C42.0192 64.2325 42.0192 64.2325 42.0192 64.2325L42.0534 64.3236M42.0192 64.2325L42.0534 64.3236M41.3492 64.4773C41.3278 64.5179 41.3051 64.5606 41.2808 64.6057L41.2126 64.5271C41.2603 64.5097 41.3058 64.4931 41.3492 64.4773ZM42.0534 64.3236C45.0867 63.1852 48.1966 62.3639 51.4399 62.143C52.2079 62.0907 52.9813 62.1117 53.7537 62.1327C53.966 62.1384 54.1781 62.1442 54.3901 62.1485C58.6934 62.2338 62.9934 62.2611 67.2453 61.4354M42.0534 64.3236L68.6642 61.0986C68.6263 61.1283 68.5893 61.158 68.5527 61.1876C68.2339 61.2177 67.9366 61.2844 67.6438 61.35C67.5106 61.3799 67.3783 61.4095 67.2453 61.4354" stroke="white" stroke-opacity="0.68" stroke-width="0.19457" stroke-linejoin="round"/>
</g>
<g id="Vector_5">
<path d="M82.1742 69.0677C79.5434 71.8475 76.5987 74.3748 76.3734 78.597C80.4666 75.6991 84.9329 74.1954 89.9473 74.5825C91.9162 74.7346 93.8251 75.1709 95.7218 76.0436C95.1311 76.3235 94.6236 76.5542 94.1226 76.8025C87.4806 80.093 83.7712 85.446 82.9202 92.7861C82.242 98.6345 83.3326 104.246 85.272 109.735C85.3246 109.884 85.3771 110.034 85.3311 110.245C84.8356 109.608 84.3247 108.983 83.8489 108.332C81.519 105.152 79.7338 101.713 78.991 97.8034C78.0382 92.7926 78.9746 88.099 81.4599 83.6854C82.8754 81.1713 84.6628 78.9513 86.8002 77.0135C86.8921 76.9304 86.9719 76.8331 87.1688 76.6242C86.8593 76.6625 86.6777 76.668 86.5048 76.7095C83.2068 77.4882 80.4393 79.239 77.9267 81.4348C74.4066 84.511 71.603 88.1745 69.2128 92.1715C69.1297 92.3093 69.0477 92.4482 68.8748 92.739C68.8245 92.2426 68.7786 91.9025 68.7567 91.5602C68.5161 87.9175 68.6637 84.3065 69.7948 80.8017C71.6653 75.0079 75.4282 71.082 81.3035 69.2755C81.5879 69.1869 81.8832 69.1355 82.1742 69.0677Z" fill="white" fill-opacity="0.68"/>
<path d="M82.2586 69.0193C82.2799 69.0565 82.2744 69.1034 82.2448 69.1346C81.9451 69.4513 81.642 69.7642 81.3397 70.0762C79.0203 72.4703 76.7525 74.8112 76.4834 78.4008C80.5468 75.5684 84.9821 74.1016 89.9548 74.4856C91.9336 74.6383 93.8539 75.0771 95.7625 75.9552C95.7968 75.971 95.8189 76.0052 95.8191 76.043C95.8193 76.0808 95.7977 76.1153 95.7635 76.1315C95.5655 76.2253 95.3772 76.3134 95.1957 76.3984C94.8339 76.5678 94.4988 76.7247 94.1658 76.8897L94.1226 76.8025L94.1658 76.8897C87.5537 80.1654 83.8641 85.4895 83.0168 92.7973C82.3409 98.6262 83.4274 104.222 85.3638 109.703L85.272 109.735L85.3638 109.703L85.3646 109.705C85.4173 109.855 85.4781 110.027 85.4262 110.266C85.4181 110.302 85.3895 110.331 85.3527 110.34C85.3159 110.348 85.2775 110.334 85.2543 110.305C85.1047 110.112 84.9532 109.921 84.8015 109.729C84.4528 109.287 84.1027 108.844 83.7704 108.39C81.4348 105.202 79.6417 101.749 78.8954 97.8215C77.938 92.786 78.8797 88.0693 81.3751 83.6377C82.7959 81.1142 84.5899 78.8861 86.7348 76.9415L86.7349 76.9414C86.7894 76.8921 86.8379 76.8392 86.9147 76.7553C86.9164 76.7534 86.9181 76.7515 86.9199 76.7496C86.9114 76.7505 86.903 76.7514 86.8948 76.7522C86.8597 76.7557 86.8268 76.7591 86.7959 76.7624C86.6911 76.7736 86.6076 76.7849 86.5276 76.8041L86.5272 76.8042C83.2498 77.578 80.4962 79.3185 77.9907 81.5081C74.4802 84.5759 71.6828 88.2306 69.2963 92.2214L69.2961 92.2217C69.2329 92.3265 69.1704 92.4319 69.0675 92.6052C69.0355 92.6591 68.9995 92.7196 68.9585 92.7887C68.937 92.8248 68.8948 92.8431 68.8538 92.834C68.8128 92.825 68.7823 92.7906 68.778 92.7488C68.7609 92.5794 68.7441 92.4273 68.7286 92.2866C68.699 92.0188 68.6741 91.7924 68.6596 91.5665M82.2586 69.0193L68.7567 91.5602M82.2586 69.0193C82.2372 68.982 82.1939 68.9632 82.1521 68.9729C82.0669 68.9928 81.9798 69.0115 81.8917 69.0304C81.6867 69.0745 81.4767 69.1196 81.2747 69.1825M82.2586 69.0193L82.0039 69.1058C81.9717 69.1128 81.9394 69.1197 81.9072 69.1267C81.7041 69.1703 81.5011 69.2139 81.3035 69.2755M68.6596 91.5665C68.6596 91.5665 68.6596 91.5664 68.6596 91.5664L68.7567 91.5602M68.6596 91.5665C68.6596 91.5665 68.6596 91.5666 68.6596 91.5666L68.7567 91.5602M68.6596 91.5665C68.4186 87.9175 68.5659 84.2929 69.7022 80.7718L69.7022 80.7718C71.5819 74.9497 75.3675 70.999 81.2747 69.1825M68.7567 91.5602C68.5161 87.9175 68.6637 84.3065 69.7948 80.8017C71.6653 75.0079 75.4282 71.082 81.3035 69.2755M81.2747 69.1825C81.2746 69.1825 81.2746 69.1826 81.2745 69.1826L81.3035 69.2755M81.2747 69.1825C81.2748 69.1825 81.2748 69.1825 81.2749 69.1825L81.3035 69.2755M68.8748 92.739L68.7912 92.6893C68.8151 92.6491 68.8373 92.6117 68.858 92.5769C68.8635 92.6291 68.8692 92.6831 68.8748 92.739ZM68.8748 92.739L68.9716 92.7292C68.9671 92.6845 68.9626 92.641 68.9582 92.5988C68.9329 92.6414 68.9053 92.6878 68.8748 92.739ZM85.3311 110.245C85.3038 110.21 85.2765 110.175 85.2491 110.14C85.2467 110.167 85.2425 110.195 85.2361 110.224L85.3311 110.245ZM85.3311 110.245C85.3416 110.197 85.347 110.151 85.3484 110.109C85.3682 110.134 85.3881 110.16 85.4079 110.185L85.3311 110.245ZM95.7218 76.0436C95.6832 76.0258 95.6446 76.0082 95.6059 75.9908C95.6305 75.9791 95.6553 75.9674 95.6802 75.9556L95.7218 76.0436ZM95.7218 76.0436C95.6831 76.0619 95.6448 76.08 95.6068 76.0979C95.6316 76.1092 95.6564 76.1205 95.6812 76.1319L95.7218 76.0436Z" stroke="white" stroke-opacity="0.68" stroke-width="0.19457" stroke-linejoin="round"/>
</g>
<g id="Vector_6">
<path d="M49.1309 26.192C53.2285 23.9141 61.9183 25.315 64.3806 28.6875C62.0277 28.1681 59.7086 27.8335 57.3546 28.237C56.7672 28.3376 56.1962 28.5454 55.623 28.7192C55.4546 28.7706 55.3025 28.8745 55.0465 29.0025C55.3867 29.4683 55.6668 29.908 56.0026 30.2995C57.6762 32.2558 59.7776 33.6655 62.0069 34.8902C63.3458 35.6262 64.7438 36.255 66.1144 36.933C66.2522 37.0008 66.3867 37.0763 66.6252 37.2031C64.5633 37.6734 62.6457 37.5903 60.75 36.9954C58.1105 36.1653 55.9468 34.5862 54.0074 32.6681C52.1696 30.8506 50.6328 28.7991 49.3223 26.5748C49.249 26.4512 49.1932 26.3189 49.1309 26.192Z" fill="white" fill-opacity="0.68"/>
<path d="M49.0436 26.2349C49.0207 26.1884 49.0383 26.1322 49.0836 26.107C51.1598 24.9528 54.3823 24.7362 57.3846 25.2248C58.888 25.4695 60.3419 25.8919 61.5763 26.4663C62.8095 27.0401 63.8303 27.7688 64.4592 28.6302C64.483 28.6628 64.4842 28.7069 64.462 28.7407C64.4399 28.7746 64.3991 28.7913 64.3596 28.7825C62.01 28.2638 59.706 27.9326 57.3711 28.3329L57.371 28.3329C56.9292 28.4086 56.4984 28.5453 56.0616 28.684C55.9256 28.7272 55.789 28.7706 55.6513 28.8123M49.0436 26.2349L55.623 28.7192M49.0436 26.2349C49.0605 26.2694 49.0776 26.3057 49.0951 26.3429C49.1384 26.4351 49.1845 26.5331 49.2385 26.6241M49.0436 26.2349L49.2385 26.6241M55.6513 28.8123L55.623 28.7192M55.6513 28.8123C55.6513 28.8123 55.6514 28.8123 55.6514 28.8123L55.623 28.7192M55.6513 28.8123C55.5764 28.8352 55.5031 28.8703 55.4132 28.9181C55.3865 28.9323 55.3581 28.9477 55.3279 28.9641C55.2862 28.9868 55.241 29.0114 55.1919 29.0372M55.623 28.7192C55.5128 28.7529 55.4096 28.809 55.2797 28.8796C55.2348 28.904 55.1868 28.9301 55.1342 28.9576C55.1537 28.9843 55.1729 29.0108 55.1919 29.0372M55.1919 29.0372C55.164 29.0519 55.1349 29.0669 55.1044 29.0823C55.0853 29.0558 55.066 29.0292 55.0465 29.0025L56.0026 30.2995C57.6762 32.2558 59.7776 33.6655 62.0069 34.8902C62.924 35.3943 63.8687 35.8482 64.8135 36.302C65.248 36.5107 65.6826 36.7194 66.1144 36.933M55.1919 29.0372C55.2778 29.1566 55.3596 29.2732 55.4395 29.387C55.6519 29.6896 55.8505 29.9727 56.0764 30.2361L56.0765 30.2362C57.7391 32.1797 59.8288 33.5826 62.0537 34.805L62.0537 34.805C62.9684 35.3078 63.9092 35.7597 64.8526 36.2128C65.2877 36.4218 65.7234 36.6311 66.1573 36.8457M66.1573 36.8457L66.1144 36.933M66.1573 36.8457C66.2521 36.8923 66.346 36.9429 66.4704 37.0098C66.5293 37.0415 66.595 37.0769 66.6709 37.1173C66.7068 37.1363 66.727 37.1757 66.7216 37.216C66.7163 37.2563 66.6865 37.289 66.6468 37.298C64.5684 37.772 62.6333 37.6884 60.7209 37.0882L60.7208 37.0882C58.0615 36.2519 55.8849 34.6619 53.9389 32.7373C52.0944 30.9131 50.5526 28.8546 49.2385 26.6241M66.1573 36.8457C66.1574 36.8458 66.1574 36.8458 66.1575 36.8458L66.1144 36.933M66.1144 36.933L49.2385 26.6241M66.4794 37.2355C64.4727 37.6692 62.6009 37.5762 60.75 36.9954C58.1105 36.1653 55.9468 34.5862 54.0074 32.6681C52.1696 30.8506 50.6328 28.7991 49.3223 26.5748L66.4794 37.2355ZM66.4794 37.2355C66.5106 37.2523 66.5439 37.2701 66.5795 37.289L66.6252 37.2031L66.6036 37.1083C66.5669 37.1167 66.5303 37.1248 66.4937 37.1328L66.4794 37.2355Z" stroke="white" stroke-opacity="0.68" stroke-width="0.19457" stroke-linejoin="round"/>
</g>
<g id="Vector_7">
<path d="M90.7735 106.067C90.0843 105.028 89.3547 104.013 88.7137 102.945C87.6527 101.179 86.9296 99.2783 86.7633 97.2071C86.4691 93.5459 87.9589 90.6206 90.5886 88.2016C91.2756 87.5695 92.0511 87.0348 92.8573 86.5033C89.8721 92.7913 89.3318 99.2871 90.9146 105.998C90.8665 106.022 90.8194 106.045 90.7735 106.067Z" fill="white" fill-opacity="0.68"/>
<path d="M90.8153 106.155C90.7716 106.176 90.7192 106.161 90.6924 106.121C90.4784 105.798 90.2599 105.477 90.041 105.156C89.5577 104.445 89.0725 103.732 88.6303 102.995M90.8153 106.155L86.7633 97.2071L86.6664 97.2149C86.8341 99.3044 87.5634 101.219 88.6303 102.995M90.8153 106.155C90.8618 106.133 90.9094 106.11 90.9581 106.085C90.9984 106.065 91.0196 106.02 91.0093 105.976C89.4312 99.2848 89.9701 92.8118 92.9452 86.545C92.9639 86.5056 92.9541 86.4585 92.9211 86.4299C92.8882 86.4012 92.8402 86.398 92.8038 86.4221C91.9972 86.9538 91.2159 87.4922 90.5227 88.13L90.8153 106.155ZM88.6303 102.995L88.7137 102.945L88.6303 102.995C88.6303 102.995 88.6303 102.995 88.6303 102.995Z" stroke="white" stroke-opacity="0.68" stroke-width="0.19457" stroke-linejoin="round"/>
</g>
<g id="Vector_8">
<path d="M84.2275 54.3132C85.7951 53.6439 87.3276 52.8718 88.9367 52.325C92.4743 51.1243 96.1497 50.6103 99.87 50.4047C99.9389 50.4015 100.008 50.4168 100.172 50.4321C99.5112 51.167 98.8614 51.8209 98.297 52.5416C97.8725 53.084 97.3945 53.2469 96.7163 53.2491C92.7051 53.259 88.719 53.5969 84.7657 54.2957C84.5907 54.3263 84.4069 54.3022 84.2275 54.3044V54.3132Z" fill="white" fill-opacity="0.68"/>
<path d="M100.091 50.5217C99.918 50.7127 99.746 50.8987 99.5762 51.0821C99.1252 51.5695 98.6903 52.0393 98.297 52.5416C97.8725 53.084 97.3945 53.2469 96.7163 53.2491C92.7051 53.259 88.719 53.5969 84.7657 54.2957L100.091 50.5217ZM100.091 50.5217C100.113 50.5241 100.137 50.5265 100.163 50.5289L100.172 50.4321L100.1 50.367C100.084 50.3845 100.068 50.402 100.052 50.4194C100.041 50.4181 100.031 50.4168 100.021 50.4157C99.9554 50.4078 99.9127 50.4027 99.87 50.4047C96.1497 50.6103 92.4743 51.1243 88.9367 52.325C87.8318 52.7005 86.7631 53.1821 85.6944 53.6638C85.2841 53.8486 84.8739 54.0335 84.4616 54.2124L100.091 50.5217ZM84.1303 54.3132C84.1303 54.3458 84.1467 54.3763 84.1739 54.3943C84.2012 54.4123 84.2357 54.4155 84.2657 54.4026C84.2665 54.4023 84.2673 54.4019 84.2681 54.4016C84.3106 54.4019 84.3527 54.4034 84.3962 54.4049C84.4284 54.4061 84.4615 54.4072 84.4962 54.408C84.5884 54.4099 84.6856 54.4084 84.7825 54.3915L84.7827 54.3915C88.7302 53.6937 92.7106 53.3562 96.7166 53.3464L96.7166 53.3464C97.063 53.3453 97.3662 53.3032 97.6397 53.1875C97.9145 53.0713 98.1528 52.8837 98.3736 52.6016C98.7644 52.1026 99.1948 51.6375 99.6446 51.1515C99.8413 50.9389 100.042 50.7223 100.244 50.4971C100.269 50.4698 100.276 50.4309 100.262 50.3967C100.249 50.3624 100.218 50.3386 100.181 50.3352C100.12 50.3295 100.073 50.3239 100.033 50.3191C100.02 50.3176 100.008 50.3161 99.9964 50.3148C99.9496 50.3094 99.9083 50.3055 99.8653 50.3076L99.8646 50.3076C96.1392 50.5135 92.4543 51.0284 88.9054 52.2329L88.9054 52.2329C87.7961 52.6099 86.7201 53.0947 85.6492 53.5774C85.1753 53.7909 84.7025 54.004 84.2281 54.2071C84.2275 54.2071 84.2269 54.2071 84.2264 54.2071C84.1731 54.2078 84.1303 54.2511 84.1303 54.3044V54.3132Z" stroke="white" stroke-opacity="0.68" stroke-width="0.19457" stroke-linejoin="round"/>
</g>
<g id="Vector_9">
<path d="M100.124 61.3828C99.514 63.0483 98.9145 64.7182 98.2768 66.3727C98.2188 66.5237 97.9114 66.6921 97.7419 66.6713C95.4305 66.4001 93.1214 66.1147 90.8177 65.7855C90.3429 65.7177 89.8955 65.4585 89.4492 65.1917C93.1662 64.401 96.8252 63.5874 99.9472 61.3117C100.006 61.3369 100.065 61.3598 100.124 61.3828Z" fill="white" fill-opacity="0.68"/>
<path d="M100.16 61.2921C100.209 61.3113 100.234 61.3665 100.216 61.4163C100.08 61.786 99.9452 62.1561 99.8101 62.5263C99.3372 63.8226 98.864 65.1198 98.3676 66.4076L100.16 61.2921ZM100.16 61.2921C100.1 61.2691 100.043 61.2466 99.9853 61.2222C99.9538 61.2088 99.9175 61.2129 99.8898 61.2331C96.7871 63.4948 93.1485 64.3053 89.429 65.0965C89.3898 65.1049 89.3598 65.1363 89.3532 65.1757M100.16 61.2921L89.3532 65.1757M89.3532 65.1757C89.3467 65.2152 89.365 65.2547 89.3993 65.2752L89.3532 65.1757ZM90.8039 65.8818C93.1087 66.2111 95.4187 66.4966 97.7303 66.7679L90.8039 65.8818C90.8039 65.8818 90.8039 65.8818 90.8039 65.8818Z" stroke="white" stroke-opacity="0.68" stroke-width="0.19457" stroke-linejoin="round"/>
</g>
<g id="Vector_10">
<path d="M85.3516 36.7915C83.5259 33.6693 80.6304 31.6889 77.5205 29.6986C77.8345 29.657 78.0117 29.622 78.19 29.6111C80.4958 29.4668 82.5589 30.2355 84.529 31.3269C85.0693 31.6266 85.5867 31.9699 86.0943 32.3221C86.2103 32.4019 86.3295 32.6184 86.3032 32.7398C86.0046 34.0849 85.6775 35.4245 85.3516 36.7915Z" fill="white" fill-opacity="0.68"/>
<path d="M78.1839 29.514C78.0661 29.5212 77.9461 29.539 77.7935 29.5616C77.7098 29.5739 77.6162 29.5878 77.5077 29.6021C77.4672 29.6075 77.4344 29.6376 77.4255 29.6775C77.4167 29.7173 77.4337 29.7585 77.4681 29.7805C80.5791 31.7715 83.4551 33.7411 85.2676 36.8406C85.2876 36.8749 85.3266 36.8935 85.3659 36.8877C85.4052 36.8819 85.437 36.8527 85.4462 36.814C85.5128 36.5348 85.5794 36.2566 85.6459 35.9792C85.9046 34.8995 86.1604 33.8318 86.3982 32.7609L86.3983 32.7604C86.4188 32.6656 86.3824 32.5555 86.3385 32.4706C86.293 32.3827 86.225 32.294 86.1498 32.2421C85.6413 31.8894 85.1208 31.5438 84.5761 31.2418L84.5761 31.2418C82.5985 30.1462 80.5162 29.368 78.1839 29.514ZM78.1839 29.514C78.184 29.514 78.184 29.514 78.184 29.514L78.19 29.6111M78.1839 29.514C78.1839 29.514 78.1839 29.514 78.1839 29.514L78.19 29.6111M78.19 29.6111C80.4958 29.4668 82.5589 30.2355 84.529 31.3269L85.2569 36.7689C85.2647 36.7363 85.2725 36.7036 85.2803 36.671C83.4762 33.6601 80.6686 31.7171 77.6469 29.7795C77.6112 29.7845 77.5734 29.7897 77.5333 29.795L77.5205 29.6986L77.5729 29.6167C77.605 29.6371 77.637 29.6576 77.6689 29.6781C77.721 29.6707 77.7689 29.6636 77.8136 29.657C77.9626 29.6349 78.076 29.6181 78.19 29.6111ZM86.0943 32.3221C86.2103 32.4019 86.3295 32.6184 86.3032 32.7398L86.0943 32.3221Z" stroke="white" stroke-opacity="0.68" stroke-width="0.19457" stroke-linejoin="round"/>
</g>
<g id="Vector_11">
<path d="M95.499 38.5538C97.7808 39.3072 99.9806 40.0421 102.189 40.7518C102.524 40.859 102.563 41.046 102.513 41.3194C102.269 42.6546 102.021 43.9888 101.683 45.3569C99.2827 43.3895 97.4866 40.9246 95.499 38.5538Z" fill="white" fill-opacity="0.68"/>
<path d="M95.5295 38.4614C95.4882 38.4478 95.4429 38.4632 95.4185 38.4992L102.513 41.3194L102.609 41.337C102.609 41.337 102.609 41.3369 102.609 41.3369C102.635 41.1956 102.642 41.0545 102.583 40.9311C102.522 40.8035 102.4 40.7172 102.219 40.6592C100.528 40.1158 98.842 39.5576 97.12 38.9875C96.5936 38.8132 96.0639 38.6378 95.5295 38.4614Z" stroke="white" stroke-opacity="0.68" stroke-width="0.19457" stroke-linejoin="round"/>
</g>
<g id="Vector_12">
<path d="M99.5657 44.1252C100.223 44.7343 100.831 45.2811 101.415 45.853C101.525 45.9602 101.613 46.1811 101.584 46.3222C101.348 47.4431 101.086 48.5596 100.815 49.6729C100.789 49.7822 100.643 49.9342 100.544 49.9419C99.2212 50.0392 97.8965 50.1147 96.4668 50.2021C97.2259 47.9964 98.4609 46.1198 99.5657 44.1252Z" fill="white" fill-opacity="0.68"/>
<path d="M99.6319 44.0538C99.6099 44.0335 99.5799 44.0244 99.5504 44.0291C99.5208 44.0339 99.4951 44.0519 99.4806 44.078C99.2289 44.5326 98.9697 44.9821 98.7104 45.4316C97.8368 46.9463 96.9631 48.4613 96.3748 50.1705C96.3642 50.2012 96.3697 50.2352 96.3894 50.261C96.409 50.2869 96.4403 50.3012 96.4727 50.2992C96.7662 50.2813 97.0553 50.2638 97.341 50.2466C98.4462 50.1799 99.4993 50.1163 100.551 50.0389L100.551 50.0389C100.597 50.0353 100.64 50.0164 100.675 49.9951C100.711 49.9732 100.745 49.9447 100.776 49.9139C100.834 49.8549 100.89 49.7745 100.909 49.6959C101.181 48.5821 101.443 47.4645 101.679 46.3422L101.679 46.3421C101.699 46.2462 101.678 46.1356 101.643 46.0409C101.607 45.9449 101.551 45.8495 101.484 45.7835L101.484 45.7835C101.053 45.3621 100.609 44.9539 100.144 44.5257C99.976 44.3715 99.8055 44.2147 99.6319 44.0538Z" stroke="white" stroke-opacity="0.68" stroke-width="0.19457" stroke-linejoin="round"/>
</g>
<g id="Vector_13">
<path d="M98.4033 53.2611C99.2795 52.2364 100.077 51.3047 100.988 50.2396C101.535 51.3003 102.042 52.2823 102.546 53.2611C101.128 53.2611 99.81 53.2611 98.4033 53.2611Z" fill="white" fill-opacity="0.68"/>
<path d="M98.3294 53.1979C98.3047 53.2267 98.2991 53.2673 98.315 53.3018C98.3308 53.3363 98.3653 53.3584 98.4033 53.3584H98.4116H98.4198H98.428H98.4363H98.4445H98.4527H98.461H98.4692H98.4774H98.4856H98.4939H98.5021H98.5103H98.5185H98.5267H98.5349H98.5432H98.5514H98.5596H98.5678H98.576H98.5842H98.5924H98.6006H98.6088H98.617H98.6252H98.6333H98.6415H98.6497H98.6579H98.6661H98.6743H98.6824H98.6906H98.6988H98.707H98.7151H98.7233H98.7315H98.7397H98.7478H98.756H98.7641H98.7723H98.7805H98.7886H98.7968H98.8049H98.8131H98.8212H98.8294H98.8375H98.8457H98.8538H98.862H98.8701H98.8782H98.8864H98.8945H98.9027H98.9108H98.9189H98.9271H98.9352H98.9433H98.9514H98.9596H98.9677H98.9758H98.9839H98.992H99.0002H99.0083H99.0164H99.0245H99.0326H99.0407H99.0488H99.057H99.0651H99.0732H99.0813H99.0894H99.0975H99.1056H99.1137H99.1218H99.1299H99.138H99.146H99.1541H99.1622H99.1703H99.1784H99.1865H99.1946H99.2027H99.2108H99.2188H99.2269H99.235H99.2431H99.2512H99.2592H99.2673H99.2754H99.2835H99.2915H99.2996H99.3077H99.3157H99.3238H99.3319H99.3399H99.348H99.3561H99.3641H99.3722H99.3802H99.3883H99.3964H99.4044H99.4125H99.4205H99.4286H99.4366H99.4447H99.4527H99.4608H99.4688H99.4769H99.4849H99.493H99.501H99.5091H99.5171H99.5252H99.5332H99.5412H99.5493H99.5573H99.5654H99.5734H99.5814H99.5895H99.5975H99.6055H99.6136H99.6216H99.6296H99.6377H99.6457H99.6537H99.6618H99.6698H99.6778H99.6859H99.6939H99.7019H99.7099H99.718H99.726H99.734H99.742H99.7501H99.7581H99.7661H99.7741H99.7821H99.7902H99.7982H99.8062H99.8142H99.8222H99.8302H99.8383H99.8463H99.8543H99.8623H99.8703H99.8783H99.8863H99.8943H99.9024H99.9104H99.9184H99.9264H99.9344H99.9424H99.9504H99.9584H99.9664H99.9744H99.9825H99.9905H99.9985H100.006H100.014H100.022H100.03H100.038H100.046H100.054H100.063H100.071H100.079H100.087H100.095H100.103H100.111H100.119H100.127H100.135H100.143H100.151H100.159H100.167H100.175H100.183H100.191H100.199H100.207H100.215H100.223H100.231H100.239H100.247H100.255H100.263H100.271H100.279H100.287H100.295H100.303H100.311H100.319H100.327H100.335H100.342H100.35H100.358H100.366H100.374H100.382H100.39H100.398H100.406H100.414H100.422H100.43H100.438H100.446H100.454H100.462H100.47H100.478H100.486H100.494H100.502H100.51H100.518H100.526H100.534H100.542H100.55H100.558H100.566H100.574H100.582H100.59H100.598H100.606H100.614H100.622H100.63H100.638H100.646H100.654H100.663H100.671H100.679H100.687H100.695H100.703H100.711H100.719H100.727H100.735H100.743H100.751H100.759H100.767H100.775H100.783H100.791H100.799H100.807H100.815H100.823H100.831H100.839H100.847H100.855H100.863H100.871H100.879H100.887H100.895H100.903H100.911H100.919H100.927H100.935H100.943H100.951H100.959H100.967H100.975H100.983H100.991H100.999H101.007H101.015H101.023H101.031H101.039H101.047H101.055H101.063H101.071H101.079H101.087H101.095H101.103H101.112H101.12H101.128H101.136H101.144H101.152H101.16H101.168H101.176H101.184H101.192H101.2H101.208H101.216H101.224H101.232H101.24H101.248H101.256H101.264H101.272H101.28H101.289H101.297H101.305H101.313H101.321H101.329H101.337H101.345H101.353H101.361H101.369H101.377H101.385H101.393H101.401H101.409H101.418H101.426H101.434H101.442H101.45H101.458H101.466H101.474H101.482H101.49H101.498H101.506H101.514H101.523H101.531H101.539H101.547H101.555H101.563H101.571H101.579H101.587H101.595H101.604H101.612H101.62H101.628H101.636H101.644H101.652H101.66H101.668H101.676H101.685H101.693H101.701H101.709H101.717H101.725H101.733H101.741H101.75H101.758H101.766H101.774H101.782H101.79H101.798H101.806H101.815H101.823H101.831H101.839H101.847H101.855H101.863H101.872H101.88H101.888H101.896H101.904H101.912H101.92H101.929H101.937H101.945H101.953H101.961H101.969H101.978H101.986H101.994H102.002H102.01H102.019H102.027H102.035H102.043H102.051H102.059H102.068H102.076H102.084H102.092H102.1H102.109H102.117H102.125H102.133H102.141H102.15H102.158H102.166H102.174H102.182H102.191H102.199H102.207H102.215H102.224H102.232H102.24H102.248H102.256H102.265H102.273H102.281H102.289H102.298H102.306H102.314H102.322H102.331H102.339H102.347H102.355H102.364H102.372H102.38H102.388H102.397H102.405H102.413H102.421H102.43H102.438H102.446H102.455H102.463H102.471H102.479H102.488H102.496H102.504H102.513H102.521H102.529H102.538H102.546C102.58 53.3584 102.611 53.3407 102.629 53.3117C102.647 53.2828 102.648 53.2467 102.632 53.2165C102.229 52.4342 101.825 51.6498 101.399 50.8248C101.293 50.6176 101.184 50.4079 101.075 50.195C101.06 50.1662 101.032 50.1467 100.999 50.1429C100.967 50.1392 100.935 50.1517 100.914 50.1763C100.61 50.532 100.318 50.8728 100.032 51.2071C99.4617 51.874 98.913 52.5153 98.3294 53.1979Z" stroke="white" stroke-opacity="0.68" stroke-width="0.19457" stroke-linejoin="round"/>
</g>
<g id="Vector_14">
<path d="M64.0029 17.5839C64.0205 17.6069 64.037 17.63 64.0546 17.653C64.037 17.653 64.0205 17.6519 64.0029 17.6519C64.0084 17.6267 64.0128 17.6014 64.0183 17.5762L64.0029 17.5839Z" fill="white" fill-opacity="0.68"/>
<path d="M63.9595 17.4968C63.9335 17.5098 63.9147 17.5336 63.9082 17.5619C63.904 17.58 63.9051 17.5987 63.9111 17.6159C63.91 17.6211 63.909 17.6262 63.9079 17.6312C63.9016 17.66 63.9087 17.69 63.9272 17.713C63.9456 17.7359 63.9735 17.7492 64.0029 17.7492C64.0099 17.7492 64.0169 17.7494 64.0256 17.7497L64.0262 17.7497C64.0344 17.75 64.0442 17.7503 64.0546 17.7503C64.0916 17.7503 64.1253 17.7293 64.1417 17.6962C64.1582 17.663 64.1544 17.6234 64.1319 17.594C64.1264 17.5868 64.121 17.5796 64.1155 17.5721C64.1143 17.544 64.1009 17.5172 64.078 17.4994C64.0485 17.4764 64.0083 17.4724 63.9748 17.4891L63.9595 17.4968Z" stroke="white" stroke-opacity="0.68" stroke-width="0.19457" stroke-linejoin="round"/>
</g>
<g id="Vector_15">
<path d="M27.3081 46.8267C27.354 46.8289 27.4 46.83 27.4448 46.8322C27.4252 46.8595 27.4055 46.8869 27.3858 46.9131C27.3595 46.8847 27.3333 46.8562 27.3081 46.8267Z" fill="white" fill-opacity="0.68"/>
<path d="M27.3127 46.7295C27.274 46.7277 27.2379 46.749 27.2208 46.7839C27.2037 46.8187 27.2089 46.8603 27.2341 46.8898C27.2605 46.9208 27.2878 46.9504 27.3136 46.9784L27.3143 46.9791C27.3339 47.0003 27.3619 47.0117 27.3907 47.0103C27.4196 47.0088 27.4463 46.9946 27.4636 46.9715C27.4839 46.9444 27.5041 46.9164 27.5236 46.8893L27.5238 46.889C27.5446 46.8601 27.548 46.8221 27.5325 46.79C27.517 46.7578 27.4852 46.7368 27.4496 46.735C27.4264 46.7339 27.4031 46.733 27.3804 46.7322L27.3794 46.7322C27.3568 46.7314 27.3347 46.7306 27.3127 46.7295Z" stroke="white" stroke-opacity="0.68" stroke-width="0.19457" stroke-linejoin="round"/>
</g>
<g id="Vector_16">
<path d="M84.2275 54.303C84.2275 54.303 84.2302 54.3162 84.2289 54.3148C84.2275 54.3148 84.2275 54.303 84.2275 54.303Z" fill="white" fill-opacity="0.68"/>
<path d="M84.3209 54.2843L84.2439 54.2998L84.2289 54.3028L84.2439 54.2998L84.3209 54.2843M84.3209 54.2843C84.323 54.2907 84.3238 54.2956 84.324 54.2968C84.324 54.2969 84.324 54.2969 84.324 54.297L84.3247 54.3021L84.3248 54.303L84.2406 54.303L84.2289 54.303L84.2275 54.303M84.3209 54.2843L84.3229 54.2839L84.3229 54.2839L84.3229 54.2839L84.3229 54.284L84.323 54.2841L84.323 54.2843L84.3231 54.285L84.3236 54.2872L84.3248 54.2942L84.3248 54.2943C84.3251 54.2961 84.326 54.3017 84.3263 54.3078C84.3264 54.3096 84.3266 54.3126 84.3265 54.3163C84.3264 54.319 84.3262 54.3269 84.324 54.3366C84.3228 54.3415 84.3203 54.3509 84.3144 54.3617C84.3087 54.372 84.2954 54.3917 84.2692 54.4035C84.2395 54.417 84.2137 54.4135 84.1947 54.406C84.1741 54.3983 84.1606 54.385 84.154 54.3771C84.1442 54.3654 84.1395 54.3542 84.1378 54.3497C84.134 54.3399 84.1325 54.3315 84.1321 54.329C84.131 54.3225 84.1307 54.3167 84.1306 54.3144L84.1303 54.3067L84.1303 54.3043L84.1303 54.3035L84.1303 54.3033L84.1303 54.3031L84.1303 54.3031L84.1303 54.3031L84.1303 54.3031L84.1326 54.3031M84.3209 54.2843C84.3209 54.2843 84.3209 54.2843 84.3209 54.2843M84.2275 54.303L84.1326 54.303M84.2275 54.303L84.1326 54.3031M84.2275 54.303L84.1323 54.3221C84.1322 54.3213 84.1322 54.3204 84.1321 54.3193C84.132 54.318 84.1319 54.3155 84.132 54.3122C84.132 54.3108 84.1321 54.3075 84.1326 54.3031M84.1326 54.303C84.133 54.3001 84.1335 54.2966 84.1344 54.2928C84.1355 54.2881 84.138 54.2787 84.1439 54.268C84.1495 54.2578 84.1627 54.2382 84.1889 54.2263C84.2027 54.2201 84.2163 54.2176 84.2289 54.2176C84.2428 54.2177 84.2555 54.2207 84.2656 54.2248C84.2694 54.2263 84.2728 54.228 84.276 54.2297C84.2851 54.2349 84.2923 54.2409 84.2975 54.246C84.2998 54.2483 84.3017 54.2505 84.3033 54.2523C84.3129 54.2639 84.3174 54.2748 84.3191 54.279C84.3198 54.2808 84.3204 54.2826 84.3209 54.2843M84.1326 54.303L84.1303 54.3031C84.1302 54.253 84.1682 54.2112 84.2179 54.2062C84.2677 54.2013 84.3131 54.2349 84.3229 54.2839L84.3209 54.2843M84.1326 54.303C84.1326 54.3031 84.1326 54.3031 84.1326 54.3031M84.2729 54.2281C84.2594 54.2212 84.2443 54.2176 84.2289 54.2176C84.2465 54.2176 84.2612 54.2221 84.2729 54.2281ZM84.2976 54.246C84.2955 54.2439 84.2934 54.242 84.2912 54.2402C84.294 54.2425 84.2961 54.2445 84.2976 54.246ZM84.1326 54.3247C84.1327 54.3252 84.1327 54.3251 84.1326 54.3246L84.1326 54.3247Z" stroke="white" stroke-opacity="0.68" stroke-width="0.19457" stroke-linejoin="round"/>
</g>
<g id="Vector_17">
<path d="M30.9648 74.9913C30.9593 75.0034 30.9528 75.0166 30.9473 75.0287C30.955 75.0188 30.9626 75.0078 30.9703 74.9979C30.9714 74.9979 30.9648 74.9913 30.9648 74.9913Z" fill="white" fill-opacity="0.68"/>
<path d="M30.9703 74.9858L30.9648 74.9913L30.9703 74.9858ZM30.9703 74.9858L31.0336 74.9225C31.0111 74.9 30.9789 74.8899 30.9475 74.8956C30.9161 74.9013 30.8895 74.922 30.8763 74.9511L30.8683 74.968L30.8681 74.9684C30.8652 74.9744 30.8619 74.9815 30.8587 74.9884C30.8383 75.0333 30.8547 75.0864 30.8969 75.1119C30.9391 75.1374 30.9937 75.1273 31.024 75.0884C31.0287 75.0825 31.0332 75.0764 31.0368 75.0714L31.0371 75.071L31.0458 75.0594M30.9703 74.9858L31.0336 74.9225L31.0336 74.9225L31.0336 74.9225L31.0337 74.9226L31.0337 74.9226L31.0339 74.9228L31.0343 74.9232L31.0356 74.9245L31.0397 74.9289L31.0397 74.9289C31.0408 74.9301 31.0443 74.9338 31.0478 74.9385C31.0478 74.9385 31.0478 74.9386 31.0478 74.9386C31.0488 74.9398 31.0553 74.9483 31.0602 74.9602C31.0602 74.9603 31.0603 74.9604 31.0603 74.9605C31.0619 74.9641 31.0728 74.9895 31.0648 75.0215C31.0616 75.0345 31.0553 75.0477 31.0458 75.0594M31.0458 75.0594C31.0395 75.0672 31.0317 75.0743 31.0223 75.0802C31.0206 75.0812 31.019 75.0822 31.0173 75.0832C30.9983 75.0936 30.9804 75.0952 30.9703 75.0952V75.0466V75.0392L31.0427 75.0543L31.0471 75.0577L31.0458 75.0594ZM30.8763 74.9734L30.9362 75.02L30.9337 75.0225L30.8961 75.0601L30.8954 75.0593L30.8921 75.0553C30.8913 75.0542 30.8899 75.0523 30.8883 75.0497C30.887 75.0477 30.8837 75.0424 30.8806 75.0351C30.8791 75.0313 30.8766 75.0248 30.875 75.0163C30.874 75.0117 30.8729 75.0042 30.8732 74.995C30.8734 74.9888 30.8742 74.9818 30.8761 74.9742C30.8761 74.9739 30.8762 74.9737 30.8763 74.9734Z" stroke="white" stroke-opacity="0.68" stroke-width="0.19457" stroke-linejoin="round"/>
</g>
<g id="Vector_18">
<path d="M58.6448 83.091C58.6504 83.0765 58.6526 83.0598 58.6615 83.0476C58.6649 83.0431 58.6827 83.0509 58.6939 83.0531C58.6738 83.062 58.6548 83.071 58.6348 83.0788C58.6359 83.0788 58.6448 83.091 58.6448 83.091Z" fill="white" fill-opacity="0.68"/>
<path d="M58.6407 83.094V83.094ZM58.6407 83.094L58.6598 83.1433L58.6407 83.094ZM58.5391 83.0967C58.5427 83.1158 58.5518 83.1328 58.5645 83.146L58.5653 83.1472L58.566 83.1481L58.5662 83.1483L58.5662 83.1483C58.5662 83.1483 58.5662 83.1483 58.5662 83.1483C58.5662 83.1483 58.5662 83.1483 58.5662 83.1483C58.5872 83.1771 58.6222 83.1921 58.6575 83.1875C58.6854 83.1838 58.7099 83.1683 58.7253 83.1456C58.7281 83.1444 58.7308 83.1432 58.7334 83.142C58.7721 83.1248 58.7953 83.0845 58.7906 83.0424C58.7859 83.0003 58.7545 82.966 58.713 82.9577C58.7139 82.9579 58.7146 82.9581 58.7146 82.9581C58.7146 82.9581 58.7139 82.9579 58.7122 82.9574C58.7119 82.9573 58.7115 82.9572 58.711 82.9571C58.7086 82.9563 58.7039 82.9549 58.6998 82.9538C58.6957 82.9527 58.6849 82.9499 58.6723 82.9491C58.6659 82.9487 58.6539 82.9485 58.6397 82.9521C58.625 82.9558 58.6016 82.9653 58.5837 82.9892L58.5837 82.9892L58.5829 82.9903C58.5801 82.9941 58.5776 82.9979 58.5754 83.0017C58.547 83.0235 58.5323 83.06 58.5391 83.0967ZM58.6497 83.1418L58.6499 83.1419L58.6497 83.1418Z" stroke="white" stroke-opacity="0.68" stroke-width="0.19457" stroke-linejoin="round"/>
</g>
<g id="Vector_19">
<path d="M44.398 14.5293C44.398 14.5008 44.3991 14.4734 44.3991 14.4448C44.4167 14.4602 44.4354 14.4767 44.4529 14.492C44.4299 14.5052 44.4068 14.5184 44.3815 14.5315C44.3793 14.5326 44.398 14.5293 44.398 14.5293Z" fill="white" fill-opacity="0.68"/>
<path d="M44.4017 14.5506L44.407 14.5804L44.4076 14.5837L44.4149 14.6252C44.4374 14.6212 44.4569 14.6097 44.471 14.5936C44.4812 14.5879 44.491 14.5823 44.5005 14.5769L44.5012 14.5765C44.5285 14.5609 44.5466 14.533 44.5497 14.5017C44.5529 14.4704 44.5407 14.4395 44.517 14.4188L44.4902 14.3953L44.4631 14.3716C44.4344 14.3465 44.3936 14.3405 44.3589 14.3562C44.3241 14.372 44.3018 14.4067 44.3018 14.4448C44.3018 14.4551 44.3017 14.4654 44.3015 14.4762C44.2986 14.4803 44.2957 14.4851 44.2932 14.4906C44.2839 14.5104 44.2787 14.5403 44.2925 14.5712C44.3044 14.5981 44.3245 14.6114 44.334 14.6167C44.3443 14.6224 44.3534 14.625 44.3579 14.6261C44.367 14.6284 44.3744 14.6288 44.3768 14.6289C44.3826 14.6292 44.3873 14.6289 44.3886 14.6288L44.3886 14.6288L44.3935 14.6284C44.3975 14.628 44.4017 14.6273 44.404 14.627L44.4114 14.6258L44.4138 14.6253L44.4146 14.6252L44.4148 14.6252L44.4149 14.6252L44.4149 14.6252L44.4149 14.6252L44.4149 14.6252L44.4076 14.5837L44.407 14.5804L44.4017 14.5506L44.4017 14.5506ZM44.3991 14.4448L44.3858 14.4601L44.3813 14.4345C44.3828 14.4345 44.3845 14.4345 44.3865 14.4346C44.3887 14.4347 44.396 14.4351 44.405 14.4374C44.4052 14.4374 44.4053 14.4374 44.4055 14.4375C44.4095 14.4385 44.4167 14.4406 44.4251 14.4448H44.3991ZM44.4275 14.6173C44.4264 14.6179 44.4256 14.6183 44.4251 14.6185L44.425 14.6186L44.425 14.6186L44.4265 14.6178L44.4275 14.6173Z" stroke="white" stroke-opacity="0.68" stroke-width="0.19457" stroke-linejoin="round"/>
</g>
</g>
</g>
<defs>
<clipPath id="clip0_3368_711">
<rect width="101.955" height="114" fill="white" transform="translate(0.592285)"/>
</clipPath>
</defs>
</svg>
