<svg width="22" height="40" viewBox="0 0 22 40" fill="none" xmlns="http://www.w3.org/2000/svg">
<g id="Group 207">
<g id="Group 216">
<ellipse id="Ellipse 161" cx="11" cy="29.75" rx="7" ry="6.75" fill="#EEEEEE"/>
<path id="Vector" d="M7.81071 15.4453L7.77899 15.4348L7.75868 15.4213L7.75244 15.4186L7.75139 15.4181C7.7452 15.4155 7.73395 15.4107 7.72231 15.4051C7.71232 15.4003 7.69949 15.3937 7.6854 15.3851C7.68228 15.3834 7.67943 15.3817 7.67687 15.3801C7.67463 15.3788 7.67252 15.3775 7.67055 15.3763C7.66707 15.3741 7.66404 15.3721 7.66161 15.3705L7.65998 15.3694L7.62258 15.3569L7.5942 15.3286C7.59182 15.327 7.5892 15.3251 7.58654 15.3232C7.58243 15.3202 7.57711 15.3162 7.5712 15.3114C7.56917 15.3097 7.56692 15.3079 7.56452 15.3058L3.7755 12.2779L3.76476 12.2693L3.75503 12.2596L3.73656 12.2412C3.72892 12.2351 3.7223 12.2294 3.71671 12.2244C3.70619 12.2149 3.69695 12.2056 3.69282 12.2015C3.69209 12.2007 3.69145 12.2001 3.69089 12.1995L3.67924 12.1918L3.66172 12.1743C3.65087 12.1635 3.64191 12.1532 3.63557 12.1457C3.62965 12.1387 3.62407 12.1318 3.62051 12.1273L3.61991 12.1266L3.61259 12.1176L3.59752 12.1025L3.58376 12.0819C3.58283 12.0806 3.58155 12.0788 3.57325 12.0684L3.57216 12.067C3.56463 12.0577 3.55102 12.0407 3.53711 12.0199C3.52042 11.9949 3.50851 11.9711 3.50298 11.96L3.50202 11.9581C3.49907 11.9522 3.49756 11.9493 3.49699 11.9483L3.47959 11.9222L3.47084 11.8961L3.46703 11.8883C3.46445 11.8832 3.45959 11.8735 3.45485 11.8632C3.44995 11.8526 3.44363 11.8379 3.43785 11.8206L3.41453 11.7508C3.40415 11.7198 3.3994 11.6908 3.39761 11.6799L3.39728 11.6779C3.39695 11.6759 3.39668 11.6744 3.39647 11.6732C3.38285 11.6286 3.3793 11.5826 3.37846 11.5534C3.37837 11.553 3.37827 11.5526 3.37818 11.5522C3.37387 11.5336 3.37053 11.5111 3.37053 11.4854V1.78331C3.37053 1.2103 3.833 0.75 4.40591 0.75H17.5552C18.1281 0.75 18.5906 1.2103 18.5906 1.78331V11.4699C18.5906 11.4701 18.5906 11.4704 18.5906 11.4708C18.5907 11.4764 18.5909 11.5024 18.5862 11.5305C18.5845 11.5406 18.5824 11.5501 18.58 11.5592C18.5786 11.5715 18.5771 11.5814 18.5761 11.588L18.576 11.5885L18.575 11.5948V11.6269L18.5645 11.6584C18.5643 11.6595 18.5641 11.6608 18.5638 11.6624L18.5635 11.6644C18.5617 11.6753 18.557 11.7043 18.5466 11.7353L18.3095 11.6561L18.5466 11.7353L18.5233 11.8051C18.5229 11.8062 18.5225 11.8075 18.522 11.8088C18.5157 11.8279 18.5031 11.866 18.4793 11.9079C18.4607 11.9502 18.4372 11.9849 18.4267 12.0004C18.4257 12.0019 18.4248 12.0032 18.424 12.0044C18.4232 12.0056 18.4223 12.007 18.4212 12.0086C18.411 12.0241 18.3903 12.0552 18.3646 12.0846C18.3449 12.1115 18.3258 12.132 18.3118 12.1464C18.2839 12.1808 18.253 12.2064 18.2301 12.2232C18.2178 12.2366 18.1994 12.2546 18.1743 12.2715L14.4045 15.2901C14.4021 15.2923 14.3998 15.2942 14.3977 15.2959C14.3918 15.3007 14.3865 15.3047 14.3824 15.3077C14.3785 15.3105 14.3747 15.3131 14.3716 15.3152C14.3373 15.3455 14.3026 15.3646 14.2713 15.3778C14.2483 15.3923 14.2139 15.4115 14.1712 15.4259C14.1544 15.4339 14.1319 15.4437 14.1037 15.4531L14.0947 15.4561L14.0855 15.4584C14.0857 15.4583 14.0828 15.4592 14.0658 15.4655L14.0632 15.4665C14.0527 15.4704 14.0345 15.4772 14.0135 15.4835C14.0064 15.4862 14 15.4884 13.9943 15.4901C13.9892 15.4917 13.9843 15.4931 13.9801 15.4942L13.9629 15.5028L13.9259 15.509L13.9216 15.5097C13.8764 15.5172 13.8124 15.5279 13.7372 15.5279H12.0043V16.1823C13.6892 16.6345 14.9281 18.1751 14.9281 19.9932C14.9281 20.0226 14.9273 20.0512 14.9259 20.079C18.6426 21.6372 21.25 25.271 21.25 29.517C21.25 35.1543 16.6507 39.7406 11 39.7406C5.34933 39.7406 0.75 35.1543 0.75 29.517C0.75 25.28 3.3485 21.6385 7.04294 20.0943C7.04163 20.0666 7.04082 20.038 7.04082 20.0087C7.04082 18.1895 8.28074 16.657 9.96462 16.1986V15.5434H8.23173C8.17129 15.5434 8.11073 15.5345 8.06662 15.528C8.06324 15.5275 8.05995 15.527 8.05677 15.5265C8.01271 15.5223 7.97459 15.5087 7.951 15.4984C7.92028 15.4903 7.87697 15.4773 7.83245 15.4551C7.8242 15.451 7.82124 15.4495 7.81841 15.4483C7.81635 15.4474 7.81412 15.4465 7.81071 15.4453ZM7.64909 15.362C7.64866 15.3617 7.64876 15.3618 7.64934 15.3621L7.64909 15.362ZM18.2523 12.1962L18.2518 12.1969C18.2528 12.1956 18.2531 12.1953 18.2523 12.1962ZM12.624 13.469V2.80886H9.37597V13.469H12.624ZM5.48017 2.80886V10.9696L7.31299 12.4319V2.80886H5.48017ZM14.6948 2.80886V12.4397L16.5276 10.9773V2.80886H14.6948ZM11 18.1182C10.1463 18.1182 9.42492 18.685 9.1938 19.4587C9.78042 19.3531 10.3869 19.2934 11 19.2934C11.6172 19.2934 12.219 19.3474 12.8053 19.4556C12.5732 18.6835 11.8526 18.1182 11 18.1182ZM11 21.36C6.48737 21.36 2.82076 25.0179 2.82076 29.517C2.82076 34.0161 6.48737 37.674 11 37.674C15.5126 37.674 19.1792 34.0161 19.1792 29.517C19.1792 25.0179 15.5126 21.36 11 21.36Z" fill="#EEEEEE" stroke="#EEEEEE" stroke-width="0.5"/>
</g>
</g>
</svg>
