<svg width="28" height="28" viewBox="0 0 28 28" fill="none" xmlns="http://www.w3.org/2000/svg">
<path d="M6.66531 18.5688L6.67452 18.569C6.92186 18.5757 7.16782 18.5301 7.39633 18.4352C7.62484 18.3403 7.83076 18.1982 8.00064 18.0183L8.00603 18.0126L8.01159 18.0071L13.6897 12.3599L17.6545 8.4167C18.4038 7.67152 18.4054 6.45952 17.6582 5.7123C16.9124 4.96651 15.7032 4.96651 14.9575 5.7123L5.36736 15.3024L6.66531 18.5688ZM6.66531 18.5688L6.6561 18.5689M6.66531 18.5688L6.6561 18.5689M6.6561 18.5689C6.41689 18.5712 6.1798 18.5237 5.96 18.4294C5.74019 18.335 5.54247 18.1959 5.37942 18.0208L5.3735 18.0145M6.6561 18.5689L5.3735 18.0145M5.3735 18.0145L5.36736 18.0083M5.3735 18.0145L5.36736 18.0083M5.36736 18.0083C5.00889 17.6493 4.80756 17.1627 4.80756 16.6554M5.36736 18.0083L4.80756 16.6554M4.80756 16.6554C4.80756 16.1481 5.00879 15.6616 5.36709 15.3027L4.80756 16.6554ZM26.5512 8.35967L21.7742 3.58267C21.1564 2.96486 20.9171 2.13403 21.0219 1.49965C21.0734 1.188 21.2036 0.941996 21.3898 0.776279C21.5718 0.61438 21.8441 0.495912 22.2471 0.500296L22.2471 0.500355L22.2548 0.50032C23.6121 0.494238 24.9163 1.02716 25.881 1.98203C26.845 2.93622 27.3911 4.23377 27.3997 5.59001C27.3929 6.58011 27.0958 7.54224 26.5512 8.35967ZM2.42572 14.2725V14.2723L2.41201 14.2727C2.16473 14.2795 1.91879 14.234 1.69031 14.1393C1.46184 14.0445 1.25594 13.9026 1.08604 13.7228L1.07865 13.715L1.07092 13.7075C0.722617 13.3693 0.518484 12.9096 0.501195 12.4245C0.486745 12.019 0.675198 11.6666 1.04194 11.3301C1.41606 10.9868 1.93256 10.7024 2.46636 10.4528L7.17136 8.25258C7.91463 7.90501 8.58035 8.85467 8.00016 9.43486L3.72239 13.7126L3.71624 13.7188L3.7103 13.7251C3.54725 13.9 3.34956 14.0389 3.12985 14.1332C2.91015 14.2274 2.67323 14.2749 2.43418 14.2725L2.43418 14.2725H2.4293H2.42572ZM10.9513 22.8643L10.951 22.8643C10.712 22.8663 10.4752 22.8187 10.2556 22.7245C10.0356 22.6302 9.83761 22.4912 9.67416 22.3164L9.66889 22.3108L9.66345 22.3053C9.3056 21.9455 9.10471 21.4587 9.10471 20.9512C9.10471 20.4439 9.30547 19.9572 9.66312 19.5974C9.66323 19.5973 9.66334 19.5972 9.66345 19.5971L19.2529 10.0077C19.9988 9.26182 21.208 9.26166 21.9541 10.0074C22.7019 10.7548 22.7004 11.9674 21.9508 12.713L12.4244 22.1877L12.4221 22.19L12.3047 22.3084L12.3046 22.3083L12.2967 22.3166C12.1264 22.4963 11.9202 22.6381 11.6916 22.733C11.4767 22.8221 11.2464 22.8678 11.014 22.8677C10.9935 22.8653 10.9725 22.8641 10.9513 22.8643ZM14.4841 23.309L14.4841 23.3091L14.4902 23.3028L18.3983 19.2547C19.0349 18.5953 20.0997 19.3523 19.686 20.1702L19.686 20.1702L19.683 20.1763L17.2583 25.1367C16.9944 25.6768 16.7004 26.1994 16.3472 26.5816C16.0004 26.9566 15.6365 27.1553 15.2168 27.148C14.7272 27.1395 14.2588 26.9476 13.9039 26.6108C13.5756 26.2338 13.3946 25.7506 13.3946 25.2502C13.3946 24.7482 13.5768 24.2635 13.9072 23.8859L14.4841 23.309ZM25.4319 9.94742L25.4316 9.94708L25.4319 9.94742Z" fill="#EEEEEE" stroke="#818181"/>
</svg>
