<svg width="25" height="25" viewBox="0 0 25 25" fill="none" xmlns="http://www.w3.org/2000/svg">
<g id="Group 207">
<path id="Vector" d="M23.6112 11.375C23.855 11.375 24.0987 11.375 24.3425 11.375C24.1645 8.72161 23.1132 6.20179 21.3525 4.20875L16.705 8.85625C18.6312 10.4957 21.0818 11.3894 23.6112 11.375ZM15.5756 7.64563L20.2231 2.99813C18.2312 1.23451 15.7112 0.18025 13.0569 0C13.0569 0.251875 13.0569 0.50375 13.0569 0.755625C13.0463 3.27945 13.9398 5.72364 15.5756 7.64563ZM8.8075 14.4137L11.0337 12.1875L2.99 4.15188C1.2094 6.17083 0.156696 8.72822 0 11.4156C0.26 11.4156 0.528125 11.4156 0.8125 11.4156C3.75184 11.4182 6.59123 12.483 8.8075 14.4137ZM23.6112 13C20.6537 12.9983 17.7977 11.9211 15.5756 9.96938L13.3413 12.1875L21.3769 20.2312C23.1608 18.1944 24.2156 15.6216 24.375 12.9187C24.1313 12.9187 23.8794 12.9594 23.6356 12.9594L23.6112 13ZM0.8125 13C0.5525 13 0.2925 13 0 13C0.174729 15.6735 1.22558 18.215 2.99 20.2312L7.65375 15.5675C5.75142 13.925 3.32575 13.0147 0.8125 13ZM20.2231 21.385L12.1875 13.3413L9.96125 15.5675C11.9067 17.7779 12.9862 20.6179 13 23.5625C13 23.8306 13 24.0987 13 24.375C15.6732 24.2094 18.215 23.1573 20.2231 21.385ZM8.8075 16.7213L4.14375 21.385C6.14696 23.1396 8.66972 24.1898 11.3263 24.375C11.3263 24.115 11.3669 23.855 11.3669 23.5625C11.3545 21.0503 10.4471 18.6247 8.8075 16.7213ZM4.14375 2.99813L12.1875 11.0337L14.4219 8.79937C12.4642 6.57964 11.3812 3.72339 11.375 0.76375C11.375 0.511875 11.375 0.251875 11.4156 0C8.72693 0.168213 6.16973 1.22252 4.14375 2.99813Z" fill="#EEEEEE"/>
</g>
</svg>
