<svg width="40" height="20" viewBox="0 0 40 20" fill="none" xmlns="http://www.w3.org/2000/svg">
<path id="Vector" d="M27.4421 5.06202V1.62614V1.62073L27.4422 1.62073C27.4494 1.4087 27.5398 1.20802 27.6938 1.06208C27.8474 0.916527 28.0519 0.837098 28.2635 0.840842H31.6892C31.7053 0.840842 31.7211 0.841809 31.7332 0.842656C31.7452 0.84181 31.7611 0.840842 31.7772 0.840842H35.2044C35.6529 0.840842 35.9641 1.1952 35.9641 1.62614V5.93811H38.7547C39.2057 5.93811 39.5481 6.33895 39.5481 6.76729L39.5481 12.3027C39.5481 12.3029 39.5481 12.3032 39.5481 12.3034V12.3036H39.3888C39.3898 12.4729 39.3235 12.6357 39.2047 12.7562C39.0858 12.8768 38.924 12.9454 38.7547 12.9469L27.4421 5.06202ZM27.4421 5.06202H12.9467V1.62614H12.9468L12.9466 1.62067C12.9394 1.40858 12.8489 1.20786 12.6948 1.06194C12.5411 0.916403 12.3365 0.837026 12.1249 0.840842H8.69952C8.68337 0.840842 8.66748 0.84181 8.65549 0.842655C8.64348 0.841808 8.62759 0.840842 8.61143 0.840842H5.18431C4.73567 0.840842 4.42474 1.19527 4.42474 1.62614V5.93811H1.63414C1.18314 5.93811 0.84072 6.33895 0.84072 6.76729V12.3032M27.4421 5.06202L35.9641 13.1061V18.3739C35.9641 18.8048 35.6529 19.1592 35.2044 19.1592H31.7772C31.7611 19.1592 31.7452 19.1582 31.7332 19.1573C31.7316 19.1575 31.7299 19.1576 31.7283 19.1577C31.717 19.1584 31.7032 19.1592 31.6892 19.1592H28.2634C28.0519 19.1629 27.8473 19.0835 27.6938 18.9379C27.5398 18.792 27.4494 18.5913 27.4422 18.3793L27.442 18.3739H27.4421V13.9822H12.9467V18.3739V18.3793L12.9466 18.3793C12.9394 18.5914 12.8489 18.7921 12.6948 18.9381C12.5411 19.0836 12.3365 19.163 12.1249 19.1592H8.69952C8.68337 19.1592 8.66748 19.1582 8.65549 19.1573C8.64348 19.1582 8.62759 19.1592 8.61143 19.1592H5.18431C4.73567 19.1592 4.42474 18.8047 4.42474 18.3739V13.1061H1.63414H1.63274C1.42127 13.1043 1.21917 13.0187 1.07072 12.8681C0.92237 12.7176 0.839677 12.5145 0.84072 12.3032M0.84072 12.3032C0.840721 12.303 0.840722 12.3028 0.840722 12.3027L1.00001 12.3036M0.84072 12.3032V12.3036H1.00001M1.00001 12.3036C0.999076 12.4729 1.06529 12.6357 1.18416 12.7562C1.30302 12.8768 1.46483 12.9454 1.63414 12.9469H4.42474L1.00001 12.3036ZM11.2977 5.71762L11.4462 5.77502L11.2976 5.71763C11.2754 5.77525 11.2674 5.83733 11.2742 5.89859V13.1724C11.2674 13.2336 11.2754 13.2957 11.2976 13.3533C11.3114 13.389 11.3304 13.4223 11.3538 13.4521V17.5663H9.52201V2.43374H11.3538V5.61881C11.3304 5.64866 11.3114 5.68194 11.2977 5.71762ZM2.43362 11.5133V7.53101H4.42474V11.5133H2.43362ZM7.84947 17.5663H6.01764V2.43374H7.84947V17.5663ZM27.4421 12.3893H12.9467V6.65492H27.4421V12.3893ZM30.8668 17.5663H29.035V2.43374H30.8668V17.5663ZM34.3712 17.5663H32.5394V2.43374H34.3712V17.5663ZM37.9552 11.5133H35.9641V7.53101H37.9552V11.5133Z" fill="#EEEEEE" stroke="#EEEEEE" stroke-width="0.318579"/>
</svg>
