<svg width="28" height="30" viewBox="0 0 28 30" fill="none" xmlns="http://www.w3.org/2000/svg">
<path id="Vector" d="M0.437501 0.368592C0.380009 0.368483 0.323061 0.380365 0.269912 0.403557C0.216763 0.426749 0.168455 0.460797 0.127751 0.503754C0.0871493 0.54682 0.0549685 0.597931 0.0330482 0.654164C0.011128 0.710396 -0.000101782 0.770649 8.97138e-07 0.831477V29.5303C-0.000228909 29.6505 0.043699 29.766 0.122501 29.8525C0.163388 29.8971 0.212351 29.9326 0.26647 29.9568C0.320589 29.9809 0.378756 29.9933 0.437501 29.9932H27.5625C27.6219 29.9932 27.6808 29.9804 27.7354 29.9556C27.79 29.9308 27.8392 29.8944 27.8801 29.8488C27.9571 29.7628 28 29.6488 28 29.5303V0.831477C28 0.710306 27.9551 0.593973 27.8749 0.507457C27.8342 0.463498 27.7855 0.428575 27.7319 0.404731C27.6783 0.380887 27.6207 0.368601 27.5625 0.368592H0.437501ZM3.9235 1.29436H24.0765C23.7858 1.69213 23.6271 2.1802 23.625 2.68301C23.625 3.95595 24.6094 4.99744 25.8125 4.99744C26.2877 4.99521 26.749 4.82732 27.125 4.51974V25.8421C26.749 25.5345 26.2877 25.3666 25.8125 25.3644C25.2329 25.3663 24.6776 25.6108 24.2677 26.0444C23.8579 26.478 23.6268 27.0656 23.625 27.6788C23.625 28.2018 23.7974 28.6786 24.0765 29.0674H3.9235C4.21421 28.6697 4.3729 28.1816 4.375 27.6788C4.375 26.4058 3.39063 25.3644 2.1875 25.3644C1.71226 25.3666 1.25096 25.5345 0.875001 25.8421V4.51974C1.2425 4.81599 1.69313 4.99744 2.1875 4.99744C3.39063 4.99744 4.375 3.95595 4.375 2.68301C4.3729 2.1802 4.21421 1.69213 3.9235 1.29436ZM8.3125 3.60878C7.59325 3.60878 7 4.23646 7 4.99744C7 5.75842 7.59325 6.38609 8.3125 6.38609H19.6875C20.0347 6.38295 20.3668 6.23564 20.6123 5.97589C20.8578 5.71615 20.997 5.36476 21 4.99744C20.9997 4.81218 20.964 4.62891 20.895 4.45864C20.7942 4.2077 20.6261 3.99348 20.4115 3.84246C20.1969 3.69143 19.9452 3.61019 19.6875 3.60878H8.3125ZM4.382 4.52715C4.37791 4.5277 4.37383 4.52832 4.36975 4.529C4.30198 4.52928 4.2352 4.54623 4.17467 4.57849C4.11414 4.61075 4.06153 4.65744 4.02097 4.71489C3.98042 4.77234 3.95303 4.83897 3.94098 4.90953C3.92892 4.98009 3.93252 5.05265 3.9515 5.12149V6.7564C3.9515 6.87916 3.99759 6.9969 4.07964 7.08371C4.16169 7.17052 4.27297 7.21928 4.389 7.21928C4.50503 7.21928 4.61631 7.17052 4.69836 7.08371C4.78041 6.9969 4.8265 6.87916 4.8265 6.7564V6.12688L7.1435 8.56905C7.05943 8.75233 7.01518 8.9532 7.014 9.15692C7.014 9.91883 7.60638 10.5456 8.3265 10.5456C9.04575 10.5456 9.639 9.91883 9.639 9.15692C9.639 8.39594 9.04575 7.76826 8.3265 7.76826C8.12263 7.76826 7.931 7.82196 7.75863 7.91083L5.43463 5.46032H6.139C6.25503 5.46032 6.36631 5.41155 6.44836 5.32475C6.53041 5.23794 6.5765 5.1202 6.5765 4.99744C6.5765 4.87467 6.53041 4.75694 6.44836 4.67013C6.36631 4.58332 6.25503 4.53455 6.139 4.53455H4.46863C4.43977 4.52899 4.41133 4.52651 4.382 4.52715ZM23.6233 4.52715C23.6009 4.52782 23.5787 4.53029 23.5568 4.53455H21.8803C21.7642 4.53455 21.6529 4.58332 21.5709 4.67013C21.4888 4.75694 21.4428 4.87467 21.4428 4.99744C21.4428 5.1202 21.4888 5.23794 21.5709 5.32475C21.6529 5.41155 21.7642 5.46032 21.8803 5.46032H22.5846L20.258 7.90991C20.0823 7.81754 19.889 7.76878 19.6928 7.76734C18.9726 7.76734 18.3803 8.39501 18.3803 9.15599C18.3803 9.9179 18.9726 10.5446 19.6928 10.5446C20.412 10.5446 21.0053 9.9179 21.0053 9.15599C21.0053 8.94584 20.9554 8.74866 20.8749 8.56813L23.1928 6.12595V6.7564C23.1928 6.87916 23.2388 6.9969 23.3209 7.08371C23.4029 7.17052 23.5142 7.21928 23.6303 7.21928C23.7463 7.21928 23.8576 7.17052 23.9396 7.08371C24.0217 6.9969 24.0678 6.87916 24.0678 6.7564V5.11501C24.0829 5.05574 24.0867 4.99387 24.079 4.93301C24.0713 4.87216 24.0523 4.81353 24.0229 4.76055C23.9936 4.70756 23.9546 4.66127 23.9083 4.62438C23.8619 4.58749 23.809 4.56073 23.7528 4.54566C23.7107 4.53267 23.667 4.52642 23.6233 4.52715ZM8.3125 4.53455C8.56275 4.53455 8.75 4.73267 8.75 4.99744C8.75 5.26221 8.56275 5.46032 8.3125 5.46032C8.25465 5.46185 8.19712 5.45092 8.14339 5.42819C8.08966 5.40547 8.04085 5.37143 7.99993 5.32814C7.95902 5.28485 7.92684 5.23321 7.90537 5.17636C7.88389 5.11951 7.87356 5.05864 7.875 4.99744C7.87356 4.93623 7.88389 4.87536 7.90537 4.81851C7.92684 4.76166 7.95902 4.71003 7.99993 4.66674C8.04085 4.62344 8.08966 4.58941 8.14339 4.56668C8.19712 4.54396 8.25465 4.53303 8.3125 4.53455ZM19.6875 4.53455C19.9378 4.53455 20.125 4.73267 20.125 4.99744C20.1264 5.05864 20.1161 5.11951 20.0946 5.17636C20.0732 5.23321 20.041 5.28485 20.0001 5.32814C19.9592 5.37143 19.9103 5.40547 19.8566 5.42819C19.8029 5.45092 19.7453 5.46185 19.6875 5.46032C19.6297 5.46185 19.5721 5.45092 19.5184 5.42819C19.4647 5.40547 19.4159 5.37143 19.3749 5.32814C19.334 5.28485 19.3018 5.23321 19.2804 5.17636C19.2589 5.11951 19.2486 5.05864 19.25 4.99744C19.25 4.73267 19.4373 4.53455 19.6875 4.53455ZM4.375 7.77475C3.65575 7.77475 3.0625 8.40242 3.0625 9.1634V21.1984C3.0625 21.9594 3.65575 22.5871 4.375 22.5871C5.09425 22.5871 5.6875 21.9594 5.6875 21.1984V9.1634C5.6875 8.40242 5.09425 7.77475 4.375 7.77475ZM23.625 7.77475C22.9058 7.77475 22.3125 8.40242 22.3125 9.1634V21.1984C22.3125 21.9594 22.9058 22.5871 23.625 22.5871C24.3443 22.5871 24.9375 21.9594 24.9375 21.1984V9.1634C24.9375 8.40242 24.3443 7.77475 23.625 7.77475ZM8.3265 8.69311C8.57325 8.69311 8.764 8.89493 8.764 9.15599C8.764 9.41706 8.57325 9.61888 8.3265 9.61888C8.26882 9.61975 8.21156 9.60837 8.15811 9.58542C8.10465 9.56247 8.0561 9.5284 8.0153 9.48525C7.97451 9.44209 7.94232 9.39071 7.92062 9.33416C7.89893 9.2776 7.88818 9.21702 7.889 9.15599C7.889 8.89493 8.07975 8.69311 8.3265 8.69311ZM19.6928 8.69311C19.9395 8.69311 20.1303 8.89493 20.1303 9.15599C20.1303 9.41706 19.9395 9.61888 19.6928 9.61888C19.6351 9.61975 19.5778 9.60837 19.5244 9.58542C19.4709 9.56247 19.4223 9.5284 19.3816 9.48525C19.3408 9.44209 19.3086 9.39071 19.2869 9.33416C19.2652 9.2776 19.2544 9.21702 19.2553 9.15599C19.2553 8.89493 19.446 8.69311 19.6928 8.69311ZM4.375 8.70051C4.62525 8.70051 4.8125 8.89863 4.8125 9.1634C4.8125 9.42817 4.62525 9.62628 4.375 9.62628C4.31715 9.62781 4.25962 9.61688 4.20589 9.59415C4.15216 9.57143 4.10335 9.53739 4.06243 9.4941C4.02152 9.45081 3.98934 9.39917 3.96787 9.34233C3.94639 9.28548 3.93606 9.2246 3.9375 9.1634C3.93606 9.1022 3.94639 9.04132 3.96787 8.98447C3.98934 8.92762 4.02152 8.87599 4.06243 8.8327C4.10335 8.78941 4.15216 8.75537 4.20589 8.73264C4.25962 8.70992 4.31715 8.69899 4.375 8.70051ZM23.625 8.70051C23.8753 8.70051 24.0625 8.89863 24.0625 9.1634C24.0625 9.42817 23.8753 9.62628 23.625 9.62628C23.5672 9.62781 23.5096 9.61688 23.4559 9.59415C23.4022 9.57143 23.3534 9.53739 23.3124 9.4941C23.2715 9.45081 23.2393 9.39917 23.2179 9.34233C23.1964 9.28548 23.1861 9.2246 23.1875 9.1634C23.1861 9.1022 23.1964 9.04132 23.2179 8.98447C23.2393 8.92762 23.2715 8.87599 23.3124 8.8327C23.3534 8.78941 23.4022 8.75537 23.4559 8.73264C23.5096 8.70992 23.5672 8.69899 23.625 8.70051ZM14 10.0892C12.7242 10.0911 11.5012 10.6282 10.5991 11.5827C9.69698 12.5371 9.18935 13.8311 9.1875 15.1809C9.1875 17.9878 11.347 20.2726 14 20.2726C16.653 20.2726 18.8125 17.9878 18.8125 15.1809C18.8125 12.374 16.653 10.0892 14 10.0892ZM8.3125 19.8097C7.59238 19.8097 7 20.4365 7 21.1984C7 21.4141 7.0525 21.6178 7.1365 21.8001L4.8265 24.2358V23.6054C4.82721 23.5435 4.81618 23.4821 4.79408 23.4248C4.77197 23.3675 4.73922 23.3155 4.69778 23.2718C4.65634 23.2282 4.60704 23.1937 4.5528 23.1706C4.49856 23.1474 4.44049 23.136 4.382 23.137C4.26627 23.1389 4.15599 23.1893 4.0753 23.2771C3.99461 23.3649 3.9501 23.4829 3.9515 23.6054V25.232C3.93143 25.2998 3.92639 25.3716 3.93676 25.4418C3.94713 25.512 3.97263 25.5787 4.0113 25.6368C4.04996 25.6949 4.10075 25.7428 4.15972 25.7768C4.2187 25.8108 4.28427 25.8299 4.35138 25.8328C4.38791 25.8358 4.42466 25.8339 4.46075 25.8272H6.139C6.25503 25.8272 6.36631 25.7785 6.44836 25.6917C6.53041 25.6049 6.5765 25.4871 6.5765 25.3644C6.5765 25.2416 6.53041 25.1239 6.44836 25.037C6.36631 24.9502 6.25503 24.9015 6.139 24.9015H5.43375L7.75775 22.4519C7.92663 22.5352 8.11388 22.5871 8.31163 22.5871C9.03175 22.5871 9.62413 21.9603 9.62413 21.1984C9.62413 20.4365 9.03263 19.8097 8.3125 19.8097ZM19.6928 19.8171C18.9726 19.8171 18.3803 20.4439 18.3803 21.2058C18.3803 21.9668 18.9726 22.5945 19.6928 22.5945C19.8958 22.5945 20.0865 22.5398 20.258 22.4519L22.5846 24.9015H21.8803C21.7642 24.9015 21.6529 24.9502 21.5709 25.037C21.4888 25.1239 21.4428 25.2416 21.4428 25.3644C21.4428 25.4871 21.4888 25.6049 21.5709 25.6917C21.6529 25.7785 21.7642 25.8272 21.8803 25.8272H23.5375C23.6162 25.8518 23.6998 25.8524 23.7788 25.829C23.8577 25.8057 23.9289 25.7593 23.9842 25.6952C24.0395 25.6312 24.0767 25.5519 24.0914 25.4666C24.1062 25.3812 24.098 25.2932 24.0678 25.2125V23.6054C24.0685 23.5435 24.0574 23.4821 24.0353 23.4248C24.0132 23.3675 23.9805 23.3155 23.939 23.2718C23.8976 23.2282 23.8483 23.1937 23.7941 23.1706C23.7398 23.1474 23.6817 23.136 23.6233 23.137C23.5075 23.1389 23.3972 23.1893 23.3166 23.2771C23.2359 23.3649 23.1913 23.4829 23.1928 23.6054V24.2358L20.8749 21.7937C20.9554 21.6141 21.0053 21.416 21.0053 21.2058C21.0053 20.4439 20.412 19.8171 19.6928 19.8171ZM4.375 20.7355C4.62525 20.7355 4.8125 20.9336 4.8125 21.1984C4.8125 21.4632 4.62525 21.6613 4.375 21.6613C4.31715 21.6628 4.25962 21.6519 4.20589 21.6292C4.15216 21.6064 4.10335 21.5724 4.06243 21.5291C4.02152 21.4858 3.98934 21.4342 3.96787 21.3773C3.94639 21.3205 3.93606 21.2596 3.9375 21.1984C3.9375 20.9336 4.12475 20.7355 4.375 20.7355ZM8.3125 20.7355C8.55925 20.7355 8.75 20.9373 8.75 21.1984C8.75 21.4595 8.55925 21.6613 8.3125 21.6613C8.25482 21.6622 8.19756 21.6508 8.14411 21.6278C8.09065 21.6049 8.0421 21.5708 8.0013 21.5277C7.96051 21.4845 7.92832 21.4331 7.90662 21.3766C7.88493 21.32 7.87418 21.2594 7.875 21.1984C7.875 20.9373 8.06575 20.7355 8.3125 20.7355ZM23.625 20.7355C23.8753 20.7355 24.0625 20.9336 24.0625 21.1984C24.0625 21.4632 23.8753 21.6613 23.625 21.6613C23.5672 21.6628 23.5096 21.6519 23.4559 21.6292C23.4022 21.6064 23.3534 21.5724 23.3124 21.5291C23.2715 21.4858 23.2393 21.4342 23.2179 21.3773C23.1964 21.3205 23.1861 21.2596 23.1875 21.1984C23.1875 20.9336 23.3748 20.7355 23.625 20.7355ZM19.6928 20.7429C19.9395 20.7429 20.1303 20.9447 20.1303 21.2058C20.1303 21.4669 19.9395 21.6687 19.6928 21.6687C19.6351 21.6696 19.5778 21.6582 19.5244 21.6352C19.4709 21.6123 19.4223 21.5782 19.3816 21.5351C19.3408 21.4919 19.3086 21.4405 19.2869 21.384C19.2652 21.3274 19.2544 21.2668 19.2553 21.2058C19.2553 20.9447 19.446 20.7429 19.6928 20.7429ZM8.3125 23.9757C7.59325 23.9757 7 24.6034 7 25.3644C7 26.1253 7.59325 26.753 8.3125 26.753H19.6875C20.0347 26.7499 20.3668 26.6026 20.6123 26.3428C20.8578 26.0831 20.997 25.7317 21 25.3644C20.9997 25.1791 20.964 24.9958 20.895 24.8256C20.7942 24.5746 20.6261 24.3604 20.4115 24.2094C20.1969 24.0583 19.9452 23.9771 19.6875 23.9757H8.3125ZM8.3125 24.9015C8.56275 24.9015 8.75 25.0996 8.75 25.3644C8.75 25.6291 8.56275 25.8272 8.3125 25.8272C8.25465 25.8288 8.19712 25.8178 8.14339 25.7951C8.08966 25.7724 8.04085 25.7384 7.99993 25.6951C7.95902 25.6518 7.92684 25.6001 7.90537 25.5433C7.88389 25.4864 7.87356 25.4256 7.875 25.3644C7.87356 25.3032 7.88389 25.2423 7.90537 25.1854C7.92684 25.1286 7.95902 25.0769 7.99993 25.0337C8.04085 24.9904 8.08966 24.9563 8.14339 24.9336C8.19712 24.9109 8.25465 24.9 8.3125 24.9015ZM19.6875 24.9015C19.9378 24.9015 20.125 25.0996 20.125 25.3644C20.1264 25.4256 20.1161 25.4864 20.0946 25.5433C20.0732 25.6001 20.041 25.6518 20.0001 25.6951C19.9592 25.7384 19.9103 25.7724 19.8566 25.7951C19.8029 25.8178 19.7453 25.8288 19.6875 25.8272C19.6297 25.8288 19.5721 25.8178 19.5184 25.7951C19.4647 25.7724 19.4159 25.7384 19.3749 25.6951C19.334 25.6518 19.3018 25.6001 19.2804 25.5433C19.2589 25.4864 19.2486 25.4256 19.25 25.3644C19.25 25.0996 19.4373 24.9015 19.6875 24.9015Z" fill="#EEEEEE"/>
</svg>
