<svg width="23" height="25" viewBox="0 0 23 25" fill="none" xmlns="http://www.w3.org/2000/svg">
<g id="Layer 3">
<path id="Vector" d="M16.5595 6.42505H6.43946C5.65391 6.42505 5.01709 6.87238 5.01709 7.4242V8.57217C5.01709 9.12398 5.65391 9.57132 6.43946 9.57132H16.5595C17.345 9.57132 17.9818 9.12398 17.9818 8.57217V7.4242C17.9818 6.87238 17.345 6.42505 16.5595 6.42505Z" fill="#EEEEEE"/>
<path id="Vector_2" d="M5.86994 5.62077C6.05658 5.59062 6.24737 5.57494 6.43888 5.574H16.5589C16.7504 5.57494 16.9412 5.59062 17.1278 5.62077L18.7257 4.03063C18.7976 3.95835 18.8356 3.87217 18.8347 3.78403V0.425172C18.8347 0.312409 18.7709 0.204265 18.6574 0.12453C18.5439 0.0447947 18.3899 0 18.2294 0H15.8084C15.6478 0 15.4939 0.0447947 15.3804 0.12453C15.2669 0.204265 15.2031 0.312409 15.2031 0.425172V1.46259H13.3147V0.425172C13.3147 0.312409 13.2509 0.204265 13.1374 0.12453C13.0239 0.0447947 12.8699 0 12.7094 0H10.2884C10.1278 0 9.97388 0.0447947 9.86037 0.12453C9.74686 0.204265 9.68309 0.312409 9.68309 0.425172V1.46259H7.76441V0.425172C7.76441 0.312409 7.70064 0.204265 7.58713 0.12453C7.47362 0.0447947 7.31967 0 7.15915 0H4.73809C4.57757 0 4.42362 0.0447947 4.31011 0.12453C4.1966 0.204265 4.13283 0.312409 4.13283 0.425172V3.78403C4.13188 3.87217 4.16995 3.95835 4.24178 4.03063L5.86994 5.62077Z" fill="#EEEEEE"/>
<path id="Vector_3" d="M18.3852 17.2957L15.8612 10.4207H7.13332L4.60938 17.2957H18.3852Z" fill="#EEEEEE"/>
<path id="Vector_4" d="M22.3947 20.3781H21.5776C21.5776 20.3356 21.5776 20.2888 21.5776 20.2463V19.1323C21.5776 18.8715 21.4305 18.6212 21.1685 18.4363C20.9065 18.2515 20.5508 18.1471 20.1795 18.1459H2.80842C2.43705 18.1471 2.08144 18.2515 1.81941 18.4363C1.55737 18.6212 1.41026 18.8715 1.41026 19.1323V20.2463C1.41026 20.2888 1.41026 20.3356 1.41026 20.3781H0.605263C0.444737 20.3781 0.290786 20.4229 0.177278 20.5026C0.0637687 20.5824 0 20.6905 0 20.8033V24.2344C0 24.3472 0.0637687 24.4553 0.177278 24.535C0.290786 24.6148 0.444737 24.6596 0.605263 24.6596H22.3947C22.5553 24.6596 22.7092 24.6148 22.8227 24.535C22.9362 24.4553 23 24.3472 23 24.2344V20.8033C23 20.6905 22.9362 20.5824 22.8227 20.5026C22.7092 20.4229 22.5553 20.3781 22.3947 20.3781Z" fill="#EEEEEE"/>
</g>
</svg>
