<svg width="38" height="37" viewBox="0 0 38 37" fill="none" xmlns="http://www.w3.org/2000/svg">
<g id="Group 211">
<path id="Vector" d="M10.0279 35.2885L10.0609 35.5363L10.1582 35.5234L10.2207 35.4477L27.2834 14.7826L27.3885 14.6553L27.3128 14.5087L26.0548 12.0733L32.7744 3.93446C33.0394 3.61352 33.2732 3.32927 33.422 3.02844C33.5779 2.71341 33.6398 2.38477 33.5853 1.97471L33.5842 1.96674C33.5696 1.85687 33.5489 1.70063 33.4791 1.53935C33.405 1.36789 33.2806 1.20053 33.0726 1.05322L33.0723 1.053C32.6501 0.75497 32.2631 0.806475 32.0126 0.839818L32.006 0.840695C31.12 0.958519 30.6803 1.48806 30.2022 2.0676C30.2022 2.06763 30.2022 2.06766 30.2021 2.06769L23.469 10.2219L20.5714 9.73065L20.4288 9.70649L20.3368 9.81796L3.27406 30.4831L3.20465 30.5671L3.21902 30.6752L3.46684 30.6423C3.21902 30.6752 3.21904 30.6753 3.21906 30.6755L3.2191 30.6758L3.21921 30.6766L3.21949 30.6786L3.22038 30.6847L3.22355 30.7045C3.22634 30.721 3.23055 30.7442 3.23662 30.7736C3.24874 30.8322 3.26828 30.9154 3.29864 31.0191C3.35936 31.2264 3.46345 31.5159 3.6383 31.8543C3.98857 32.5322 4.62095 33.403 5.7499 34.2025C6.8784 35.0016 7.94815 35.3366 8.73955 35.4708C9.13495 35.5379 9.46072 35.5548 9.6897 35.5548C9.80422 35.5547 9.89464 35.5504 9.95759 35.546C9.98907 35.5438 10.0137 35.5415 10.031 35.5397L10.0516 35.5375L10.0576 35.5367L10.0596 35.5365L10.0603 35.5364L10.0606 35.5364C10.0608 35.5363 10.0609 35.5363 10.0279 35.2885Z" fill="#EEEEEE" stroke="#EEEEEE" stroke-width="0.5"/>
</g>
</svg>
