<svg width="29" height="29" viewBox="0 0 29 29" fill="none" xmlns="http://www.w3.org/2000/svg">
<g id="Group 207">
<path id="Vector" d="M14.5 0C6.49272 0 0 6.49265 0 14.5C0 22.5073 6.49272 29 14.5 29C22.5079 29 29 22.5072 29 14.5C29 6.49279 22.5078 0 14.5 0ZM17.3687 27.4788C16.4266 27.664 15.2546 27.7707 14.3014 27.789C13.3984 27.7761 12.4992 27.6712 11.6175 27.4758C11.4592 27.4351 11.3011 27.3938 11.1431 27.3519L9.44096 22.7904L10.8104 20.0769H18.1897L18.2294 20.1519L19.5777 22.8604L17.9312 27.3416C17.7447 27.3914 17.5572 27.4372 17.3687 27.4788ZM9.86962 2.04115L13.8726 4.78054V8.83406L8.92329 13.0214L5.47933 11.4522L5.18884 11.3198L3.63204 6.85697C5.16632 4.68169 7.33637 2.98574 9.86962 2.04115ZM25.3446 6.8364L23.7808 11.3316L20.017 13.0317L15.0577 8.83406V4.78054L19.0728 2.03286C21.6076 2.97278 23.8066 4.66461 25.3446 6.8364ZM1.26485 15.714L5.01226 12.4711L8.4657 14.0465L8.50467 14.0643L9.87924 19.4521L8.45482 22.138L3.58478 22.0742C2.30571 20.2366 1.47851 18.0626 1.26485 15.714ZM20.5453 22.1379L19.1208 19.452L20.4978 14.0552L23.9831 12.4671L27.7352 15.714C27.5215 18.0626 26.6942 20.2366 25.4154 22.0742L20.5453 22.1379Z" fill="#EEEEEE"/>
</g>
</svg>
