<svg width="32" height="31" viewBox="0 0 32 31" fill="none" xmlns="http://www.w3.org/2000/svg">
<g id="Group 207">
<path id="Vector" d="M26.9775 4.5335C20.8161 -1.51117 10.7898 -1.51117 4.62844 4.5335C1.64455 7.46087 0 11.3553 0 15.4959C0 19.6374 1.64455 23.5309 4.62943 26.4583C7.61332 29.3876 11.583 31 15.8035 31C20.024 31 23.9936 29.3876 26.9775 26.4583C29.9624 23.5309 31.6069 19.6374 31.6069 15.4959C31.6069 11.3553 29.9624 7.46087 26.9775 4.5335ZM13.0092 25.9893C10.8985 25.9893 8.91415 25.183 7.42171 23.7179C5.92927 22.2528 5.10749 20.306 5.10749 18.2362C5.10749 17.7004 5.54998 17.2672 6.0952 17.2672C6.64042 17.2672 7.08292 17.7004 7.08292 18.2362C7.08292 19.7896 7.69926 21.2489 8.81834 22.3477C9.93841 23.4466 11.4269 24.0512 13.0092 24.0512C13.5544 24.0512 13.9969 24.4844 13.9969 25.0203C13.9969 25.5561 13.5554 25.9893 13.0092 25.9893ZM13.0092 22.1103C11.9524 22.1103 10.9607 21.7082 10.216 20.9776C9.47122 20.2469 9.06033 19.2731 9.06033 18.2362C9.06033 17.7004 9.50283 17.2672 10.048 17.2672C10.5933 17.2672 11.0358 17.7004 11.0358 18.2362C11.0358 18.7556 11.2412 19.2421 11.6126 19.6074C11.984 19.9717 12.4798 20.1723 13.0092 20.1723C13.5544 20.1723 13.9969 20.6055 13.9969 21.1413C13.9969 21.6772 13.5554 22.1103 13.0092 22.1103ZM18.5967 18.2362C17.851 18.9688 16.8584 19.3719 15.8035 19.3719C14.7486 19.3719 13.7559 18.9688 13.0102 18.2362C12.2635 17.5046 11.8526 16.5308 11.8526 15.4959C11.8526 14.461 12.2635 13.4871 13.0102 12.7555C14.5027 11.2904 17.1053 11.2904 18.5967 12.7555C19.3435 13.4871 19.7543 14.461 19.7543 15.4959C19.7543 16.5308 19.3435 17.5037 18.5967 18.2362ZM21.5589 13.7236C21.0137 13.7236 20.5712 13.2895 20.5712 12.7546C20.5712 12.2361 20.3657 11.7497 19.9944 11.3844C19.622 11.02 19.1262 10.8185 18.5977 10.8185C18.0525 10.8185 17.61 10.3844 17.61 9.84947C17.61 9.31458 18.0525 8.88047 18.5977 8.88047C19.6536 8.88047 20.6463 9.28358 21.391 10.0142C22.1357 10.7448 22.5466 11.7187 22.5466 12.7546C22.5466 13.2904 22.1041 13.7236 21.5589 13.7236ZM25.5117 13.7236C24.9665 13.7236 24.524 13.2895 24.524 12.7546C24.524 11.2022 23.9077 9.74191 22.7886 8.64306C21.6685 7.54518 20.18 6.94052 18.5977 6.94052C18.0525 6.94052 17.61 6.5064 17.61 5.97151C17.61 5.43662 18.0525 5.0025 18.5977 5.0025C20.7075 5.0025 22.6918 5.80871 24.1852 7.27288C25.6777 8.73802 26.4995 10.6848 26.4995 12.7546C26.4995 13.2904 26.057 13.7236 25.5117 13.7236Z" fill="#EEEEEE"/>
</g>
</svg>
