<svg width="33" height="31" viewBox="0 0 33 31" fill="none" xmlns="http://www.w3.org/2000/svg">
<g id="Group 207">
<path id="Vector" d="M9.59386 0C9.51267 0.000176767 9.43275 0.0201222 9.36099 0.0581131C9.28924 0.096104 9.22781 0.150997 9.18203 0.218048C9.13625 0.285099 9.10748 0.36229 9.09822 0.442951C9.08895 0.523612 9.09947 0.605315 9.12886 0.681L12.0269 8.064L12.7209 9.832C12.7267 9.848 12.7334 9.86368 12.7409 9.879L14.3829 14.066L10.1229 24.914H9.32986C9.3022 24.9083 9.2741 24.905 9.24586 24.904C9.22031 24.9054 9.1949 24.9087 9.16986 24.914H7.33786C7.3102 24.9083 7.2821 24.905 7.25386 24.904C7.22831 24.9054 7.2029 24.9087 7.17786 24.914H5.29286C5.2652 24.9083 5.2371 24.905 5.20886 24.904C5.18398 24.9055 5.15925 24.9088 5.13486 24.914H2.58786C2.49168 24.9142 2.3976 24.9421 2.3169 24.9945C2.2362 25.0468 2.1723 25.1213 2.13286 25.209L0.0448631 29.822C0.0101576 29.8983 -0.00480537 29.9821 0.00134979 30.0657C0.00750495 30.1493 0.0345803 30.23 0.0800871 30.3004C0.125594 30.3708 0.188071 30.4287 0.261772 30.4686C0.335474 30.5085 0.418035 30.5293 0.501863 30.529H3.14186C3.19125 30.5364 3.24148 30.5364 3.29086 30.529H5.18686C5.23658 30.5365 5.28715 30.5365 5.33686 30.529H7.17986C7.22958 30.5365 7.28015 30.5365 7.32986 30.529H10.8269C10.9272 30.5287 11.0251 30.4982 11.1078 30.4414C11.1906 30.3847 11.2543 30.3044 11.2909 30.211L16.0059 18.201L17.8219 22.828L20.7209 30.211C20.7574 30.3046 20.8214 30.385 20.9043 30.4417C20.9873 30.4984 21.0854 30.5289 21.1859 30.529H24.6859C24.7336 30.536 24.7821 30.536 24.8299 30.529H26.6779C26.7256 30.536 26.7741 30.536 26.8219 30.529H31.5099C31.5937 30.5293 31.6763 30.5085 31.75 30.4686C31.8237 30.4287 31.8861 30.3708 31.9316 30.3004C31.9771 30.23 32.0042 30.1493 32.0104 30.0657C32.0165 29.9821 32.0016 29.8983 31.9669 29.822L29.8789 25.209C29.8394 25.1213 29.7755 25.0468 29.6948 24.9945C29.6141 24.9421 29.52 24.9142 29.4239 24.914H26.8729C26.8445 24.9082 26.8158 24.9048 26.7869 24.904C26.7633 24.9057 26.7399 24.909 26.7169 24.914H24.8299C24.8009 24.9081 24.7714 24.9047 24.7419 24.904C24.7183 24.9057 24.6949 24.909 24.6719 24.914H22.8379C22.8089 24.9081 22.7794 24.9047 22.7499 24.904C22.7263 24.9057 22.7029 24.909 22.6799 24.914H21.8889L17.6289 14.064L19.2829 9.849C19.2849 9.84469 19.2869 9.84036 19.2889 9.836H19.2909L22.2069 2.41C22.209 2.40404 22.211 2.39804 22.2129 2.392L22.8829 0.684999C22.9123 0.609315 22.9228 0.527612 22.9135 0.446951C22.9042 0.36629 22.8755 0.289099 22.8297 0.222048C22.7839 0.154997 22.7225 0.100104 22.6507 0.0621128C22.579 0.0241219 22.4991 0.00417648 22.4179 0.00399971H20.2459C20.1453 0.00358015 20.0469 0.0335136 19.9636 0.0898895C19.8803 0.146265 19.8159 0.226462 19.7789 0.32L19.1309 1.974C19.1258 1.98516 19.1211 1.9965 19.1169 2.008L16.2189 9.392L16.0059 9.933L15.7949 9.394H15.7929L12.8949 2.01C12.8889 1.99468 12.8823 1.97966 12.8749 1.965L12.2319 0.325C12.1951 0.231434 12.1309 0.151136 12.0478 0.0945854C11.9647 0.0380352 11.8664 0.00786019 11.7659 0.00799942H9.59386V0ZM10.3279 1H11.4259L11.6989 1.7L10.6089 1.715L10.3289 1H10.3279ZM20.5859 1H21.6839L21.4019 1.717L20.3109 1.699L20.5859 0.999V1ZM2.90986 25.913H4.45086L2.89086 29.529H1.27486L2.90986 25.914V25.913ZM5.53986 25.913H6.49586L4.93586 29.529H3.97886L5.53886 25.914L5.53986 25.913ZM7.58386 25.913H8.48786L6.92786 29.529H6.02286L7.58386 25.914V25.913ZM23.5239 25.913H24.4279L25.9879 29.529H25.0839L23.5239 25.914V25.913ZM25.5159 25.913H26.4729L28.0329 29.529H27.0759L25.5159 25.914V25.913ZM27.5609 25.913H29.1009L30.7359 29.529H29.1229L27.5609 25.914V25.913Z" fill="#EEEEEE"/>
</g>
</svg>
