<svg width="40" height="20" viewBox="0 0 40 20" fill="none" xmlns="http://www.w3.org/2000/svg">
<g id="Group 207">
<path id="Vector" d="M13.0522 14.0877V18.3739V18.3829L13.052 18.3829C13.0438 18.6227 12.9415 18.8496 12.7673 19.0146C12.5938 19.1789 12.3628 19.2686 12.124 19.2646H8.69952C8.68352 19.2646 8.66772 19.2638 8.65549 19.263C8.64323 19.2638 8.62744 19.2646 8.61143 19.2646H5.18431C4.67168 19.2646 4.31932 18.857 4.31932 18.3739V13.2116H1.63414H1.63181L1.63181 13.2116C1.39245 13.2094 1.16369 13.1125 0.995645 12.9421M13.0522 14.0877L0.995645 12.9421C0.995645 12.9421 0.995645 12.9421 0.995645 12.9421M13.0522 14.0877H27.3367V18.3739H27.3365L27.3368 18.3829C27.345 18.6226 27.4472 18.8494 27.6213 19.0144C27.7947 19.1788 28.0256 19.2686 28.2644 19.2646H31.6892C31.7051 19.2646 31.7209 19.2638 31.7332 19.263C31.7454 19.2638 31.7612 19.2646 31.7772 19.2646H35.2044C35.7168 19.2646 36.0695 18.8571 36.0695 18.3739V13.2116L13.0522 14.0877ZM0.995645 12.9421C0.827789 12.7718 0.734194 12.542 0.735304 12.3029M0.995645 12.9421L38.7547 12.9469C38.924 12.9454 39.0858 12.8768 39.2047 12.7562C39.3235 12.6357 39.3898 12.4729 39.3888 12.3036H39.6535V12.3029C39.6535 12.3026 39.6535 12.3024 39.6535 12.3021L39.6535 6.76729C39.6535 6.28834 39.2712 5.8327 38.7547 5.8327H36.0695V1.62614C36.0695 1.14287 35.7168 0.735426 35.2044 0.735426H31.7772C31.7612 0.735426 31.7454 0.736213 31.7332 0.736996C31.7209 0.736212 31.7051 0.735426 31.6892 0.735426H28.2644C28.0256 0.731451 27.7947 0.821229 27.6213 0.985565C27.4472 1.15055 27.345 1.37743 27.3368 1.61715L27.3367 1.61714V1.62614V4.9566H13.0522V1.62614H13.0523L13.052 1.61706C13.0438 1.37728 12.9415 1.15037 12.7673 0.985399C12.5938 0.821091 12.3628 0.731374 12.124 0.735426H8.69952C8.68352 0.735426 8.66772 0.736213 8.65549 0.736995C8.64323 0.736212 8.62744 0.735426 8.61143 0.735426H5.18431C4.67168 0.735426 4.31932 1.14299 4.31932 1.62614V5.8327H1.63414C1.1176 5.8327 0.735304 6.28834 0.735304 6.76729V12.3029M0.735304 12.3029C0.735305 12.3026 0.735306 12.3024 0.735308 12.3021L1.00001 12.3036H0.735304V12.3029ZM11.4462 13.2959L11.1993 13.3913C11.2122 13.4247 11.2287 13.4565 11.2484 13.4861V17.4608H9.62743V2.53916H11.2484V5.58481C11.2287 5.61442 11.2122 5.6462 11.1993 5.67964L11.4462 5.77502L11.1993 5.67965C11.1717 5.75114 11.1613 5.82802 11.1688 5.90409V13.1669C11.1613 13.2429 11.1717 13.3198 11.1993 13.3913L11.4462 13.2959ZM2.53903 11.4078V7.63643H4.31932V11.4078H2.53903ZM7.74405 17.4608H6.12305V2.53916H7.74405V17.4608ZM27.3367 12.2839H13.0522V6.76033H27.3367V12.2839ZM30.7614 17.4608H29.1404V2.53916H30.7614V17.4608ZM34.2658 17.4608H32.6448V2.53916H34.2658V17.4608ZM37.8498 11.4078H36.0695V7.63643H37.8498V11.4078Z" fill="#EEEEEE" stroke="#EEEEEE" stroke-width="0.529412"/>
</g>
</svg>
