<svg width="32" height="30" viewBox="0 0 32 30" fill="none" xmlns="http://www.w3.org/2000/svg">
<g id="Group 207">
<g id="Layer 2">
<path id="Vector" d="M12.0913 15.7614C12.08 15.8316 12.0541 15.899 12.0148 15.9597C11.9756 16.0204 11.9239 16.0732 11.8627 16.115C11.8029 16.1572 11.7346 16.1876 11.6619 16.2042C11.5892 16.2208 11.5136 16.2232 11.4398 16.2114C11.2916 16.1897 11.1572 16.1171 11.0627 16.0078C11.0182 15.9515 10.9862 15.8874 10.9685 15.8194C10.9508 15.7513 10.9479 15.6806 10.9598 15.6114C10.9698 15.5408 10.9952 15.473 11.0345 15.4121C11.0739 15.3513 11.1263 15.2987 11.1884 15.2578C11.2821 15.1868 11.3994 15.1489 11.5198 15.1507H11.6113C11.76 15.1744 11.8932 15.2513 11.9827 15.3652C12.0722 15.4791 12.1112 15.6211 12.0913 15.7614ZM12.5713 13.115C12.56 13.1852 12.5341 13.2526 12.4948 13.3132C12.4556 13.3739 12.4039 13.4267 12.3427 13.4685C12.2829 13.5108 12.2146 13.5412 12.1419 13.5577C12.0692 13.5743 11.9936 13.5768 11.9198 13.565C11.7711 13.5412 11.6379 13.4643 11.5484 13.3504C11.4588 13.2365 11.4199 13.0945 11.4398 12.9542C11.4543 12.8264 11.5203 12.7086 11.6244 12.6249C11.7285 12.5412 11.8629 12.4981 11.9998 12.5042H12.0913C12.24 12.528 12.3732 12.6049 12.4627 12.7188C12.5522 12.8327 12.5912 12.9747 12.5713 13.115Z" fill="#EEEEEE"/>
<path id="Vector_2" d="M16.7544 12.6316C16.5005 12.0445 16.1241 11.5107 15.6472 11.0618C15.1703 10.6129 14.6025 10.2578 13.9772 10.0174C13.3546 9.77335 12.6864 9.64771 12.0115 9.64771C11.3366 9.64771 10.6685 9.77335 10.0458 10.0174C9.26227 10.3178 8.56998 10.795 8.03036 11.4065C7.49074 12.018 7.12048 12.7449 6.95244 13.5228C6.7844 14.3006 6.82377 15.1054 7.06707 15.8655C7.31037 16.6257 7.75006 17.3178 8.34713 17.8804C8.94421 18.443 9.68019 18.8588 10.4898 19.0907C11.2994 19.3227 12.1575 19.3637 12.9881 19.2102C13.8186 19.0566 14.5959 18.7132 15.2509 18.2104C15.9059 17.7077 16.4184 17.0611 16.7429 16.3281C17.0061 15.7337 17.142 15.0966 17.1429 14.4531C17.1445 13.8277 17.0124 13.2084 16.7544 12.6316ZM14.2058 13.3495C14.1317 13.8341 13.8765 14.2783 13.4858 14.6031C13.6854 14.9271 13.791 15.2945 13.7921 15.6686C13.7932 16.0428 13.6898 16.4107 13.4922 16.7358C13.2945 17.0608 13.0095 17.3317 12.6656 17.5215C12.3216 17.7112 11.9306 17.8132 11.5315 17.8173H11.1887C10.8913 17.7755 10.6057 17.679 10.3482 17.5335C10.0907 17.388 9.86636 17.1963 9.68801 16.9694C9.50966 16.7425 9.38081 16.4848 9.30885 16.2111C9.23689 15.9374 9.22324 15.6531 9.26866 15.3745C9.34377 14.8902 9.59874 14.4463 9.98866 14.1209C9.71426 13.7051 9.605 13.2119 9.68009 12.7281C9.76951 12.1597 10.0961 11.648 10.588 11.3054C11.0798 10.9628 11.6967 10.8175 12.3029 10.9013C12.9092 10.9851 13.455 11.2913 13.8204 11.7524C14.1859 12.2135 14.3409 12.7919 14.2515 13.3602L14.2058 13.3495Z" fill="#EEEEEE"/>
<path id="Vector_3" d="M16 0C12.8355 0 9.74207 0.879735 7.11088 2.52796C4.4797 4.17618 2.42894 6.51886 1.21793 9.25975C0.00693262 12.0006 -0.309921 15.0166 0.307443 17.9264C0.924806 20.8361 2.44866 23.5088 4.6863 25.6066C6.92394 27.7044 9.77487 29.133 12.8786 29.7118C15.9823 30.2906 19.1993 29.9935 22.1229 28.8582C25.0466 27.7229 27.5454 25.8003 29.3035 23.3336C31.0616 20.8668 32 17.9667 32 15C32 11.0218 30.3143 7.20644 27.3137 4.3934C24.3131 1.58035 20.2435 0 16 0ZM18.8572 17.1429C18.2906 18.4104 17.3378 19.493 16.1181 20.2553C14.8984 21.0177 13.4659 21.4258 12 21.4286C10.4057 21.4286 8.8536 20.9477 7.57325 20.057C6.2929 19.1663 5.3522 17.913 4.89018 16.4824C4.42816 15.0519 4.46935 13.5199 5.00765 12.1129C5.54594 10.706 6.55279 9.49876 7.87938 8.66965C9.20596 7.84054 10.7819 7.43355 12.3742 7.50884C13.9665 7.58414 15.4908 8.13771 16.7216 9.08776C17.9525 10.0378 18.8247 11.3339 19.2092 12.7845C19.5938 14.235 19.4704 15.7631 18.8572 17.1429Z" fill="#EEEEEE"/>
<path id="Vector_4" d="M16 0C12.8355 0 9.74207 0.879735 7.11088 2.52796C4.4797 4.17618 2.42894 6.51886 1.21793 9.25975C0.00693262 12.0006 -0.309921 15.0166 0.307443 17.9264C0.924806 20.8361 2.44866 23.5088 4.6863 25.6066C6.92394 27.7044 9.77487 29.133 12.8786 29.7118C15.9823 30.2906 19.1993 29.9935 22.1229 28.8582C25.0466 27.7229 27.5454 25.8003 29.3035 23.3336C31.0616 20.8668 32 17.9667 32 15C32 11.0218 30.3143 7.20644 27.3137 4.3934C24.3131 1.58035 20.2435 0 16 0ZM18.8572 17.1429C18.2906 18.4104 17.3378 19.493 16.1181 20.2553C14.8984 21.0177 13.4659 21.4258 12 21.4286C10.4057 21.4286 8.8536 20.9477 7.57325 20.057C6.2929 19.1663 5.3522 17.913 4.89018 16.4824C4.42816 15.0519 4.46935 13.5199 5.00765 12.1129C5.54594 10.706 6.55279 9.49876 7.87938 8.66965C9.20596 7.84054 10.7819 7.43355 12.3742 7.50884C13.9665 7.58414 15.4908 8.13771 16.7216 9.08776C17.9525 10.0378 18.8247 11.3339 19.2092 12.7845C19.5938 14.235 19.4704 15.7631 18.8572 17.1429Z" fill="#EEEEEE"/>
</g>
</g>
</svg>
