<svg width="19" height="34" viewBox="0 0 19 34" fill="none" xmlns="http://www.w3.org/2000/svg">
<mask id="path-1-outside-1_2695_447" maskUnits="userSpaceOnUse" x="0" y="-0.0375977" width="19" height="34" fill="black">
<rect fill="white" y="-0.0375977" width="19" height="34"/>
<path d="M9.21498 0.967603C9.21498 0.966756 9.21431 0.966061 9.21346 0.966034C8.73978 0.950669 8.26577 0.984092 7.79898 1.0657C5.01898 1.54568 2.62398 3.67671 1.88898 6.64621L1.37298 8.72948C0.74698 11.2538 0.93098 13.7323 1.75998 15.7249C1.89817 16.0566 2.06008 16.3686 2.23491 16.6726C2.23676 16.6758 2.23645 16.6798 2.23413 16.6827C2.23166 16.6858 2.23152 16.6902 2.23372 16.6935C4.10376 19.474 3.82465 22.3036 3.41337 24.2496C3.33411 24.6246 3.06379 24.9234 2.83126 25.2281C2.70942 25.3878 2.62123 25.5703 2.57198 25.7647L1.33198 30.7736C1.13498 31.5683 1.63198 32.3859 2.42998 32.582L3.27498 32.7881C3.6609 32.8812 4.06812 32.8188 4.40803 32.6144C4.74794 32.41 4.99304 32.0802 5.08998 31.6967L6.33198 26.6878C6.51478 25.9451 6.23312 25.1137 6.46869 24.386C7.06428 22.5461 8.19905 20.2551 10.87 18.8126C10.8728 18.8111 10.8741 18.8077 10.8729 18.8048C10.8718 18.802 10.8728 18.7988 10.8753 18.7972C11.1718 18.6088 11.4623 18.4075 11.741 18.1776C13.405 16.7974 14.726 14.6863 15.351 12.1619L15.867 10.0807C16.848 6.12239 14.524 2.11724 10.66 1.16823C10.1871 1.05196 9.70331 0.985272 9.2165 0.969172C9.21565 0.969144 9.21498 0.96845 9.21498 0.967603ZM9.17798 1.95794C9.25637 1.96109 9.33516 1.96603 9.41416 1.97257C9.69175 1.99555 9.87034 2.26782 9.80325 2.53816C9.7401 2.79259 9.48291 2.94789 9.22834 2.88531L8.92094 2.80975C8.68539 2.75185 8.54173 2.51356 8.6005 2.27822C8.64666 2.09336 8.80704 1.95777 8.99757 1.95636C9.0577 1.95591 9.11785 1.95644 9.17798 1.95794ZM7.39761 2.18372C7.49309 2.15854 7.57906 2.24571 7.55488 2.34145C7.53721 2.41141 7.46649 2.45408 7.39636 2.4371L7.38869 2.43525C7.25401 2.40264 7.2471 2.22376 7.38101 2.18811C7.38654 2.18664 7.39207 2.18518 7.39761 2.18372ZM10.7764 2.77713C10.843 2.50782 11.126 2.35088 11.3807 2.46084C11.5086 2.51606 11.6338 2.57551 11.7563 2.63903C11.9272 2.7277 12.0082 2.9244 11.9618 3.11127C11.9039 3.3445 11.6681 3.48685 11.4347 3.42948L11.1246 3.35324C10.8692 3.29047 10.7132 3.03239 10.7764 2.77713ZM5.96542 3.63412C6.03316 3.36154 6.30872 3.19521 6.58147 3.26225L6.78788 3.31299C7.06123 3.38018 7.22822 3.65639 7.16072 3.92966C7.09342 4.20211 6.81839 4.36877 6.54572 4.30232L6.33921 4.25199C6.06496 4.18514 5.89733 3.90806 5.96542 3.63412ZM12.8629 3.63959C12.8872 3.54199 13.0058 3.50448 13.08 3.57244C13.0844 3.5765 13.0889 3.58058 13.0933 3.58466C13.197 3.68019 13.1062 3.83866 12.9692 3.80525L12.9619 3.80346C12.8891 3.78572 12.8447 3.71221 12.8629 3.63959ZM4.72853 3.6861C4.80451 3.61479 4.92116 3.68811 4.89624 3.78928C4.88237 3.84559 4.82534 3.88057 4.76903 3.8667C4.68958 3.84713 4.6623 3.74844 4.72189 3.69235C4.7241 3.69026 4.72632 3.68818 4.72853 3.6861ZM8.13203 4.16746C8.19939 3.89363 8.47591 3.72619 8.74978 3.7934L8.95363 3.84343C9.22811 3.91078 9.39573 4.18821 9.32769 4.46252C9.25988 4.73594 8.98353 4.90285 8.70997 4.83562L8.50613 4.78552C8.23213 4.71819 8.06463 4.44145 8.13203 4.16746ZM10.3013 4.69891C10.3691 4.4267 10.6444 4.26064 10.9168 4.32761L11.1232 4.37834C11.3968 4.44559 11.5637 4.72227 11.4956 4.99564C11.4278 5.26787 11.1526 5.43393 10.8801 5.36695L10.6738 5.31621C10.4002 5.24894 10.2333 4.97227 10.3013 4.69891ZM3.7063 4.93258C3.80779 4.77269 4.00209 4.70156 4.18589 4.7472C4.43176 4.80825 4.58166 5.05697 4.5208 5.30289L4.50251 5.37679C4.43866 5.63477 4.17806 5.7924 3.91993 5.72919C3.62224 5.6563 3.46679 5.32701 3.62481 5.06441C3.65149 5.02007 3.67866 4.97612 3.7063 4.93258ZM12.4688 5.22997C12.5363 4.95766 12.8115 4.79141 13.084 4.85831L13.2922 4.90944C13.5653 4.97651 13.7323 5.25251 13.6648 5.52558C13.5975 5.79812 13.3222 5.96465 13.0495 5.89773L12.8413 5.84663C12.568 5.77952 12.401 5.50319 12.4688 5.22997ZM5.47933 5.58677C5.54658 5.31532 5.82074 5.14942 6.09241 5.2158L6.30441 5.2676C6.57731 5.33428 6.74416 5.60994 6.67666 5.88265C6.60942 6.15435 6.33492 6.32033 6.06308 6.25369L5.85111 6.20173C5.57841 6.13488 5.4118 5.8593 5.47933 5.58677ZM7.64726 6.11976C7.71452 5.8477 7.98936 5.68147 8.26154 5.74822L8.47254 5.79997C8.74544 5.8669 8.91218 6.14266 8.84467 6.41541C8.7774 6.68719 8.50293 6.85331 8.23096 6.78685L8.01991 6.73529C7.74679 6.66855 7.57978 6.3927 7.64726 6.11976ZM14.5397 6.15207C14.565 6.04872 14.7052 6.03765 14.7398 6.1383C14.7408 6.1414 14.7419 6.1445 14.7429 6.1476C14.7697 6.22612 14.6988 6.30172 14.6182 6.28215C14.5607 6.26819 14.5256 6.20955 14.5397 6.15207ZM9.81645 6.65027C9.88419 6.37879 10.1587 6.21323 10.4304 6.27998L10.6409 6.33168C10.9136 6.39867 11.0802 6.6743 11.0127 6.94692C10.9455 7.2188 10.6708 7.38488 10.3988 7.31817L10.1883 7.26656C9.91506 7.19955 9.74834 6.92322 9.81645 6.65027ZM2.85898 6.88021C2.91037 6.67552 3.13643 6.56218 3.34136 6.6126L3.65138 6.68887C3.92446 6.75606 4.09127 7.03202 4.02383 7.30504C3.95651 7.5776 3.68116 7.74414 3.4085 7.67721L3.30426 7.65163C2.9734 7.57042 2.77117 7.23619 2.85276 6.90542L2.85898 6.88021ZM11.9845 7.18306C12.0522 6.91158 12.3267 6.746 12.5985 6.81272L12.8083 6.86425C13.0813 6.93128 13.2479 7.20727 13.1801 7.48006C13.1126 7.75175 12.838 7.91759 12.5661 7.85088L12.3563 7.7994C12.083 7.73236 11.9163 7.45602 11.9845 7.18306ZM4.9953 7.54164C5.06256 7.27016 5.33679 7.10426 5.60848 7.1707L5.81953 7.22231C6.09238 7.28903 6.25917 7.56467 6.19168 7.83733C6.12443 8.10907 5.84988 8.27506 5.578 8.20836L5.36699 8.15658C5.09434 8.08969 4.92779 7.81414 4.9953 7.54164ZM14.1609 7.67635C14.2228 7.42589 14.4761 7.27307 14.7265 7.33511C14.9136 7.38147 15.0546 7.53798 15.0698 7.73018C15.0735 7.77682 15.0767 7.82358 15.0794 7.87046C15.0972 8.17921 14.8043 8.40047 14.5039 8.32688C14.2418 8.26267 14.0815 7.99785 14.1462 7.73582L14.1609 7.67635ZM7.16324 8.07463C7.23051 7.80254 7.5054 7.63631 7.77761 7.70312L7.98766 7.75468C8.26051 7.82165 8.42719 8.09738 8.35969 8.3701C8.29242 8.64191 8.01788 8.80803 7.74589 8.74152L7.53579 8.69014C7.26272 8.62336 7.09577 8.34754 7.16324 8.07463ZM9.33235 8.60595C9.40013 8.3335 9.67558 8.16727 9.94822 8.23427L10.1549 8.28507C10.4282 8.35225 10.5953 8.62842 10.5278 8.90171C10.4605 9.17458 10.1849 9.34135 9.91192 9.27435L9.70523 9.22362C9.43141 9.15641 9.26428 8.87955 9.33235 8.60595ZM2.34398 8.96348C2.41082 8.69174 2.68522 8.52557 2.957 8.59225L3.16723 8.64383C3.44035 8.71084 3.60726 8.98676 3.53983 9.25978C3.47252 9.53232 3.19713 9.69879 2.92452 9.63173L2.73581 9.5853C2.45876 9.51715 2.27451 9.2402 2.34398 8.96348ZM11.5004 9.13712C11.5681 8.86496 11.8433 8.69893 12.1157 8.76589L12.3233 8.81693C12.5964 8.88408 12.7633 9.16006 12.6958 9.43311C12.6285 9.70564 12.3532 9.87217 12.0806 9.80528L11.8729 9.75434C11.5993 9.6872 11.4323 9.41052 11.5004 9.13712ZM4.51116 9.49547C4.57847 9.22296 4.85376 9.05645 5.12637 9.12336L5.33516 9.17461C5.60832 9.24165 5.77525 9.51764 5.70779 9.7907C5.64049 10.0632 5.36523 10.2297 5.09265 10.1628L4.88386 10.1116C4.61067 10.0446 4.44371 9.76856 4.51116 9.49547ZM13.6672 9.67054C13.7345 9.3981 14.0096 9.23155 14.2822 9.29827L14.6022 9.37659C14.8076 9.42686 14.9475 9.63171 14.896 9.83675L14.8898 9.86191C14.8081 10.1919 14.4747 10.3935 14.1445 10.3125L14.0399 10.2868C13.7667 10.2197 13.5997 9.94369 13.6672 9.67054ZM6.68045 10.0275C6.7482 9.75575 7.02293 9.58989 7.29498 9.65653L7.50296 9.70748C7.7762 9.77441 7.94323 10.0504 7.87577 10.3235C7.80848 10.596 7.53324 10.7625 7.26068 10.6956L7.05273 10.6445C6.77922 10.5774 6.61233 10.3008 6.68045 10.0275ZM8.8484 10.5605C8.91615 10.2882 9.1915 10.122 9.46403 10.189L9.67105 10.2399C9.9443 10.307 10.1112 10.5831 10.0438 10.8563C9.97647 11.1288 9.70126 11.2954 9.42859 11.2287L9.22151 11.1781C8.9476 11.1111 8.78031 10.8342 8.8484 10.5605ZM2.0261 11.0547C2.0464 10.7372 2.35415 10.5161 2.66318 10.5919L2.68272 10.5967C2.95603 10.6636 3.12297 10.9399 3.05522 11.213C2.98768 11.4853 2.71235 11.6514 2.43994 11.5843L2.41948 11.5792C2.17892 11.5199 2.0103 11.3019 2.0261 11.0547ZM11.016 11.091C11.084 10.8187 11.3594 10.6527 11.6319 10.7197L11.8389 10.7706C12.1123 10.8379 12.2793 11.114 12.2118 11.3873C12.1445 11.6602 11.8689 11.8269 11.596 11.76L11.3889 11.7093C11.1148 11.6421 10.9476 11.3648 11.016 11.091ZM4.02683 11.4485C4.09435 11.1769 4.36896 11.011 4.64083 11.0778L4.85128 11.1294C5.12426 11.1964 5.29092 11.4724 5.22313 11.7452C5.15561 12.0169 4.881 12.1827 4.60913 12.116L4.39868 12.0643C4.12569 11.9973 3.95904 11.7213 4.02683 11.4485ZM13.1832 11.6254C13.2505 11.3529 13.5257 11.1864 13.7983 11.2532L14.0095 11.3049C14.2823 11.3717 14.4488 11.6475 14.381 11.92C14.3117 12.1961 14.0225 12.3563 13.7462 12.2884L13.5559 12.2416C13.2826 12.1745 13.1157 11.8985 13.1832 11.6254ZM6.19627 11.9821C6.26354 11.7105 6.53786 11.5446 6.8096 11.6111L7.01911 11.6624C7.29213 11.7292 7.45889 12.0052 7.3911 12.2779C7.3236 12.5496 7.04904 12.7153 6.77726 12.6485L6.5678 12.597C6.29522 12.53 6.12877 12.2545 6.19627 11.9821ZM8.36339 12.5129C8.43116 12.2407 8.70632 12.0747 8.97868 12.1416L9.18664 12.1927C9.46003 12.2598 9.62696 12.5362 9.55919 12.8094C9.49164 13.0817 9.21645 13.248 8.94396 13.1812L8.73599 13.1302C8.46233 13.063 8.2953 12.7863 8.36339 12.5129ZM2.07381 12.9026C2.05189 12.7107 2.22986 12.5602 2.4174 12.6066C2.56959 12.6443 2.66244 12.7982 2.62477 12.9504L2.48928 13.4978C2.46694 13.588 2.37619 13.6435 2.28571 13.6222C2.22023 13.6069 2.1699 13.5543 2.15831 13.488C2.12437 13.2939 2.09619 13.0985 2.07381 12.9026ZM10.5314 13.0462C10.5991 12.7738 10.8746 12.6075 11.1472 12.6745L11.3542 12.7253C11.6279 12.7925 11.795 13.069 11.7272 13.3425C11.6597 13.6152 11.3841 13.7817 11.1113 13.7147L10.9043 13.6639C10.6304 13.5967 10.4633 13.3198 10.5314 13.0462ZM3.54216 13.405C3.60947 13.1325 3.88474 12.966 4.15732 13.0329L4.36618 13.0842C4.63933 13.1512 4.80625 13.4272 4.7388 13.7002C4.67149 13.9727 4.39622 14.1392 4.12364 14.0723L3.91478 14.0211C3.64163 13.954 3.47471 13.678 3.54216 13.405ZM12.6982 13.58C12.7655 13.3076 13.0406 13.1411 13.3131 13.2079L13.3319 13.2125C13.6422 13.2885 13.8136 13.6282 13.6839 13.9202C13.5834 14.1465 13.3335 14.2602 13.093 14.2014L13.0712 14.1961C12.7979 14.1292 12.6308 13.8531 12.6982 13.58ZM5.71212 13.9379C5.77944 13.6654 6.05482 13.4989 6.32745 13.5659L6.53434 13.6167C6.80743 13.6838 6.97428 13.9598 6.90684 14.2328C6.83952 14.5054 6.5641 14.6719 6.29144 14.6049L6.08456 14.554C5.8115 14.4869 5.64468 14.2109 5.71212 13.9379ZM7.87943 14.4684C7.94718 14.1969 8.22178 14.0313 8.49352 14.0981L8.70301 14.1496C8.9757 14.2167 9.14223 14.4923 9.07477 14.7649C9.00747 15.0368 8.73272 15.2029 8.46068 15.1361L8.25117 15.0847C7.97799 15.0176 7.81133 14.7413 7.87943 14.4684ZM10.0462 15.0015C10.1135 14.7289 10.3888 14.5622 10.6616 14.6289L10.8709 14.6802C11.145 14.7472 11.3123 15.0245 11.2439 15.2982C11.1759 15.5701 10.9011 15.7359 10.6289 15.6693L10.4196 15.6181C10.146 15.5512 9.97875 15.2749 10.0462 15.0015ZM3.05785 15.358C3.12536 15.0864 3.39992 14.9206 3.67177 14.9873L3.88275 15.039C4.15554 15.106 4.32221 15.3816 4.25473 15.6543C4.18745 15.9262 3.91277 16.0922 3.64076 16.0255L3.42977 15.9738C3.15675 15.9068 2.99005 15.6308 3.05785 15.358ZM12.336 15.0437C12.336 15.0428 12.3368 15.0421 12.3377 15.0423L12.6513 15.119C12.8207 15.1603 12.8993 15.3556 12.8008 15.4995C12.6819 15.6731 12.5576 15.843 12.4278 16.0088C12.3873 16.0606 12.3201 16.0834 12.2562 16.0679C12.1651 16.0458 12.1094 15.9537 12.1321 15.8627L12.3359 15.044C12.336 15.0439 12.336 15.0438 12.336 15.0437ZM5.22781 15.891C5.29533 15.6193 5.57001 15.4535 5.84189 15.5203L6.051 15.5717C6.32369 15.6387 6.49023 15.9143 6.42277 16.1869C6.35547 16.4588 6.08072 16.6248 5.80869 16.558L5.59957 16.5067C5.32664 16.4397 5.16003 16.1637 5.22781 15.891ZM7.3944 16.4223C7.46216 16.1502 7.73727 15.9842 8.00959 16.0511L8.2182 16.1024C8.49136 16.1695 8.65825 16.4455 8.5908 16.7185C8.52349 16.991 8.24822 17.1576 7.97561 17.0907L7.76698 17.0395C7.49333 16.9724 7.32631 16.6957 7.3944 16.4223ZM9.56121 16.9559C9.6285 16.6834 9.90363 16.5169 10.1762 16.5836L10.3867 16.6351C10.6604 16.7021 10.8276 16.9789 10.7595 17.2524C10.6918 17.5245 10.4168 17.6905 10.1445 17.6237L9.93402 17.5721C9.66075 17.5051 9.49374 17.229 9.56121 16.9559ZM3.80193 17.1725C3.77139 17.1398 3.8012 17.0909 3.84467 17.1015L3.84922 17.1026C3.87286 17.1084 3.88737 17.1323 3.88166 17.1559C3.87333 17.1905 3.8293 17.2019 3.80502 17.1758C3.80399 17.1747 3.80296 17.1736 3.80193 17.1725ZM4.76845 17.7413C4.82179 17.5262 5.0392 17.3949 5.2544 17.4479L5.60858 17.5349C5.85776 17.5962 6.00992 17.8481 5.94823 18.0971C5.88188 18.365 5.59651 18.5177 5.34934 18.3949C5.20501 18.3232 5.06447 18.244 4.92832 18.1577C4.78957 18.0697 4.72891 17.9008 4.76845 17.7413ZM7.03298 17.8886C7.03298 17.8867 7.03473 17.8853 7.03653 17.8858L7.83757 18.0826C8.05306 18.1356 8.18462 18.3534 8.13121 18.5688C8.0918 18.7277 7.95985 18.8483 7.79668 18.862C7.72819 18.8677 7.6596 18.872 7.59097 18.8748C7.16772 18.8921 6.886 18.4799 6.98824 18.0688L7.03289 17.8892C7.03295 17.889 7.03298 17.8888 7.03298 17.8886ZM9.18842 18.4593C9.19426 18.4362 9.21765 18.4221 9.24081 18.4278L9.24695 18.4293C9.29022 18.4398 9.29369 18.4962 9.25153 18.5105C9.24986 18.5111 9.24819 18.5117 9.24652 18.5123C9.21327 18.5236 9.1798 18.4934 9.18842 18.4593ZM4.57259 19.9565C4.5158 19.6054 4.92388 19.3021 5.25191 19.4397C5.43724 19.5175 5.54884 19.7165 5.50047 19.9116L4.43898 24.1923C4.66507 23.0219 4.83174 21.5591 4.57259 19.9565ZM6.47216 20.1466C6.52023 19.9529 6.70976 19.8293 6.90866 19.8461C7.26267 19.8761 7.4828 20.334 7.26917 20.6178C6.28736 21.9225 5.75215 23.2997 5.40598 24.4432L6.47216 20.1466ZM14.18 21.6012C13.1964 21.6028 12.2536 21.9925 11.558 22.685C10.8624 23.3775 10.4708 24.3163 10.469 25.2957C10.4714 26.2748 10.863 27.2131 11.5582 27.9054C12.2535 28.5978 13.1958 28.9877 14.179 28.9901C15.1626 28.9883 16.1055 28.5985 16.8014 27.9062C17.4972 27.2138 17.8893 26.2752 17.892 25.2957C17.8896 24.3163 17.4977 23.3776 16.802 22.6852C16.1063 21.9929 15.1635 21.603 14.18 21.6012ZM3.94744 25.6203C3.9478 25.6203 3.94816 25.6202 3.94851 25.6202C4.01503 25.6087 4.08334 25.6129 4.14798 25.6323L4.99398 25.8383C5.05848 25.8526 5.11939 25.8798 5.17304 25.9182C5.22669 25.9566 5.27195 26.0054 5.30607 26.0618C5.3402 26.1181 5.36249 26.1808 5.37158 26.2459C5.38068 26.3111 5.37639 26.3773 5.35898 26.4408L4.11898 31.4497C4.10466 31.514 4.0774 31.5746 4.03884 31.6281C4.00028 31.6815 3.95123 31.7266 3.89466 31.7606C3.8381 31.7945 3.77519 31.8168 3.70975 31.8258C3.64431 31.8349 3.57771 31.8305 3.51398 31.8132L2.66798 31.6071C2.60337 31.5929 2.54235 31.5656 2.48862 31.5272C2.43489 31.4887 2.38958 31.4398 2.35544 31.3834C2.3213 31.3269 2.29904 31.2641 2.29003 31.1988C2.28101 31.1336 2.28541 31.0671 2.30298 31.0036L3.54298 25.9947C3.56476 25.8991 3.61495 25.8123 3.68701 25.7455C3.75896 25.6788 3.84938 25.6352 3.94652 25.6203C3.94682 25.6203 3.94713 25.6203 3.94744 25.6203Z"/>
</mask>
<path d="M9.21498 0.967603C9.21498 0.966756 9.21431 0.966061 9.21346 0.966034C8.73978 0.950669 8.26577 0.984092 7.79898 1.0657C5.01898 1.54568 2.62398 3.67671 1.88898 6.64621L1.37298 8.72948C0.74698 11.2538 0.93098 13.7323 1.75998 15.7249C1.89817 16.0566 2.06008 16.3686 2.23491 16.6726C2.23676 16.6758 2.23645 16.6798 2.23413 16.6827C2.23166 16.6858 2.23152 16.6902 2.23372 16.6935C4.10376 19.474 3.82465 22.3036 3.41337 24.2496C3.33411 24.6246 3.06379 24.9234 2.83126 25.2281C2.70942 25.3878 2.62123 25.5703 2.57198 25.7647L1.33198 30.7736C1.13498 31.5683 1.63198 32.3859 2.42998 32.582L3.27498 32.7881C3.6609 32.8812 4.06812 32.8188 4.40803 32.6144C4.74794 32.41 4.99304 32.0802 5.08998 31.6967L6.33198 26.6878C6.51478 25.9451 6.23312 25.1137 6.46869 24.386C7.06428 22.5461 8.19905 20.2551 10.87 18.8126C10.8728 18.8111 10.8741 18.8077 10.8729 18.8048C10.8718 18.802 10.8728 18.7988 10.8753 18.7972C11.1718 18.6088 11.4623 18.4075 11.741 18.1776C13.405 16.7974 14.726 14.6863 15.351 12.1619L15.867 10.0807C16.848 6.12239 14.524 2.11724 10.66 1.16823C10.1871 1.05196 9.70331 0.985272 9.2165 0.969172C9.21565 0.969144 9.21498 0.96845 9.21498 0.967603ZM9.17798 1.95794C9.25637 1.96109 9.33516 1.96603 9.41416 1.97257C9.69175 1.99555 9.87034 2.26782 9.80325 2.53816C9.7401 2.79259 9.48291 2.94789 9.22834 2.88531L8.92094 2.80975C8.68539 2.75185 8.54173 2.51356 8.6005 2.27822C8.64666 2.09336 8.80704 1.95777 8.99757 1.95636C9.0577 1.95591 9.11785 1.95644 9.17798 1.95794ZM7.39761 2.18372C7.49309 2.15854 7.57906 2.24571 7.55488 2.34145C7.53721 2.41141 7.46649 2.45408 7.39636 2.4371L7.38869 2.43525C7.25401 2.40264 7.2471 2.22376 7.38101 2.18811C7.38654 2.18664 7.39207 2.18518 7.39761 2.18372ZM10.7764 2.77713C10.843 2.50782 11.126 2.35088 11.3807 2.46084C11.5086 2.51606 11.6338 2.57551 11.7563 2.63903C11.9272 2.7277 12.0082 2.9244 11.9618 3.11127C11.9039 3.3445 11.6681 3.48685 11.4347 3.42948L11.1246 3.35324C10.8692 3.29047 10.7132 3.03239 10.7764 2.77713ZM5.96542 3.63412C6.03316 3.36154 6.30872 3.19521 6.58147 3.26225L6.78788 3.31299C7.06123 3.38018 7.22822 3.65639 7.16072 3.92966C7.09342 4.20211 6.81839 4.36877 6.54572 4.30232L6.33921 4.25199C6.06496 4.18514 5.89733 3.90806 5.96542 3.63412ZM12.8629 3.63959C12.8872 3.54199 13.0058 3.50448 13.08 3.57244C13.0844 3.5765 13.0889 3.58058 13.0933 3.58466C13.197 3.68019 13.1062 3.83866 12.9692 3.80525L12.9619 3.80346C12.8891 3.78572 12.8447 3.71221 12.8629 3.63959ZM4.72853 3.6861C4.80451 3.61479 4.92116 3.68811 4.89624 3.78928C4.88237 3.84559 4.82534 3.88057 4.76903 3.8667C4.68958 3.84713 4.6623 3.74844 4.72189 3.69235C4.7241 3.69026 4.72632 3.68818 4.72853 3.6861ZM8.13203 4.16746C8.19939 3.89363 8.47591 3.72619 8.74978 3.7934L8.95363 3.84343C9.22811 3.91078 9.39573 4.18821 9.32769 4.46252C9.25988 4.73594 8.98353 4.90285 8.70997 4.83562L8.50613 4.78552C8.23213 4.71819 8.06463 4.44145 8.13203 4.16746ZM10.3013 4.69891C10.3691 4.4267 10.6444 4.26064 10.9168 4.32761L11.1232 4.37834C11.3968 4.44559 11.5637 4.72227 11.4956 4.99564C11.4278 5.26787 11.1526 5.43393 10.8801 5.36695L10.6738 5.31621C10.4002 5.24894 10.2333 4.97227 10.3013 4.69891ZM3.7063 4.93258C3.80779 4.77269 4.00209 4.70156 4.18589 4.7472C4.43176 4.80825 4.58166 5.05697 4.5208 5.30289L4.50251 5.37679C4.43866 5.63477 4.17806 5.7924 3.91993 5.72919C3.62224 5.6563 3.46679 5.32701 3.62481 5.06441C3.65149 5.02007 3.67866 4.97612 3.7063 4.93258ZM12.4688 5.22997C12.5363 4.95766 12.8115 4.79141 13.084 4.85831L13.2922 4.90944C13.5653 4.97651 13.7323 5.25251 13.6648 5.52558C13.5975 5.79812 13.3222 5.96465 13.0495 5.89773L12.8413 5.84663C12.568 5.77952 12.401 5.50319 12.4688 5.22997ZM5.47933 5.58677C5.54658 5.31532 5.82074 5.14942 6.09241 5.2158L6.30441 5.2676C6.57731 5.33428 6.74416 5.60994 6.67666 5.88265C6.60942 6.15435 6.33492 6.32033 6.06308 6.25369L5.85111 6.20173C5.57841 6.13488 5.4118 5.8593 5.47933 5.58677ZM7.64726 6.11976C7.71452 5.8477 7.98936 5.68147 8.26154 5.74822L8.47254 5.79997C8.74544 5.8669 8.91218 6.14266 8.84467 6.41541C8.7774 6.68719 8.50293 6.85331 8.23096 6.78685L8.01991 6.73529C7.74679 6.66855 7.57978 6.3927 7.64726 6.11976ZM14.5397 6.15207C14.565 6.04872 14.7052 6.03765 14.7398 6.1383C14.7408 6.1414 14.7419 6.1445 14.7429 6.1476C14.7697 6.22612 14.6988 6.30172 14.6182 6.28215C14.5607 6.26819 14.5256 6.20955 14.5397 6.15207ZM9.81645 6.65027C9.88419 6.37879 10.1587 6.21323 10.4304 6.27998L10.6409 6.33168C10.9136 6.39867 11.0802 6.6743 11.0127 6.94692C10.9455 7.2188 10.6708 7.38488 10.3988 7.31817L10.1883 7.26656C9.91506 7.19955 9.74834 6.92322 9.81645 6.65027ZM2.85898 6.88021C2.91037 6.67552 3.13643 6.56218 3.34136 6.6126L3.65138 6.68887C3.92446 6.75606 4.09127 7.03202 4.02383 7.30504C3.95651 7.5776 3.68116 7.74414 3.4085 7.67721L3.30426 7.65163C2.9734 7.57042 2.77117 7.23619 2.85276 6.90542L2.85898 6.88021ZM11.9845 7.18306C12.0522 6.91158 12.3267 6.746 12.5985 6.81272L12.8083 6.86425C13.0813 6.93128 13.2479 7.20727 13.1801 7.48006C13.1126 7.75175 12.838 7.91759 12.5661 7.85088L12.3563 7.7994C12.083 7.73236 11.9163 7.45602 11.9845 7.18306ZM4.9953 7.54164C5.06256 7.27016 5.33679 7.10426 5.60848 7.1707L5.81953 7.22231C6.09238 7.28903 6.25917 7.56467 6.19168 7.83733C6.12443 8.10907 5.84988 8.27506 5.578 8.20836L5.36699 8.15658C5.09434 8.08969 4.92779 7.81414 4.9953 7.54164ZM14.1609 7.67635C14.2228 7.42589 14.4761 7.27307 14.7265 7.33511C14.9136 7.38147 15.0546 7.53798 15.0698 7.73018C15.0735 7.77682 15.0767 7.82358 15.0794 7.87046C15.0972 8.17921 14.8043 8.40047 14.5039 8.32688C14.2418 8.26267 14.0815 7.99785 14.1462 7.73582L14.1609 7.67635ZM7.16324 8.07463C7.23051 7.80254 7.5054 7.63631 7.77761 7.70312L7.98766 7.75468C8.26051 7.82165 8.42719 8.09738 8.35969 8.3701C8.29242 8.64191 8.01788 8.80803 7.74589 8.74152L7.53579 8.69014C7.26272 8.62336 7.09577 8.34754 7.16324 8.07463ZM9.33235 8.60595C9.40013 8.3335 9.67558 8.16727 9.94822 8.23427L10.1549 8.28507C10.4282 8.35225 10.5953 8.62842 10.5278 8.90171C10.4605 9.17458 10.1849 9.34135 9.91192 9.27435L9.70523 9.22362C9.43141 9.15641 9.26428 8.87955 9.33235 8.60595ZM2.34398 8.96348C2.41082 8.69174 2.68522 8.52557 2.957 8.59225L3.16723 8.64383C3.44035 8.71084 3.60726 8.98676 3.53983 9.25978C3.47252 9.53232 3.19713 9.69879 2.92452 9.63173L2.73581 9.5853C2.45876 9.51715 2.27451 9.2402 2.34398 8.96348ZM11.5004 9.13712C11.5681 8.86496 11.8433 8.69893 12.1157 8.76589L12.3233 8.81693C12.5964 8.88408 12.7633 9.16006 12.6958 9.43311C12.6285 9.70564 12.3532 9.87217 12.0806 9.80528L11.8729 9.75434C11.5993 9.6872 11.4323 9.41052 11.5004 9.13712ZM4.51116 9.49547C4.57847 9.22296 4.85376 9.05645 5.12637 9.12336L5.33516 9.17461C5.60832 9.24165 5.77525 9.51764 5.70779 9.7907C5.64049 10.0632 5.36523 10.2297 5.09265 10.1628L4.88386 10.1116C4.61067 10.0446 4.44371 9.76856 4.51116 9.49547ZM13.6672 9.67054C13.7345 9.3981 14.0096 9.23155 14.2822 9.29827L14.6022 9.37659C14.8076 9.42686 14.9475 9.63171 14.896 9.83675L14.8898 9.86191C14.8081 10.1919 14.4747 10.3935 14.1445 10.3125L14.0399 10.2868C13.7667 10.2197 13.5997 9.94369 13.6672 9.67054ZM6.68045 10.0275C6.7482 9.75575 7.02293 9.58989 7.29498 9.65653L7.50296 9.70748C7.7762 9.77441 7.94323 10.0504 7.87577 10.3235C7.80848 10.596 7.53324 10.7625 7.26068 10.6956L7.05273 10.6445C6.77922 10.5774 6.61233 10.3008 6.68045 10.0275ZM8.8484 10.5605C8.91615 10.2882 9.1915 10.122 9.46403 10.189L9.67105 10.2399C9.9443 10.307 10.1112 10.5831 10.0438 10.8563C9.97647 11.1288 9.70126 11.2954 9.42859 11.2287L9.22151 11.1781C8.9476 11.1111 8.78031 10.8342 8.8484 10.5605ZM2.0261 11.0547C2.0464 10.7372 2.35415 10.5161 2.66318 10.5919L2.68272 10.5967C2.95603 10.6636 3.12297 10.9399 3.05522 11.213C2.98768 11.4853 2.71235 11.6514 2.43994 11.5843L2.41948 11.5792C2.17892 11.5199 2.0103 11.3019 2.0261 11.0547ZM11.016 11.091C11.084 10.8187 11.3594 10.6527 11.6319 10.7197L11.8389 10.7706C12.1123 10.8379 12.2793 11.114 12.2118 11.3873C12.1445 11.6602 11.8689 11.8269 11.596 11.76L11.3889 11.7093C11.1148 11.6421 10.9476 11.3648 11.016 11.091ZM4.02683 11.4485C4.09435 11.1769 4.36896 11.011 4.64083 11.0778L4.85128 11.1294C5.12426 11.1964 5.29092 11.4724 5.22313 11.7452C5.15561 12.0169 4.881 12.1827 4.60913 12.116L4.39868 12.0643C4.12569 11.9973 3.95904 11.7213 4.02683 11.4485ZM13.1832 11.6254C13.2505 11.3529 13.5257 11.1864 13.7983 11.2532L14.0095 11.3049C14.2823 11.3717 14.4488 11.6475 14.381 11.92C14.3117 12.1961 14.0225 12.3563 13.7462 12.2884L13.5559 12.2416C13.2826 12.1745 13.1157 11.8985 13.1832 11.6254ZM6.19627 11.9821C6.26354 11.7105 6.53786 11.5446 6.8096 11.6111L7.01911 11.6624C7.29213 11.7292 7.45889 12.0052 7.3911 12.2779C7.3236 12.5496 7.04904 12.7153 6.77726 12.6485L6.5678 12.597C6.29522 12.53 6.12877 12.2545 6.19627 11.9821ZM8.36339 12.5129C8.43116 12.2407 8.70632 12.0747 8.97868 12.1416L9.18664 12.1927C9.46003 12.2598 9.62696 12.5362 9.55919 12.8094C9.49164 13.0817 9.21645 13.248 8.94396 13.1812L8.73599 13.1302C8.46233 13.063 8.2953 12.7863 8.36339 12.5129ZM2.07381 12.9026C2.05189 12.7107 2.22986 12.5602 2.4174 12.6066C2.56959 12.6443 2.66244 12.7982 2.62477 12.9504L2.48928 13.4978C2.46694 13.588 2.37619 13.6435 2.28571 13.6222C2.22023 13.6069 2.1699 13.5543 2.15831 13.488C2.12437 13.2939 2.09619 13.0985 2.07381 12.9026ZM10.5314 13.0462C10.5991 12.7738 10.8746 12.6075 11.1472 12.6745L11.3542 12.7253C11.6279 12.7925 11.795 13.069 11.7272 13.3425C11.6597 13.6152 11.3841 13.7817 11.1113 13.7147L10.9043 13.6639C10.6304 13.5967 10.4633 13.3198 10.5314 13.0462ZM3.54216 13.405C3.60947 13.1325 3.88474 12.966 4.15732 13.0329L4.36618 13.0842C4.63933 13.1512 4.80625 13.4272 4.7388 13.7002C4.67149 13.9727 4.39622 14.1392 4.12364 14.0723L3.91478 14.0211C3.64163 13.954 3.47471 13.678 3.54216 13.405ZM12.6982 13.58C12.7655 13.3076 13.0406 13.1411 13.3131 13.2079L13.3319 13.2125C13.6422 13.2885 13.8136 13.6282 13.6839 13.9202C13.5834 14.1465 13.3335 14.2602 13.093 14.2014L13.0712 14.1961C12.7979 14.1292 12.6308 13.8531 12.6982 13.58ZM5.71212 13.9379C5.77944 13.6654 6.05482 13.4989 6.32745 13.5659L6.53434 13.6167C6.80743 13.6838 6.97428 13.9598 6.90684 14.2328C6.83952 14.5054 6.5641 14.6719 6.29144 14.6049L6.08456 14.554C5.8115 14.4869 5.64468 14.2109 5.71212 13.9379ZM7.87943 14.4684C7.94718 14.1969 8.22178 14.0313 8.49352 14.0981L8.70301 14.1496C8.9757 14.2167 9.14223 14.4923 9.07477 14.7649C9.00747 15.0368 8.73272 15.2029 8.46068 15.1361L8.25117 15.0847C7.97799 15.0176 7.81133 14.7413 7.87943 14.4684ZM10.0462 15.0015C10.1135 14.7289 10.3888 14.5622 10.6616 14.6289L10.8709 14.6802C11.145 14.7472 11.3123 15.0245 11.2439 15.2982C11.1759 15.5701 10.9011 15.7359 10.6289 15.6693L10.4196 15.6181C10.146 15.5512 9.97875 15.2749 10.0462 15.0015ZM3.05785 15.358C3.12536 15.0864 3.39992 14.9206 3.67177 14.9873L3.88275 15.039C4.15554 15.106 4.32221 15.3816 4.25473 15.6543C4.18745 15.9262 3.91277 16.0922 3.64076 16.0255L3.42977 15.9738C3.15675 15.9068 2.99005 15.6308 3.05785 15.358ZM12.336 15.0437C12.336 15.0428 12.3368 15.0421 12.3377 15.0423L12.6513 15.119C12.8207 15.1603 12.8993 15.3556 12.8008 15.4995C12.6819 15.6731 12.5576 15.843 12.4278 16.0088C12.3873 16.0606 12.3201 16.0834 12.2562 16.0679C12.1651 16.0458 12.1094 15.9537 12.1321 15.8627L12.3359 15.044C12.336 15.0439 12.336 15.0438 12.336 15.0437ZM5.22781 15.891C5.29533 15.6193 5.57001 15.4535 5.84189 15.5203L6.051 15.5717C6.32369 15.6387 6.49023 15.9143 6.42277 16.1869C6.35547 16.4588 6.08072 16.6248 5.80869 16.558L5.59957 16.5067C5.32664 16.4397 5.16003 16.1637 5.22781 15.891ZM7.3944 16.4223C7.46216 16.1502 7.73727 15.9842 8.00959 16.0511L8.2182 16.1024C8.49136 16.1695 8.65825 16.4455 8.5908 16.7185C8.52349 16.991 8.24822 17.1576 7.97561 17.0907L7.76698 17.0395C7.49333 16.9724 7.32631 16.6957 7.3944 16.4223ZM9.56121 16.9559C9.6285 16.6834 9.90363 16.5169 10.1762 16.5836L10.3867 16.6351C10.6604 16.7021 10.8276 16.9789 10.7595 17.2524C10.6918 17.5245 10.4168 17.6905 10.1445 17.6237L9.93402 17.5721C9.66075 17.5051 9.49374 17.229 9.56121 16.9559ZM3.80193 17.1725C3.77139 17.1398 3.8012 17.0909 3.84467 17.1015L3.84922 17.1026C3.87286 17.1084 3.88737 17.1323 3.88166 17.1559C3.87333 17.1905 3.8293 17.2019 3.80502 17.1758C3.80399 17.1747 3.80296 17.1736 3.80193 17.1725ZM4.76845 17.7413C4.82179 17.5262 5.0392 17.3949 5.2544 17.4479L5.60858 17.5349C5.85776 17.5962 6.00992 17.8481 5.94823 18.0971C5.88188 18.365 5.59651 18.5177 5.34934 18.3949C5.20501 18.3232 5.06447 18.244 4.92832 18.1577C4.78957 18.0697 4.72891 17.9008 4.76845 17.7413ZM7.03298 17.8886C7.03298 17.8867 7.03473 17.8853 7.03653 17.8858L7.83757 18.0826C8.05306 18.1356 8.18462 18.3534 8.13121 18.5688C8.0918 18.7277 7.95985 18.8483 7.79668 18.862C7.72819 18.8677 7.6596 18.872 7.59097 18.8748C7.16772 18.8921 6.886 18.4799 6.98824 18.0688L7.03289 17.8892C7.03295 17.889 7.03298 17.8888 7.03298 17.8886ZM9.18842 18.4593C9.19426 18.4362 9.21765 18.4221 9.24081 18.4278L9.24695 18.4293C9.29022 18.4398 9.29369 18.4962 9.25153 18.5105C9.24986 18.5111 9.24819 18.5117 9.24652 18.5123C9.21327 18.5236 9.1798 18.4934 9.18842 18.4593ZM4.57259 19.9565C4.5158 19.6054 4.92388 19.3021 5.25191 19.4397C5.43724 19.5175 5.54884 19.7165 5.50047 19.9116L4.43898 24.1923C4.66507 23.0219 4.83174 21.5591 4.57259 19.9565ZM6.47216 20.1466C6.52023 19.9529 6.70976 19.8293 6.90866 19.8461C7.26267 19.8761 7.4828 20.334 7.26917 20.6178C6.28736 21.9225 5.75215 23.2997 5.40598 24.4432L6.47216 20.1466ZM14.18 21.6012C13.1964 21.6028 12.2536 21.9925 11.558 22.685C10.8624 23.3775 10.4708 24.3163 10.469 25.2957C10.4714 26.2748 10.863 27.2131 11.5582 27.9054C12.2535 28.5978 13.1958 28.9877 14.179 28.9901C15.1626 28.9883 16.1055 28.5985 16.8014 27.9062C17.4972 27.2138 17.8893 26.2752 17.892 25.2957C17.8896 24.3163 17.4977 23.3776 16.802 22.6852C16.1063 21.9929 15.1635 21.603 14.18 21.6012ZM3.94744 25.6203C3.9478 25.6203 3.94816 25.6202 3.94851 25.6202C4.01503 25.6087 4.08334 25.6129 4.14798 25.6323L4.99398 25.8383C5.05848 25.8526 5.11939 25.8798 5.17304 25.9182C5.22669 25.9566 5.27195 26.0054 5.30607 26.0618C5.3402 26.1181 5.36249 26.1808 5.37158 26.2459C5.38068 26.3111 5.37639 26.3773 5.35898 26.4408L4.11898 31.4497C4.10466 31.514 4.0774 31.5746 4.03884 31.6281C4.00028 31.6815 3.95123 31.7266 3.89466 31.7606C3.8381 31.7945 3.77519 31.8168 3.70975 31.8258C3.64431 31.8349 3.57771 31.8305 3.51398 31.8132L2.66798 31.6071C2.60337 31.5929 2.54235 31.5656 2.48862 31.5272C2.43489 31.4887 2.38958 31.4398 2.35544 31.3834C2.3213 31.3269 2.29904 31.2641 2.29003 31.1988C2.28101 31.1336 2.28541 31.0671 2.30298 31.0036L3.54298 25.9947C3.56476 25.8991 3.61495 25.8123 3.68701 25.7455C3.75896 25.6788 3.84938 25.6352 3.94652 25.6203C3.94682 25.6203 3.94713 25.6203 3.94744 25.6203Z" fill="#EEEEEE"/>
<path d="M9.21498 0.967603C9.21498 0.966756 9.21431 0.966061 9.21346 0.966034C8.73978 0.950669 8.26577 0.984092 7.79898 1.0657C5.01898 1.54568 2.62398 3.67671 1.88898 6.64621L1.37298 8.72948C0.74698 11.2538 0.93098 13.7323 1.75998 15.7249C1.89817 16.0566 2.06008 16.3686 2.23491 16.6726C2.23676 16.6758 2.23645 16.6798 2.23413 16.6827C2.23166 16.6858 2.23152 16.6902 2.23372 16.6935C4.10376 19.474 3.82465 22.3036 3.41337 24.2496C3.33411 24.6246 3.06379 24.9234 2.83126 25.2281C2.70942 25.3878 2.62123 25.5703 2.57198 25.7647L1.33198 30.7736C1.13498 31.5683 1.63198 32.3859 2.42998 32.582L3.27498 32.7881C3.6609 32.8812 4.06812 32.8188 4.40803 32.6144C4.74794 32.41 4.99304 32.0802 5.08998 31.6967L6.33198 26.6878C6.51478 25.9451 6.23312 25.1137 6.46869 24.386C7.06428 22.5461 8.19905 20.2551 10.87 18.8126C10.8728 18.8111 10.8741 18.8077 10.8729 18.8048C10.8718 18.802 10.8728 18.7988 10.8753 18.7972C11.1718 18.6088 11.4623 18.4075 11.741 18.1776C13.405 16.7974 14.726 14.6863 15.351 12.1619L15.867 10.0807C16.848 6.12239 14.524 2.11724 10.66 1.16823C10.1871 1.05196 9.70331 0.985272 9.2165 0.969172C9.21565 0.969144 9.21498 0.96845 9.21498 0.967603ZM9.17798 1.95794C9.25637 1.96109 9.33516 1.96603 9.41416 1.97257C9.69175 1.99555 9.87034 2.26782 9.80325 2.53816C9.7401 2.79259 9.48291 2.94789 9.22834 2.88531L8.92094 2.80975C8.68539 2.75185 8.54173 2.51356 8.6005 2.27822C8.64666 2.09336 8.80704 1.95777 8.99757 1.95636C9.0577 1.95591 9.11785 1.95644 9.17798 1.95794ZM7.39761 2.18372C7.49309 2.15854 7.57906 2.24571 7.55488 2.34145C7.53721 2.41141 7.46649 2.45408 7.39636 2.4371L7.38869 2.43525C7.25401 2.40264 7.2471 2.22376 7.38101 2.18811C7.38654 2.18664 7.39207 2.18518 7.39761 2.18372ZM10.7764 2.77713C10.843 2.50782 11.126 2.35088 11.3807 2.46084C11.5086 2.51606 11.6338 2.57551 11.7563 2.63903C11.9272 2.7277 12.0082 2.9244 11.9618 3.11127C11.9039 3.3445 11.6681 3.48685 11.4347 3.42948L11.1246 3.35324C10.8692 3.29047 10.7132 3.03239 10.7764 2.77713ZM5.96542 3.63412C6.03316 3.36154 6.30872 3.19521 6.58147 3.26225L6.78788 3.31299C7.06123 3.38018 7.22822 3.65639 7.16072 3.92966C7.09342 4.20211 6.81839 4.36877 6.54572 4.30232L6.33921 4.25199C6.06496 4.18514 5.89733 3.90806 5.96542 3.63412ZM12.8629 3.63959C12.8872 3.54199 13.0058 3.50448 13.08 3.57244C13.0844 3.5765 13.0889 3.58058 13.0933 3.58466C13.197 3.68019 13.1062 3.83866 12.9692 3.80525L12.9619 3.80346C12.8891 3.78572 12.8447 3.71221 12.8629 3.63959ZM4.72853 3.6861C4.80451 3.61479 4.92116 3.68811 4.89624 3.78928C4.88237 3.84559 4.82534 3.88057 4.76903 3.8667C4.68958 3.84713 4.6623 3.74844 4.72189 3.69235C4.7241 3.69026 4.72632 3.68818 4.72853 3.6861ZM8.13203 4.16746C8.19939 3.89363 8.47591 3.72619 8.74978 3.7934L8.95363 3.84343C9.22811 3.91078 9.39573 4.18821 9.32769 4.46252C9.25988 4.73594 8.98353 4.90285 8.70997 4.83562L8.50613 4.78552C8.23213 4.71819 8.06463 4.44145 8.13203 4.16746ZM10.3013 4.69891C10.3691 4.4267 10.6444 4.26064 10.9168 4.32761L11.1232 4.37834C11.3968 4.44559 11.5637 4.72227 11.4956 4.99564C11.4278 5.26787 11.1526 5.43393 10.8801 5.36695L10.6738 5.31621C10.4002 5.24894 10.2333 4.97227 10.3013 4.69891ZM3.7063 4.93258C3.80779 4.77269 4.00209 4.70156 4.18589 4.7472C4.43176 4.80825 4.58166 5.05697 4.5208 5.30289L4.50251 5.37679C4.43866 5.63477 4.17806 5.7924 3.91993 5.72919C3.62224 5.6563 3.46679 5.32701 3.62481 5.06441C3.65149 5.02007 3.67866 4.97612 3.7063 4.93258ZM12.4688 5.22997C12.5363 4.95766 12.8115 4.79141 13.084 4.85831L13.2922 4.90944C13.5653 4.97651 13.7323 5.25251 13.6648 5.52558C13.5975 5.79812 13.3222 5.96465 13.0495 5.89773L12.8413 5.84663C12.568 5.77952 12.401 5.50319 12.4688 5.22997ZM5.47933 5.58677C5.54658 5.31532 5.82074 5.14942 6.09241 5.2158L6.30441 5.2676C6.57731 5.33428 6.74416 5.60994 6.67666 5.88265C6.60942 6.15435 6.33492 6.32033 6.06308 6.25369L5.85111 6.20173C5.57841 6.13488 5.4118 5.8593 5.47933 5.58677ZM7.64726 6.11976C7.71452 5.8477 7.98936 5.68147 8.26154 5.74822L8.47254 5.79997C8.74544 5.8669 8.91218 6.14266 8.84467 6.41541C8.7774 6.68719 8.50293 6.85331 8.23096 6.78685L8.01991 6.73529C7.74679 6.66855 7.57978 6.3927 7.64726 6.11976ZM14.5397 6.15207C14.565 6.04872 14.7052 6.03765 14.7398 6.1383C14.7408 6.1414 14.7419 6.1445 14.7429 6.1476C14.7697 6.22612 14.6988 6.30172 14.6182 6.28215C14.5607 6.26819 14.5256 6.20955 14.5397 6.15207ZM9.81645 6.65027C9.88419 6.37879 10.1587 6.21323 10.4304 6.27998L10.6409 6.33168C10.9136 6.39867 11.0802 6.6743 11.0127 6.94692C10.9455 7.2188 10.6708 7.38488 10.3988 7.31817L10.1883 7.26656C9.91506 7.19955 9.74834 6.92322 9.81645 6.65027ZM2.85898 6.88021C2.91037 6.67552 3.13643 6.56218 3.34136 6.6126L3.65138 6.68887C3.92446 6.75606 4.09127 7.03202 4.02383 7.30504C3.95651 7.5776 3.68116 7.74414 3.4085 7.67721L3.30426 7.65163C2.9734 7.57042 2.77117 7.23619 2.85276 6.90542L2.85898 6.88021ZM11.9845 7.18306C12.0522 6.91158 12.3267 6.746 12.5985 6.81272L12.8083 6.86425C13.0813 6.93128 13.2479 7.20727 13.1801 7.48006C13.1126 7.75175 12.838 7.91759 12.5661 7.85088L12.3563 7.7994C12.083 7.73236 11.9163 7.45602 11.9845 7.18306ZM4.9953 7.54164C5.06256 7.27016 5.33679 7.10426 5.60848 7.1707L5.81953 7.22231C6.09238 7.28903 6.25917 7.56467 6.19168 7.83733C6.12443 8.10907 5.84988 8.27506 5.578 8.20836L5.36699 8.15658C5.09434 8.08969 4.92779 7.81414 4.9953 7.54164ZM14.1609 7.67635C14.2228 7.42589 14.4761 7.27307 14.7265 7.33511C14.9136 7.38147 15.0546 7.53798 15.0698 7.73018C15.0735 7.77682 15.0767 7.82358 15.0794 7.87046C15.0972 8.17921 14.8043 8.40047 14.5039 8.32688C14.2418 8.26267 14.0815 7.99785 14.1462 7.73582L14.1609 7.67635ZM7.16324 8.07463C7.23051 7.80254 7.5054 7.63631 7.77761 7.70312L7.98766 7.75468C8.26051 7.82165 8.42719 8.09738 8.35969 8.3701C8.29242 8.64191 8.01788 8.80803 7.74589 8.74152L7.53579 8.69014C7.26272 8.62336 7.09577 8.34754 7.16324 8.07463ZM9.33235 8.60595C9.40013 8.3335 9.67558 8.16727 9.94822 8.23427L10.1549 8.28507C10.4282 8.35225 10.5953 8.62842 10.5278 8.90171C10.4605 9.17458 10.1849 9.34135 9.91192 9.27435L9.70523 9.22362C9.43141 9.15641 9.26428 8.87955 9.33235 8.60595ZM2.34398 8.96348C2.41082 8.69174 2.68522 8.52557 2.957 8.59225L3.16723 8.64383C3.44035 8.71084 3.60726 8.98676 3.53983 9.25978C3.47252 9.53232 3.19713 9.69879 2.92452 9.63173L2.73581 9.5853C2.45876 9.51715 2.27451 9.2402 2.34398 8.96348ZM11.5004 9.13712C11.5681 8.86496 11.8433 8.69893 12.1157 8.76589L12.3233 8.81693C12.5964 8.88408 12.7633 9.16006 12.6958 9.43311C12.6285 9.70564 12.3532 9.87217 12.0806 9.80528L11.8729 9.75434C11.5993 9.6872 11.4323 9.41052 11.5004 9.13712ZM4.51116 9.49547C4.57847 9.22296 4.85376 9.05645 5.12637 9.12336L5.33516 9.17461C5.60832 9.24165 5.77525 9.51764 5.70779 9.7907C5.64049 10.0632 5.36523 10.2297 5.09265 10.1628L4.88386 10.1116C4.61067 10.0446 4.44371 9.76856 4.51116 9.49547ZM13.6672 9.67054C13.7345 9.3981 14.0096 9.23155 14.2822 9.29827L14.6022 9.37659C14.8076 9.42686 14.9475 9.63171 14.896 9.83675L14.8898 9.86191C14.8081 10.1919 14.4747 10.3935 14.1445 10.3125L14.0399 10.2868C13.7667 10.2197 13.5997 9.94369 13.6672 9.67054ZM6.68045 10.0275C6.7482 9.75575 7.02293 9.58989 7.29498 9.65653L7.50296 9.70748C7.7762 9.77441 7.94323 10.0504 7.87577 10.3235C7.80848 10.596 7.53324 10.7625 7.26068 10.6956L7.05273 10.6445C6.77922 10.5774 6.61233 10.3008 6.68045 10.0275ZM8.8484 10.5605C8.91615 10.2882 9.1915 10.122 9.46403 10.189L9.67105 10.2399C9.9443 10.307 10.1112 10.5831 10.0438 10.8563C9.97647 11.1288 9.70126 11.2954 9.42859 11.2287L9.22151 11.1781C8.9476 11.1111 8.78031 10.8342 8.8484 10.5605ZM2.0261 11.0547C2.0464 10.7372 2.35415 10.5161 2.66318 10.5919L2.68272 10.5967C2.95603 10.6636 3.12297 10.9399 3.05522 11.213C2.98768 11.4853 2.71235 11.6514 2.43994 11.5843L2.41948 11.5792C2.17892 11.5199 2.0103 11.3019 2.0261 11.0547ZM11.016 11.091C11.084 10.8187 11.3594 10.6527 11.6319 10.7197L11.8389 10.7706C12.1123 10.8379 12.2793 11.114 12.2118 11.3873C12.1445 11.6602 11.8689 11.8269 11.596 11.76L11.3889 11.7093C11.1148 11.6421 10.9476 11.3648 11.016 11.091ZM4.02683 11.4485C4.09435 11.1769 4.36896 11.011 4.64083 11.0778L4.85128 11.1294C5.12426 11.1964 5.29092 11.4724 5.22313 11.7452C5.15561 12.0169 4.881 12.1827 4.60913 12.116L4.39868 12.0643C4.12569 11.9973 3.95904 11.7213 4.02683 11.4485ZM13.1832 11.6254C13.2505 11.3529 13.5257 11.1864 13.7983 11.2532L14.0095 11.3049C14.2823 11.3717 14.4488 11.6475 14.381 11.92C14.3117 12.1961 14.0225 12.3563 13.7462 12.2884L13.5559 12.2416C13.2826 12.1745 13.1157 11.8985 13.1832 11.6254ZM6.19627 11.9821C6.26354 11.7105 6.53786 11.5446 6.8096 11.6111L7.01911 11.6624C7.29213 11.7292 7.45889 12.0052 7.3911 12.2779C7.3236 12.5496 7.04904 12.7153 6.77726 12.6485L6.5678 12.597C6.29522 12.53 6.12877 12.2545 6.19627 11.9821ZM8.36339 12.5129C8.43116 12.2407 8.70632 12.0747 8.97868 12.1416L9.18664 12.1927C9.46003 12.2598 9.62696 12.5362 9.55919 12.8094C9.49164 13.0817 9.21645 13.248 8.94396 13.1812L8.73599 13.1302C8.46233 13.063 8.2953 12.7863 8.36339 12.5129ZM2.07381 12.9026C2.05189 12.7107 2.22986 12.5602 2.4174 12.6066C2.56959 12.6443 2.66244 12.7982 2.62477 12.9504L2.48928 13.4978C2.46694 13.588 2.37619 13.6435 2.28571 13.6222C2.22023 13.6069 2.1699 13.5543 2.15831 13.488C2.12437 13.2939 2.09619 13.0985 2.07381 12.9026ZM10.5314 13.0462C10.5991 12.7738 10.8746 12.6075 11.1472 12.6745L11.3542 12.7253C11.6279 12.7925 11.795 13.069 11.7272 13.3425C11.6597 13.6152 11.3841 13.7817 11.1113 13.7147L10.9043 13.6639C10.6304 13.5967 10.4633 13.3198 10.5314 13.0462ZM3.54216 13.405C3.60947 13.1325 3.88474 12.966 4.15732 13.0329L4.36618 13.0842C4.63933 13.1512 4.80625 13.4272 4.7388 13.7002C4.67149 13.9727 4.39622 14.1392 4.12364 14.0723L3.91478 14.0211C3.64163 13.954 3.47471 13.678 3.54216 13.405ZM12.6982 13.58C12.7655 13.3076 13.0406 13.1411 13.3131 13.2079L13.3319 13.2125C13.6422 13.2885 13.8136 13.6282 13.6839 13.9202C13.5834 14.1465 13.3335 14.2602 13.093 14.2014L13.0712 14.1961C12.7979 14.1292 12.6308 13.8531 12.6982 13.58ZM5.71212 13.9379C5.77944 13.6654 6.05482 13.4989 6.32745 13.5659L6.53434 13.6167C6.80743 13.6838 6.97428 13.9598 6.90684 14.2328C6.83952 14.5054 6.5641 14.6719 6.29144 14.6049L6.08456 14.554C5.8115 14.4869 5.64468 14.2109 5.71212 13.9379ZM7.87943 14.4684C7.94718 14.1969 8.22178 14.0313 8.49352 14.0981L8.70301 14.1496C8.9757 14.2167 9.14223 14.4923 9.07477 14.7649C9.00747 15.0368 8.73272 15.2029 8.46068 15.1361L8.25117 15.0847C7.97799 15.0176 7.81133 14.7413 7.87943 14.4684ZM10.0462 15.0015C10.1135 14.7289 10.3888 14.5622 10.6616 14.6289L10.8709 14.6802C11.145 14.7472 11.3123 15.0245 11.2439 15.2982C11.1759 15.5701 10.9011 15.7359 10.6289 15.6693L10.4196 15.6181C10.146 15.5512 9.97875 15.2749 10.0462 15.0015ZM3.05785 15.358C3.12536 15.0864 3.39992 14.9206 3.67177 14.9873L3.88275 15.039C4.15554 15.106 4.32221 15.3816 4.25473 15.6543C4.18745 15.9262 3.91277 16.0922 3.64076 16.0255L3.42977 15.9738C3.15675 15.9068 2.99005 15.6308 3.05785 15.358ZM12.336 15.0437C12.336 15.0428 12.3368 15.0421 12.3377 15.0423L12.6513 15.119C12.8207 15.1603 12.8993 15.3556 12.8008 15.4995C12.6819 15.6731 12.5576 15.843 12.4278 16.0088C12.3873 16.0606 12.3201 16.0834 12.2562 16.0679C12.1651 16.0458 12.1094 15.9537 12.1321 15.8627L12.3359 15.044C12.336 15.0439 12.336 15.0438 12.336 15.0437ZM5.22781 15.891C5.29533 15.6193 5.57001 15.4535 5.84189 15.5203L6.051 15.5717C6.32369 15.6387 6.49023 15.9143 6.42277 16.1869C6.35547 16.4588 6.08072 16.6248 5.80869 16.558L5.59957 16.5067C5.32664 16.4397 5.16003 16.1637 5.22781 15.891ZM7.3944 16.4223C7.46216 16.1502 7.73727 15.9842 8.00959 16.0511L8.2182 16.1024C8.49136 16.1695 8.65825 16.4455 8.5908 16.7185C8.52349 16.991 8.24822 17.1576 7.97561 17.0907L7.76698 17.0395C7.49333 16.9724 7.32631 16.6957 7.3944 16.4223ZM9.56121 16.9559C9.6285 16.6834 9.90363 16.5169 10.1762 16.5836L10.3867 16.6351C10.6604 16.7021 10.8276 16.9789 10.7595 17.2524C10.6918 17.5245 10.4168 17.6905 10.1445 17.6237L9.93402 17.5721C9.66075 17.5051 9.49374 17.229 9.56121 16.9559ZM3.80193 17.1725C3.77139 17.1398 3.8012 17.0909 3.84467 17.1015L3.84922 17.1026C3.87286 17.1084 3.88737 17.1323 3.88166 17.1559C3.87333 17.1905 3.8293 17.2019 3.80502 17.1758C3.80399 17.1747 3.80296 17.1736 3.80193 17.1725ZM4.76845 17.7413C4.82179 17.5262 5.0392 17.3949 5.2544 17.4479L5.60858 17.5349C5.85776 17.5962 6.00992 17.8481 5.94823 18.0971C5.88188 18.365 5.59651 18.5177 5.34934 18.3949C5.20501 18.3232 5.06447 18.244 4.92832 18.1577C4.78957 18.0697 4.72891 17.9008 4.76845 17.7413ZM7.03298 17.8886C7.03298 17.8867 7.03473 17.8853 7.03653 17.8858L7.83757 18.0826C8.05306 18.1356 8.18462 18.3534 8.13121 18.5688C8.0918 18.7277 7.95985 18.8483 7.79668 18.862C7.72819 18.8677 7.6596 18.872 7.59097 18.8748C7.16772 18.8921 6.886 18.4799 6.98824 18.0688L7.03289 17.8892C7.03295 17.889 7.03298 17.8888 7.03298 17.8886ZM9.18842 18.4593C9.19426 18.4362 9.21765 18.4221 9.24081 18.4278L9.24695 18.4293C9.29022 18.4398 9.29369 18.4962 9.25153 18.5105C9.24986 18.5111 9.24819 18.5117 9.24652 18.5123C9.21327 18.5236 9.1798 18.4934 9.18842 18.4593ZM4.57259 19.9565C4.5158 19.6054 4.92388 19.3021 5.25191 19.4397C5.43724 19.5175 5.54884 19.7165 5.50047 19.9116L4.43898 24.1923C4.66507 23.0219 4.83174 21.5591 4.57259 19.9565ZM6.47216 20.1466C6.52023 19.9529 6.70976 19.8293 6.90866 19.8461C7.26267 19.8761 7.4828 20.334 7.26917 20.6178C6.28736 21.9225 5.75215 23.2997 5.40598 24.4432L6.47216 20.1466ZM14.18 21.6012C13.1964 21.6028 12.2536 21.9925 11.558 22.685C10.8624 23.3775 10.4708 24.3163 10.469 25.2957C10.4714 26.2748 10.863 27.2131 11.5582 27.9054C12.2535 28.5978 13.1958 28.9877 14.179 28.9901C15.1626 28.9883 16.1055 28.5985 16.8014 27.9062C17.4972 27.2138 17.8893 26.2752 17.892 25.2957C17.8896 24.3163 17.4977 23.3776 16.802 22.6852C16.1063 21.9929 15.1635 21.603 14.18 21.6012ZM3.94744 25.6203C3.9478 25.6203 3.94816 25.6202 3.94851 25.6202C4.01503 25.6087 4.08334 25.6129 4.14798 25.6323L4.99398 25.8383C5.05848 25.8526 5.11939 25.8798 5.17304 25.9182C5.22669 25.9566 5.27195 26.0054 5.30607 26.0618C5.3402 26.1181 5.36249 26.1808 5.37158 26.2459C5.38068 26.3111 5.37639 26.3773 5.35898 26.4408L4.11898 31.4497C4.10466 31.514 4.0774 31.5746 4.03884 31.6281C4.00028 31.6815 3.95123 31.7266 3.89466 31.7606C3.8381 31.7945 3.77519 31.8168 3.70975 31.8258C3.64431 31.8349 3.57771 31.8305 3.51398 31.8132L2.66798 31.6071C2.60337 31.5929 2.54235 31.5656 2.48862 31.5272C2.43489 31.4887 2.38958 31.4398 2.35544 31.3834C2.3213 31.3269 2.29904 31.2641 2.29003 31.1988C2.28101 31.1336 2.28541 31.0671 2.30298 31.0036L3.54298 25.9947C3.56476 25.8991 3.61495 25.8123 3.68701 25.7455C3.75896 25.6788 3.84938 25.6352 3.94652 25.6203C3.94682 25.6203 3.94713 25.6203 3.94744 25.6203Z" stroke="#818181" mask="url(#path-1-outside-1_2695_447)"/>
</svg>
