<svg width="34" height="16" viewBox="0 0 34 16" fill="none" xmlns="http://www.w3.org/2000/svg">
<path d="M33.8823 15.3878C33.1634 15.3877 32.4528 15.234 31.7986 14.9373C31.124 14.6321 30.3922 14.473 29.6513 14.4705C28.9089 14.4734 28.1755 14.6325 27.4991 14.9373C26.8449 15.2339 26.1344 15.3873 25.4156 15.3873C24.6969 15.3873 23.9864 15.2339 23.3322 14.9373C22.6555 14.6341 21.9227 14.4752 21.1807 14.4705C20.4384 14.474 19.705 14.633 19.0285 14.9373C18.373 15.2338 17.6615 15.3873 16.9415 15.3873C16.2216 15.3873 15.51 15.2338 14.8546 14.9373C14.1813 14.633 13.4509 14.4739 12.7115 14.4705C11.9694 14.4739 11.2363 14.633 10.56 14.9373C9.90473 15.234 9.19325 15.3875 8.47341 15.3875C7.75358 15.3875 7.04209 15.234 6.38682 14.9373C5.71071 14.6324 4.97749 14.4733 4.23529 14.4705C3.49575 14.4747 2.76535 14.6337 2.09153 14.9373C1.43434 15.2335 0.721378 15.3871 0 15.3878V12.2978C0.720281 12.2937 1.43209 12.1428 2.09153 11.8542C2.76354 11.5445 3.49479 11.3829 4.23529 11.3805C5.00188 11.3805 5.73671 11.5562 6.38682 11.8542C7.04255 12.1428 7.7509 12.2937 8.46776 12.2978C9.18839 12.2948 9.90066 12.1438 10.56 11.8542C11.2345 11.5437 11.9684 11.3821 12.7115 11.3805C13.4725 11.3805 14.2038 11.5562 14.8546 11.8542C15.5132 12.1431 16.2244 12.2941 16.944 12.2978C17.662 12.294 18.3716 12.1431 19.0285 11.8542C19.7032 11.5438 20.4374 11.3821 21.1807 11.3805C21.9381 11.3805 22.6722 11.5562 23.3322 11.8542C23.964 12.1305 24.6734 12.2978 25.4146 12.2978C26.1327 12.2947 26.8424 12.1436 27.4991 11.8542C28.1736 11.5432 28.9079 11.3816 29.6513 11.3805C30.4179 11.3805 31.1513 11.5562 31.7986 11.8542C32.4551 12.1435 33.1645 12.2945 33.8823 12.2978V15.3878Z" fill="#EEEEEE"/>
<path d="M33.8824 9.9113C33.1634 9.91114 32.4529 9.7575 31.7986 9.46072C31.1241 9.15558 30.3922 8.9965 29.6513 8.99398C28.9089 8.99688 28.1755 9.15594 27.4991 9.46072C26.8449 9.75732 26.1344 9.91078 25.4156 9.91078C24.6969 9.91078 23.9864 9.75732 23.3322 9.46072C22.6555 9.15759 21.9227 8.99861 21.1807 8.99398C20.4384 8.99741 19.705 9.15644 19.0285 9.46072C18.373 9.75729 17.6615 9.91072 16.9415 9.91072C16.2216 9.91072 15.51 9.75729 14.8546 9.46072C14.1813 9.15645 13.4509 8.99739 12.7115 8.99398C11.9694 8.99741 11.2363 9.15644 10.56 9.46072C9.90473 9.75745 9.19325 9.91097 8.47341 9.91097C7.75358 9.91097 7.04209 9.75745 6.38683 9.46072C5.71071 9.15585 4.97749 8.99679 4.23529 8.99398C3.49575 8.99817 2.76535 9.1572 2.09153 9.46072C1.43434 9.75694 0.721378 9.91053 0 9.9113V6.82125C0.720281 6.8172 1.43209 6.66625 2.09153 6.3777C2.76354 6.06796 3.49479 5.90635 4.23529 5.90393C5.00188 5.90393 5.73671 6.07966 6.38683 6.3777C7.04255 6.66622 7.7509 6.8172 8.46777 6.82125C9.18839 6.8183 9.90066 6.66731 10.56 6.3777C11.2345 6.06714 11.9684 5.90553 12.7115 5.90393C13.4725 5.90393 14.2038 6.07966 14.8546 6.3777C15.5132 6.66654 16.2244 6.81751 16.944 6.82125C17.662 6.8175 18.3716 6.66652 19.0285 6.3777C19.7032 6.06721 20.4374 5.9056 21.1807 5.90393C21.9381 5.90393 22.6722 6.07966 23.3322 6.3777C23.964 6.65395 24.6734 6.82125 25.4146 6.82125C26.1327 6.81811 26.8424 6.6671 27.4991 6.3777C28.1736 6.06668 28.9079 5.90505 29.6513 5.90393C30.4179 5.90393 31.1513 6.07966 31.7986 6.3777C32.4551 6.66694 33.1645 6.81795 33.8824 6.82125V9.9113Z" fill="#EEEEEE"/>
<path d="M33.8824 4.93192C33.1634 4.93177 32.4529 4.77813 31.7986 4.48135C31.1241 4.17621 30.3922 4.01712 29.6513 4.01461C28.9089 4.01751 28.1755 4.17657 27.4991 4.48135C26.8449 4.77794 26.1344 4.93141 25.4156 4.93141C24.6969 4.93141 23.9864 4.77794 23.3322 4.48135C22.6555 4.17822 21.9227 4.01924 21.1807 4.01461C20.4384 4.01804 19.705 4.17707 19.0285 4.48135C18.373 4.77791 17.6615 4.93135 16.9415 4.93135C16.2216 4.93135 15.51 4.77791 14.8546 4.48135C14.1813 4.17708 13.4509 4.01801 12.7115 4.01461C11.9694 4.01803 11.2363 4.17706 10.56 4.48135C9.90473 4.77808 9.19325 4.9316 8.47341 4.9316C7.75358 4.9316 7.04209 4.77808 6.38683 4.48135C5.71071 4.17648 4.97749 4.01742 4.23529 4.01461C3.49575 4.0188 2.76535 4.17782 2.09153 4.48135C1.43434 4.77757 0.721378 4.93116 0 4.93192V1.84187C0.720281 1.83783 1.43209 1.68688 2.09153 1.39833C2.76354 1.08858 3.49479 0.926979 4.23529 0.924561C5.00188 0.924561 5.73671 1.10029 6.38683 1.39833C7.04255 1.68684 7.7509 1.83783 8.46777 1.84187C9.18839 1.83893 9.90066 1.68793 10.56 1.39833C11.2345 1.08777 11.9684 0.926154 12.7115 0.924561C13.4725 0.924561 14.2038 1.10029 14.8546 1.39833C15.5132 1.68717 16.2244 1.83814 16.944 1.84187C17.662 1.83813 18.3716 1.68714 19.0285 1.39833C19.7032 1.08784 20.4374 0.92623 21.1807 0.924561C21.9381 0.924561 22.6722 1.10029 23.3322 1.39833C23.964 1.67458 24.6734 1.84187 25.4146 1.84187C26.1327 1.83873 26.8424 1.68772 27.4991 1.39833C28.1736 1.08731 28.9079 0.925674 29.6513 0.924561C30.4179 0.924561 31.1513 1.10029 31.7986 1.39833C32.4551 1.68757 33.1645 1.83858 33.8824 1.84187V4.93192Z" fill="#EEEEEE"/>
</svg>
