<svg width="31" height="30" viewBox="0 0 31 30" fill="none" xmlns="http://www.w3.org/2000/svg">
<g id="Table Tennis">
<g id="Group 217">
<path id="Vector" d="M24.0226 21.5991C23.4472 20.9512 23.1394 20.1088 23.1617 19.2425C23.1839 18.3761 23.5346 17.5507 24.1425 16.9331C24.7505 16.3156 25.5705 15.9521 26.4363 15.9164C27.3022 15.8806 28.1493 16.1752 28.8061 16.7405C29.7398 14.7134 30.1352 12.4798 29.9542 10.2554C29.7814 7.58935 28.6384 5.07882 26.7411 3.19787C24.8438 1.31693 22.3234 0.195754 19.656 0.0460581C15.6583 -0.29562 11.8042 1.26927 8.51727 4.55622C7.60378 5.47485 6.84665 6.53667 6.27586 7.69966L22.3142 23.7176C23.1784 23.2922 23.9883 22.7645 24.7265 22.1458C24.469 21.9951 24.2324 21.8113 24.0226 21.5991ZM20.9544 24.2916L5.72917 9.06637C5.53495 9.62387 5.38192 10.1949 5.27132 10.7748L19.246 24.7494C19.8259 24.6388 20.3969 24.4858 20.9544 24.2916ZM5.06631 12.5037C4.98342 14.0826 5.21572 15.6623 5.74967 17.1505C5.93753 17.631 5.98266 18.1555 5.87961 18.661C5.77657 19.1665 5.52976 19.6315 5.16882 20.0001L0.788498 24.3941C0.283572 24.9001 0 25.5858 0 26.3006C0 27.0155 0.283572 27.7012 0.788498 28.2072L1.8067 29.2254C2.31703 29.7222 3.00109 30.0001 3.71327 30.0001C4.42544 30.0001 5.1095 29.7222 5.61983 29.2254L10.0207 24.8246C10.3893 24.4637 10.8543 24.2168 11.3598 24.1138C11.8653 24.0108 12.3898 24.0559 12.8703 24.2437C14.3584 24.7779 15.9381 25.0102 17.5171 24.9271L5.06631 12.5037Z" fill="#EEEEEE"/>
<path id="Vector_2" d="M28.8228 17.0021C28.3809 16.5402 27.8119 16.2196 27.1879 16.0809C26.5638 15.9422 25.9127 15.9916 25.3167 16.2229C24.7207 16.4542 24.2066 16.8569 23.8394 17.3802C23.4723 17.9035 23.2685 18.524 23.2538 19.1631C23.2391 19.8022 23.4142 20.4313 23.757 20.971C24.0997 21.5106 24.5948 21.9365 25.1795 22.1949C25.7642 22.4533 26.4125 22.5325 27.0422 22.4226C27.672 22.3127 28.255 22.0186 28.7177 21.5774C29.0253 21.2841 29.2721 20.933 29.4439 20.5442C29.6157 20.1554 29.7092 19.7365 29.7189 19.3116C29.7287 18.8866 29.6546 18.4639 29.5008 18.0676C29.347 17.6714 29.1166 17.3093 28.8228 17.0021Z" fill="#EEEEEE" stroke="#818181"/>
</g>
</g>
</svg>
