<svg width="27" height="30" viewBox="0 0 27 30" fill="none" xmlns="http://www.w3.org/2000/svg">
<g id="Group 207">
<g id="Group 266">
<path id="Vector" d="M19.2783 19.8077V21.0457C19.2783 22.0695 20.1307 22.9026 21.1782 22.9026H24.9779C26.0253 22.9026 26.8777 22.0695 26.8777 21.0457V19.8077H19.2783ZM23.078 4.95192C22.7285 4.95192 22.4447 4.67461 22.4447 4.33293V0.61899C22.4447 0.277308 22.7285 0 23.078 0C23.4276 0 23.7113 0.277308 23.7113 0.61899V4.33293C23.7113 4.67461 23.4276 4.95192 23.078 4.95192Z" fill="#EEEEEE"/>
<path id="Vector_2" d="M26.2446 1.23798H19.9111C19.5615 1.23798 19.2778 0.960673 19.2778 0.61899C19.2778 0.277308 19.5615 0 19.9111 0H26.2446C26.5942 0 26.8779 0.277308 26.8779 0.61899C26.8779 0.960673 26.5942 1.23798 26.2446 1.23798ZM7.90212 6.23385C9.66012 6.23385 11.0907 4.83555 11.0907 3.11723C11.0907 1.3983 9.66012 0 7.90212 0C6.14348 0 4.71289 1.3983 4.71289 3.11723C4.71289 4.83555 6.14348 6.23385 7.90212 6.23385ZM24.978 3.71394H21.1783C20.1309 3.71394 19.2785 4.5471 19.2785 5.57091V5.63343C20.7217 5.92126 21.8116 7.171 21.8116 8.66586V9.90384C21.8116 11.3981 20.7217 12.6484 19.2785 12.9363V18.5697H26.8779V5.57091C26.8779 4.5471 26.0255 3.71394 24.978 3.71394Z" fill="#EEEEEE"/>
<path id="Vector_3" d="M18.6441 6.80933H16.111C15.7614 6.80933 15.4777 7.08663 15.4777 7.42832H11.678H5.34511C4.69156 7.42832 4.11464 7.75267 3.77266 8.24476C4.1235 8.11601 4.49461 8.04297 4.87141 8.04297C5.71748 8.04297 6.51479 8.37042 7.11514 8.96527L7.99921 9.83C8.5964 10.4131 8.92571 11.1905 8.92571 12.0187C8.92571 12.8457 8.5964 13.6232 7.99858 14.2075L6.20701 15.9592C5.84794 16.3102 5.37107 16.5033 4.86318 16.5033C4.35528 16.5033 3.87842 16.3102 3.51998 15.9592L3.44462 15.8856V19.7085L0.309858 28.898C0.245263 29.0868 0.278194 29.2941 0.397251 29.4557C0.516309 29.6166 0.708195 29.712 0.911479 29.712H4.07917C4.35212 29.712 4.59403 29.5417 4.68016 29.2886L7.70156 20.4271H8.21516L11.0447 23.7461L11.044 29.093C11.044 29.257 11.1105 29.4148 11.2296 29.5306C11.3487 29.6463 11.5095 29.712 11.6773 29.712H14.2111C14.5607 29.712 14.8444 29.4347 14.8444 29.093V22.9031C14.8444 22.7626 14.7956 22.6264 14.7057 22.5162L12.3112 19.5909V11.1423H15.4777C15.4777 11.4839 15.7614 11.7612 16.111 11.7612H18.6441C19.6916 11.7612 20.544 10.9281 20.544 9.90428V8.6663C20.544 7.64249 19.6916 6.80933 18.6441 6.80933Z" fill="#EEEEEE"/>
<path id="Vector_4" d="M4.41756 15.0832C4.53662 15.1996 4.69747 15.2646 4.86529 15.2646C5.03311 15.2646 5.1946 15.1996 5.31302 15.0832L7.10522 13.3315C7.46366 12.9811 7.66125 12.5144 7.66125 12.018C7.66125 11.5209 7.46366 11.0548 7.10522 10.7045L6.21546 9.83416C5.52961 9.15451 4.45302 9.09385 3.69815 9.68808C3.63608 9.73079 3.57592 9.78093 3.52526 9.83045L1.73306 11.576C1.614 11.6924 1.54751 11.849 1.54688 12.0136C1.54688 12.1777 1.61274 12.3355 1.73179 12.4519L4.41756 15.0832Z" fill="#EEEEEE"/>
</g>
</g>
</svg>
