<svg width="17" height="34" viewBox="0 0 17 34" fill="none" xmlns="http://www.w3.org/2000/svg">
<g id="Group 210">
<path id="Vector" d="M8.24945 0.0038346C7.77327 -0.0122978 7.29676 0.0225056 6.82751 0.107614C4.03584 0.607649 1.63079 2.82773 0.892709 5.9213L0.374544 8.09162C-0.254082 10.7215 -0.0693101 13.3035 0.763168 15.3794C0.902752 15.7269 1.06644 16.0537 1.24317 16.3722L1.23514 16.3826C3.31583 19.5872 2.75348 22.8551 2.29055 24.8708C2.11489 24.9742 1.96129 25.1133 1.83894 25.2797C1.71659 25.446 1.62803 25.6361 1.57857 25.8386L0.333372 31.0569C0.135545 31.8847 0.634631 32.7365 1.43598 32.9409L2.28452 33.1555C2.67206 33.2525 3.08099 33.1875 3.42233 32.9746C3.76367 32.7616 4.00979 32.418 4.10714 32.0186L5.35435 26.8003C5.45477 26.3771 5.37142 25.9486 5.16054 25.6021C5.65762 23.5957 6.63068 20.4316 9.91641 18.5933L9.9124 18.5829C10.2116 18.3858 10.5049 18.1752 10.786 17.9345C12.457 16.4967 13.7836 14.2973 14.4112 11.6675L14.9294 9.49933C15.9145 5.3756 13.5807 1.20309 9.70051 0.214433C9.22515 0.0931701 8.73882 0.0236809 8.24945 0.00700054V0.0038346ZM8.21229 1.03714C8.46133 1.04751 8.71439 1.07656 8.96544 1.11806L8.72544 2.12122L7.52542 1.8152L7.7102 1.04752C7.87733 1.03627 8.04486 1.0328 8.21229 1.03714ZM6.6357 1.21766L6.55035 1.56826L5.95988 1.41996C6.1808 1.33801 6.40775 1.27368 6.6357 1.21766ZM9.94152 1.37013C10.3472 1.51018 10.7298 1.69173 11.0863 1.91062L10.9025 2.6783L9.70252 2.37228L9.94152 1.37013ZM5.10933 2.26958L6.30934 2.5756L6.06432 3.60472L4.8623 3.30079L5.10933 2.26958ZM11.966 2.5673C12.1467 2.72914 12.3174 2.89617 12.4781 3.07771L11.8796 2.92626L11.966 2.5673ZM3.99266 2.60776L3.88722 3.05182L3.60303 2.97919C3.72794 2.84994 3.85793 2.72601 3.99266 2.60776ZM7.28442 2.82254L8.48644 3.12856L8.23941 4.1618L7.03939 3.85584L7.28442 2.82254ZM9.46352 3.37962L10.6635 3.68564L10.4165 4.71483L9.21649 4.40874L9.46352 3.37962ZM2.89307 3.86407L3.64621 4.05808L3.40119 5.08511L2.35181 4.81854C2.50846 4.48138 2.69022 4.16285 2.89307 3.86407ZM11.6396 3.93258L12.8406 4.23854L12.5956 5.26773L11.3936 4.96164L11.6396 3.93258ZM4.62028 4.30604L5.82331 4.61098L5.57829 5.63802L4.37526 5.33206L4.62028 4.30604ZM6.79738 4.85995L8.00041 5.16604L7.75538 6.19307L6.55236 5.88813L6.79738 4.85995ZM13.6781 5.06131C13.7454 5.23352 13.8057 5.40877 13.8589 5.58825L13.5707 5.51568L13.6781 5.06131ZM8.97648 5.41399L10.1775 5.72008L9.93248 6.74711L8.72945 6.44103L8.97648 5.41399ZM1.98427 5.79264L3.15918 6.09252L2.91416 7.12158L1.71213 6.81549L1.86678 6.16508C1.89791 6.03644 1.94711 5.91921 1.98427 5.79264ZM11.1536 5.96905L12.3546 6.275L12.1086 7.30204L10.9065 6.99608L11.1536 5.96905ZM4.13425 6.3425L5.33628 6.64745L5.09125 7.67448L3.88923 7.36852L4.13425 6.3425ZM13.3287 6.52195L14.0959 6.71912C14.1401 7.07911 14.1581 7.44831 14.1451 7.82075L13.0836 7.55101L13.3287 6.52195ZM6.31135 6.89642L7.51337 7.2025L7.26835 8.22953L6.06633 7.92459L6.31135 6.89642ZM8.49045 7.44944L9.69047 7.7554L9.44545 8.7856L8.24342 8.47952L8.49045 7.44944ZM1.47113 7.8229L2.67315 8.12885L2.42812 9.15804L1.24518 8.85614C1.27932 8.68185 1.30744 8.50969 1.34962 8.3354L1.47113 7.8229ZM10.6676 8.00336L11.8676 8.30944L11.6225 9.3385L10.4205 9.03254L10.6676 8.00336ZM3.64822 8.3758L4.85024 8.68188L4.60522 9.71094L3.4032 9.40498L3.64822 8.3758ZM12.8426 8.55841L14.0276 8.8593C14.0035 8.98794 13.9854 9.11653 13.9543 9.24517L13.7996 9.89355L12.5976 9.58747L12.8426 8.55841ZM5.82733 8.93187L7.02734 9.23681L6.78232 10.266L5.5803 9.95991L5.82733 8.93187ZM8.00442 9.48591L9.20444 9.79186L8.95941 10.821L7.75739 10.516L8.00442 9.48591ZM1.08552 9.88317L2.18712 10.1633L1.94109 11.1924L1.01221 10.9548C1.01924 10.6021 1.04535 10.2442 1.08552 9.88317ZM10.1815 10.0388L11.3815 10.3449L11.1365 11.375L9.93348 11.069L10.1815 10.0388ZM3.16219 10.4123L4.36421 10.7183L4.11819 11.7454L2.91616 11.4393L3.16219 10.4123ZM12.3566 10.5949L13.5606 10.9008L13.4371 11.4155C13.3949 11.5898 13.3437 11.7557 13.2965 11.9258L12.1116 11.6239L12.3566 10.5949ZM5.34029 10.9683L6.54131 11.2733L6.29528 12.3003L5.09527 11.9943L5.34029 10.9683ZM7.51739 11.5202L8.71841 11.8263L8.47238 12.8554L7.27036 12.5494L7.51739 11.5202ZM1.04133 12.0327L1.70008 12.2018L1.45506 13.2288L1.18292 13.1625C1.11586 12.7892 1.06859 12.4113 1.04133 12.0327ZM9.69448 12.0753L10.8955 12.3812L10.6495 13.4114L9.44745 13.1053L9.69448 12.0753ZM2.67516 12.4487L3.87718 12.7548L3.63215 13.7839L2.43013 13.4778L2.67516 12.4487ZM11.8696 12.6313L12.9722 12.9115C12.8446 13.2497 12.7091 13.5816 12.5564 13.897L11.6245 13.6604L11.8696 12.6313ZM4.85426 13.0038L6.05428 13.3097L5.80925 14.3389L4.60924 14.0328L4.85426 13.0038ZM7.03136 13.5587L8.23137 13.8648L7.98635 14.8918L6.78433 14.5857L7.03136 13.5587ZM9.20645 14.1117L10.4115 14.4177L10.1634 15.4469L8.96142 15.1418L9.20645 14.1117ZM2.18913 14.4852L3.39115 14.7911L3.14613 15.8183L1.9431 15.5122L2.18913 14.4852ZM11.3835 14.6678L12.0463 14.8358C11.8503 15.1568 11.6375 15.4664 11.4086 15.7632L11.1375 15.6948L11.3835 14.6698V14.6678ZM4.36823 15.0402L5.56825 15.3462L5.32322 16.3732L4.1222 16.0673L4.36823 15.0402ZM6.54432 15.5931L7.74534 15.8992L7.50032 16.9283L6.29729 16.6222L6.54432 15.5931ZM8.71941 16.1482L9.92445 16.4542L9.67741 17.4833L8.47439 17.1773L8.71941 16.1482ZM2.72035 16.7789L2.90411 16.8256L2.87399 16.9553C2.82277 16.8961 2.76955 16.8411 2.72035 16.7789ZM3.8812 17.0746L5.08121 17.3806L4.84422 18.3734C4.44338 18.2214 4.06461 18.0134 3.71852 17.7551L3.8812 17.0746ZM6.05829 17.6296L7.25831 17.9356L7.09563 18.6161C6.67282 18.6777 6.24399 18.6812 5.8203 18.6265L6.05829 17.6338V17.6296ZM8.23338 18.1845L8.41815 18.2313C8.34685 18.2624 8.27355 18.2842 8.20225 18.3122L8.23338 18.1845ZM3.37307 18.7542C3.75668 19.0135 4.16639 19.2262 4.60522 19.3818L3.45341 24.2006C3.72655 22.7337 3.91333 20.8259 3.37307 18.7542ZM5.5803 19.6297C6.0372 19.7013 6.49411 19.7107 6.94901 19.6661C5.5341 21.2471 4.84221 23.0303 4.42447 24.462L5.5803 19.6297ZM13.2353 21.5012C12.2476 21.5028 11.3008 21.9089 10.6023 22.6303C9.90382 23.3517 9.51057 24.3297 9.50871 25.3501C9.5111 26.3701 9.90438 27.3476 10.6025 28.0689C11.3007 28.7901 12.2469 29.1964 13.2343 29.1989C14.2221 29.1969 15.1689 28.7909 15.8677 28.0696C16.5664 27.3483 16.9602 26.3705 16.9629 25.3501C16.9605 24.3297 16.5669 23.3519 15.8683 22.6305C15.1697 21.9092 14.223 21.5031 13.2353 21.5012ZM2.96035 25.6882C3.02732 25.6761 3.0961 25.6804 3.16119 25.7007L4.01074 25.9154C4.0755 25.9302 4.13668 25.9586 4.19055 25.9986C4.24442 26.0386 4.28987 26.0895 4.32414 26.1482C4.35841 26.2068 4.38079 26.2721 4.38993 26.34C4.39906 26.4079 4.39475 26.4769 4.37727 26.543L3.13207 31.7612C3.11769 31.8282 3.09031 31.8914 3.05159 31.947C3.01287 32.0027 2.96362 32.0497 2.90681 32.0851C2.85 32.1205 2.78683 32.1436 2.72112 32.1531C2.65541 32.1625 2.58853 32.158 2.52453 32.1399L1.67498 31.9252C1.6101 31.9104 1.54882 31.882 1.49487 31.8419C1.44092 31.8018 1.39541 31.7509 1.36113 31.6921C1.32685 31.6333 1.3045 31.5679 1.29544 31.4999C1.28638 31.4319 1.29081 31.3627 1.30845 31.2965L2.55365 26.0782C2.57552 25.9787 2.62592 25.8882 2.69828 25.8186C2.77065 25.7491 2.86162 25.7036 2.95934 25.6882H2.96035Z" fill="#EEEEEE"/>
</g>
</svg>
