<svg width="29" height="29" viewBox="0 0 29 29" fill="none" xmlns="http://www.w3.org/2000/svg">
<path d="M21.0412 11.7585C18.7788 11.7372 16.5397 12.2781 14.5281 13.3244M21.0412 11.7585L21.0377 12.1334M21.0412 11.7585C21.0411 11.7585 21.0411 11.7585 21.0411 11.7585L21.0377 12.1334M21.0412 11.7585C22.8201 11.7746 24.5803 12.1354 26.2181 12.8097M14.5281 13.3244L21.0377 12.1334M14.5281 13.3244C13.2805 12.5218 12.2111 11.4986 11.3585 10.3232C15.0848 7.03111 20.497 6.40768 24.8834 8.81799M14.5281 13.3244L24.8834 8.81799M21.0377 12.1334C22.8397 12.1498 24.6224 12.5297 26.2717 13.2392C26.2564 13.0952 26.2385 12.9521 26.2181 12.8097M26.2181 12.8097C26.013 11.3816 25.5523 10.0351 24.8834 8.81799M26.2181 12.8097C26.3527 12.8652 26.4866 12.9228 26.6195 12.9824C26.4209 11.3872 25.9137 9.88658 25.1592 8.54219L24.8834 8.81799M14.4996 0.624993C6.84879 0.624993 0.624993 6.84893 0.624993 14.4999C0.624993 22.1508 6.8488 28.3746 14.4996 28.3746C22.1509 28.3746 28.375 22.1508 28.375 14.4999C28.375 6.84891 22.1509 0.624993 14.4996 0.624993ZM19.688 13.8678C20.676 18.7419 18.5089 23.7415 14.2266 26.3348C12.7734 26.3017 11.3847 26.0058 10.1056 25.4926C11.5082 24.4116 12.7004 23.0678 13.6037 21.5355C14.753 19.5861 15.4044 17.3773 15.5041 15.1121C16.823 14.433 18.2437 14.0185 19.688 13.8678ZM14.4996 2.66066C17.5377 2.66071 20.3121 3.81102 22.4109 5.69992C18.2023 4.69541 13.6921 5.71032 10.2942 8.55387C9.60134 7.13559 9.18806 5.57632 9.10447 3.96354C10.7232 3.13111 12.557 2.66066 14.4996 2.66066ZM4.38759 8.35C5.12468 7.14248 6.07185 6.07643 7.17805 5.20325C7.41343 6.95659 7.98079 8.65906 8.85525 10.206C9.9688 12.1758 11.5563 13.8439 13.4679 15.0627C13.3967 16.5448 13.0453 17.9827 12.4536 19.309C7.73976 17.728 4.49401 13.3534 4.38759 8.35ZM2.66072 14.4999C2.66072 13.6545 2.74994 12.8298 2.91922 12.0344C4.15057 16.188 7.28703 19.5926 11.4534 21.1153C10.5721 22.4237 9.42928 23.5607 8.0754 24.4392C4.81839 22.3266 2.66072 18.6602 2.66072 14.4999ZM26.3239 15.0963C26.075 20.0869 22.7203 24.2745 18.157 25.7601C21.1372 22.617 22.5167 18.1994 21.7524 13.8308C23.3276 13.9399 24.8851 14.3618 26.3239 15.0963Z" fill="#EEEEEE" stroke="#EEEEEE" stroke-width="0.750014"/>
</svg>
